SplineFontDB: 3.0
FontName: Loma-BoldOblique
FullName: Loma Bold Oblique
FamilyName: Loma
Weight: Bold
Copyright: Copyright (c) NECTEC, 2003. All rights reserved.\nModified under GNU General Public License by TLWG.
Version: 0.9.18: 2012-02-13
ItalicAngle: -12
UnderlinePosition: -170
UnderlineWidth: 10
Ascent: 1638
Descent: 410
LayerCount: 2
Layer: 0 0 "Back"  1
Layer: 1 0 "Fore"  0
NeedsXUIDChange: 1
FSType: 0
OS2Version: 0
OS2_WeightWidthSlopeOnly: 0
OS2_UseTypoMetrics: 0
CreationTime: 1153662534
ModificationTime: 1329133030
PfmFamily: 33
TTFWeight: 700
TTFWidth: 5
LineGap: 0
VLineGap: 0
Panose: 2 11 6 4 2 2 2 2 2 4
OS2TypoAscent: 0
OS2TypoAOffset: 1
OS2TypoDescent: 0
OS2TypoDOffset: 1
OS2TypoLinegap: 0
OS2WinAscent: 0
OS2WinAOffset: 1
OS2WinDescent: 0
OS2WinDOffset: 1
HheadAscent: 0
HheadAOffset: 1
HheadDescent: 0
HheadDOffset: 1
OS2Vendor: 'PfEd'
Lookup: 4 0 1 "'liga' Standard Ligatures lookup 0"  {"'liga' Standard Ligatures lookup 0"  } ['liga' ('latn' <'dflt' > ) ]
Lookup: 6 0 0 "'ccmp' Thai Conditional Descender Removal"  {"'ccmp' Thai Conditional Descender Removal"  } ['ccmp' ('DFLT' <'dflt' > 'thai' <'KUY ' 'THA ' 'dflt' > ) ]
Lookup: 1 0 0 "'ccmp' Pali-Sanskrit Descender Removal"  {"'ccmp' Pali-Sanskrit Descender Removal" ("descless" ) } ['ccmp' ('thai' <'PAL ' 'SAN ' > ) ]
Lookup: 6 0 0 "'ccmp' Thai General Composition"  {"'ccmp' Thai Below Vowel Tone Reordering"  "'ccmp' Thai General Composition"  } ['ccmp' ('DFLT' <'dflt' > 'thai' <'KUY ' 'PAL ' 'SAN ' 'THA ' 'dflt' > ) ]
Lookup: 1 0 0 "Thai Descender Removal Single Substitution"  {"Thai Descender Removal Single Substitution" ("descless" ) } []
Lookup: 2 0 0 "Thai Sara Am Decomposition"  {"Thai Sara Am Decomposition"  } []
Lookup: 2 0 0 "Thai Tone Nikhahit Attachment"  {"Thai Tone Nikhahit Attachment"  } []
Lookup: 1 0 0 "Thai Sara Am Lakkhang"  {"Thai Sara Am Lakkhang"  } []
Lookup: 1 0 0 "Thai Tone Low Variant"  {"Thai Tone Low Variant" ("low" ) } []

StartChar: .notdef
Encoding: 65536 -1 0
Width: 1536
Flags: W
HStem: 0 32<295 1255> 1248 32<553 1513>
DStem2: 256 0 288.198 0 0.207912 0.978148<39.4093 1282.48> 1248.2 0 1280 0 0.207912 0.978148<32.7149 1275.78>
LayerCount: 2
Fore
SplineSet
256 0 m 1
 528 1280 l 1
 1552 1280 l 1
 1280 0 l 1
 256 0 l 1
295 32 m 1
 1255 32 l 1
 1513 1248 l 1
 553 1248 l 1
 295 32 l 1
EndSplineSet
EndChar

StartChar: uni0E47.high
Encoding: 63263 63263 1
Width: 0
Flags: W
HStem: 1797.6 128.7<-220.887 -129.8> 1876.8 150.3<-384.739 -262.537> 2047.8 66.6<-79.6827 -10.242>
VStem: -578 162.9<1899.99 2066.39> -159.5 77.4<1979.84 2046.56> -8.3 102.6<1980.77 2047.36>
AnchorPoint: "AboveMark" -297 1740 mark 0
LayerCount: 2
Back
SplineSet
-10 2014 m 0
 -9.45683 2016.31 -9.19026 2018.62 -9.19026 2020.88 c 0
 -9.19026 2035.3 -19.9874 2048 -39 2048 c 0
 -60 2048 -78 2031 -82 2014 c 0
 -82.3477 2011.91 -82.5208 2009.84 -82.5208 2007.81 c 0
 -82.5208 1992.29 -72.4502 1979 -53 1979 c 0
 -31 1979 -13 1996 -10 2014 c 0
-332 2027 m 0
 -258 2027 -206 1926 -153 1926 c 0
 -137 1926 -131 1933 -131 1933 c 1
 -149.966 1947.22 -160.189 1966.44 -160.189 1991.15 c 0
 -160.189 1997.71 -159.468 2004.66 -158 2012 c 0
 -148 2059 -94 2114 -22 2114 c 0
 73.9674 2114 93.3996 2060.37 93.3996 2015.11 c 0
 93.3996 1997.64 90.506 1981.42 88 1970 c 0
 68 1878 -8 1798 -107 1798 c 0
 -175 1798 -229 1812 -270 1842 c 0
 -293 1855 -311 1877 -348 1877 c 0
 -388 1877 -389 1801 -401 1798 c 1
 -542.181 1798 -578.803 1881.91 -578.803 1954.63 c 4
 -578.803 1971.02 -576.943 1986.84 -574 2001 c 0
 -554 2095 -470 2192 -361 2218 c 0
 -191 2258 -10 2209 65 2347 c 1
 228 2347 l 1
 199 2255 73 2156 -13 2136 c 0
 -173 2099 -389 2131 -414 2012 c 0
 -415.333 2006.67 -415.889 2002.33 -415.889 1998.56 c 0
 -415.889 1991 -413.667 1985.67 -411 1979 c 1
 -388 2011 -362 2027 -332 2027 c 0
EndSplineSet
Fore
Refer: 190 3655 N 0.9 0 0 0.9 70 642 2
EndChar

StartChar: uni0E4D.high
Encoding: 63262 63262 2
Width: 0
VWidth: 2561
Flags: W
HStem: 1719 104<83.2359 188.116> 1928 107<86.0393 191.555>
VStem: -24 106<1823.17 1923.21> 193 105<1827.11 1927.24>
AnchorPoint: "AboveMark" 108 1740 mark 0
LayerCount: 2
Fore
SplineSet
-24 1842 m 0
 -24 1932 62 2035 172 2035 c 0
 252 2035 298 1978 298 1911 c 0
 298 1813 208 1719 104 1719 c 0
 17 1719 -24 1786 -24 1842 c 0
82 1861 m 0
 82 1831 113 1823 126 1823 c 0
 168 1823 193 1859 193 1887 c 0
 193 1912 176 1928 149 1928 c 0
 115 1928 82 1902 82 1861 c 0
EndSplineSet
EndChar

StartChar: exclam
Encoding: 33 33 5
Width: 569
Flags: W
HStem: 0 194<217 400> 1430 20G<471.743 716>
VStem: 290 153<365 416.35>
DStem2: 176 0 400 0 0.207912 0.978148<46.5722 198.285 555.033 1480.69>
LayerCount: 2
Fore
SplineSet
380 999 m 1
 476 1450 l 1
 716 1450 l 1
 620 999 l 1
 443 365 l 1
 290 365 l 1
 380 999 l 1
217 194 m 1
 441 194 l 1
 400 0 l 1
 176 0 l 1
 217 194 l 1
EndSplineSet
EndChar

StartChar: quotedbl
Encoding: 34 34 6
Width: 727
Flags: W
HStem: 947 503<414 492 697 773>
VStem: 357 570
LayerCount: 2
Fore
SplineSet
357 947 m 1
 365 1217 l 1
 414 1450 l 1
 644 1450 l 1
 595 1217 l 1
 492 947 l 1
 357 947 l 1
638 947 m 1
 648 1217 l 1
 697 1450 l 1
 927 1450 l 1
 878 1217 l 1
 773 947 l 1
 638 947 l 1
EndSplineSet
EndChar

StartChar: numbersign
Encoding: 35 35 7
Width: 1139
Flags: W
HStem: -10 21G<55 303.427 514 769.32> 365 220<145 213 545 672 1008 1191> 875 220<254 427 760 886 1221 1299> 1450 20G<668.627 917 1127.63 1376>
DStem2: 55 -10 295 -10 0.387444 0.921893<92.9866 406.926 738.374 960.005 1291.84 1605.39> 514 -10 761 -10 0.387444 0.921893<95.6987 406.926 739.924 960.005 1292.61 1605.39>
LayerCount: 2
Fore
SplineSet
295 -10 m 1
 55 -10 l 1
 213 365 l 1
 99 365 l 1
 145 585 l 1
 305 585 l 1
 427 875 l 1
 207 875 l 1
 254 1095 l 1
 520 1095 l 1
 677 1470 l 1
 917 1470 l 1
 760 1095 l 1
 979 1095 l 1
 1136 1470 l 1
 1376 1470 l 1
 1221 1095 l 1
 1346 1095 l 1
 1299 875 l 1
 1129 875 l 1
 1008 585 l 1
 1237 585 l 1
 1191 365 l 1
 917 365 l 1
 761 -10 l 1
 514 -10 l 1
 672 365 l 1
 453 365 l 1
 295 -10 l 1
886 875 m 1
 667 875 l 1
 545 585 l 1
 764 585 l 1
 886 875 l 1
EndSplineSet
EndChar

StartChar: dollar
Encoding: 36 36 8
Width: 1139
Flags: W
VStem: 151 246<227.452 417> 314 240<876.806 1114.02> 893 246<295.519 561.464> 993 245<1050.98 1176.08>
DStem2: 414 -137 654 -137 0.207912 0.978148<49.8988 105.323 391.362 783.195 1018.44 1363.69 1647.77 1680.64>
LayerCount: 2
Fore
SplineSet
654 -137 m 1x20
 414 -137 l 1
 436 -34 l 1
 250 -4 151 101 151 285 c 3
 151 325 156 369 165 417 c 1
 405 417 l 1
 400 391 397 368 397 346 c 3xa0
 397 274 426 224 485 198 c 1
 576 625 l 1
 428 666 314 758 314 931 c 3
 314 1211 501 1386 746 1425 c 1
 763 1507 l 1
 1003 1507 l 1
 986 1426 l 1
 1154 1400 1238 1309 1238 1143 c 3
 1238 1114 1236 1083 1231 1050 c 1
 991 1050 l 1
 992 1059 993 1068 993 1077 c 3x50
 993 1120 978 1162 936 1188 c 1
 855 811 l 1
 990 782 1139 711 1139 508 c 3
 1139 203 892 -24 676 -32 c 1
 654 -137 l 1x20
725 197 m 1
 823 232 893 324 893 461 c 3
 893 530 862 564 807 582 c 1
 725 197 l 1
626 859 m 1
 697 1197 l 1
 624 1172 554 1088 554 966 c 3x40
 554 915 584 881 626 859 c 1
EndSplineSet
EndChar

StartChar: percent
Encoding: 37 37 9
Width: 1821
Flags: W
HStem: -55 172<1331.52 1493.17> -10 21G<409 700.364> 548 172<1414.92 1571.93> 716 172<546.521 708.166> 1319 172<629.924 786.929>
VStem: 340 193<899.159 1202.21> 801 193<1004.08 1307.73> 1125 193<128.159 431.212> 1586 193<233.076 536.725>
DStem2: 409 -10 686 -10 0.583335 0.812232<161.584 1847.99>
LayerCount: 2
Fore
SplineSet
1369 -55 m 3xaf80
 1203 -55 1125 47 1125 205 c 3
 1125 495 1298 720 1534 720 c 3
 1701 720 1779 618 1779 460 c 3
 1779 170 1605 -55 1369 -55 c 3xaf80
1586 431 m 3
 1586 512 1552 548 1497 548 c 3
 1406 548 1318 403 1318 233 c 3
 1318 152 1351 117 1406 117 c 3
 1497 117 1586 259 1586 431 c 3
584 716 m 3x1f80
 418 716 340 818 340 976 c 3
 340 1266 513 1491 749 1491 c 3
 916 1491 994 1389 994 1231 c 3
 994 941 820 716 584 716 c 3x1f80
801 1202 m 3
 801 1283 767 1319 712 1319 c 3
 621 1319 533 1174 533 1004 c 3
 533 923 566 888 621 888 c 3
 712 888 801 1030 801 1202 c 3
1487 1491 m 1
 1764 1491 l 1
 686 -10 l 1
 409 -10 l 1x4f80
 1487 1491 l 1
EndSplineSet
EndChar

StartChar: ampersand
Encoding: 38 38 10
Width: 1366
Flags: W
HStem: -13 220<464.059 774.729> 1262 220<794.093 974.709>
VStem: 166 246<256.106 497.429> 508 246<1001.51 1221.59> 985 247<1065.65 1250.04>
LayerCount: 2
Fore
SplineSet
893 812 m 1
 1037 522 l 1
 1079 579 1117 648 1150 727 c 1
 1359 649 l 1
 1307 540 1244 442 1171 357 c 1
 1220 270 1279 195 1352 132 c 1
 1159 -67 l 1
 1097 -19 1037 50 978 140 c 1
 950 115 791 -13 573 -13 c 3
 264 -13 166 166 166 324 c 3
 166 574 340 738 586 843 c 1
 539 917 508 986 508 1071 c 3
 508 1316 722 1482 952 1482 c 3
 1113 1482 1232 1385 1232 1235 c 3
 1232 1025 1072 899 893 812 c 1
895 1262 m 3
 830 1262 754 1211 754 1126 c 3
 754 1084 775 1031 816 974 c 1
 900 1013 985 1078 985 1175 c 3
 985 1216 958 1262 895 1262 c 3
412 378 m 3
 412 313 443 207 584 207 c 3
 683 207 802 239 869 326 c 1
 671 662 l 1
 519 582 412 497 412 378 c 3
EndSplineSet
EndChar

StartChar: quotesingle
Encoding: 39 39 11
Width: 391
Flags: W
HStem: 947 519<373 477>
VStem: 308 328
LayerCount: 2
Fore
SplineSet
308 947 m 1
 321 1221 l 1
 373 1466 l 1
 636 1466 l 1
 584 1221 l 1
 477 947 l 1
 308 947 l 1
EndSplineSet
EndChar

StartChar: parenleft
Encoding: 40 40 12
Width: 682
Flags: W
VStem: 164 271<-95.2881 570.516>
LayerCount: 2
Fore
SplineSet
973 1491 m 1
 717 1171 435 764 435 200 c 3
 435 -11 478 -221 564 -431 c 1
 344 -431 l 1
 244 -258 164 -20 164 249 c 3
 164 764 427 1151 753 1491 c 1
 973 1491 l 1
EndSplineSet
EndChar

StartChar: parenright
Encoding: 41 41 13
Width: 682
Flags: W
VStem: 480 267<518.543 1152.17>
LayerCount: 2
Fore
SplineSet
343 1491 m 1
 563 1491 l 1
 676 1280 747 1075 747 832 c 3
 747 308 438 -147 154 -431 c 1
 -66 -431 l 1
 270 -28 480 408 480 889 c 3
 480 1126 416 1297 343 1491 c 1
EndSplineSet
EndChar

StartChar: asterisk
Encoding: 42 42 14
Width: 797
Flags: W
HStem: 1176 181<819.132 965>
VStem: 315 650
LayerCount: 2
Fore
SplineSet
795 1491 m 1
 779 1416 767 1361 747 1284 c 1
 813 1316 893 1335 965 1357 c 1
 969 1176 l 1
 900 1161 826 1149 754 1136 c 1
 773 1115 809 1059 864 968 c 1
 690 862 l 1
 655 915 632 981 613 1041 c 1
 568 981 517 915 460 862 c 1
 332 968 l 1
 425 1059 485 1115 512 1136 c 1
 446 1149 378 1161 315 1176 c 1
 395 1357 l 1
 457 1335 531 1316 583 1284 c 1
 595 1361 607 1416 623 1491 c 1
 795 1491 l 1
EndSplineSet
EndChar

StartChar: plus
Encoding: 43 43 15
Width: 1196
Flags: W
HStem: 614 220<291 609 895 1213>
DStem2: 528 237 768 237 0.207912 0.978148<49.8988 385.603 660.258 990.655>
LayerCount: 2
Fore
SplineSet
528 237 m 1
 609 614 l 1
 245 614 l 1
 291 834 l 1
 655 834 l 1
 734 1206 l 1
 974 1206 l 1
 895 834 l 1
 1259 834 l 1
 1213 614 l 1
 849 614 l 1
 768 237 l 1
 528 237 l 1
EndSplineSet
EndChar

StartChar: comma
Encoding: 44 44 16
Width: 569
Flags: W
HStem: -300 531
VStem: 67 401
LayerCount: 2
Fore
SplineSet
117 -22 m 1
 171 231 l 1
 468 231 l 1
 414 -22 l 2
 376 -201 299 -258 204 -300 c 1
 67 -207 l 1
 185 -159 228 -65 239 -22 c 1
 117 -22 l 1
EndSplineSet
EndChar

StartChar: hyphen
Encoding: 45 45 17
Width: 682
Flags: W
HStem: 411 220<199 705>
VStem: 152 600
LayerCount: 2
Fore
SplineSet
152 411 m 1
 199 631 l 1
 752 631 l 1
 705 411 l 1
 152 411 l 1
EndSplineSet
EndChar

StartChar: period
Encoding: 46 46 18
Width: 569
Flags: W
HStem: 0 220<201 430>
VStem: 154 323
LayerCount: 2
Fore
SplineSet
154 0 m 1
 201 220 l 1
 477 220 l 1
 430 0 l 1
 154 0 l 1
EndSplineSet
EndChar

StartChar: slash
Encoding: 47 47 19
Width: 595
Flags: W
HStem: -10 21G<-112 140.162> 1450 20G<775.838 1028>
DStem2: -112 -10 128 -10 0.519581 0.854421<124.699 1732.17>
LayerCount: 2
Fore
SplineSet
-112 -10 m 1
 788 1470 l 1
 1028 1470 l 1
 128 -10 l 1
 -112 -10 l 1
EndSplineSet
EndChar

StartChar: zero
Encoding: 48 48 20
Width: 1139
Flags: W
HStem: -13 220<497.254 724.644> 1262 220<707.604 935.806>
VStem: 202 241<257.93 765.297> 994 241<699.265 1200.13>
LayerCount: 2
Fore
SplineSet
557 -13 m 3
 306 -13 202 137 202 406 c 3
 202 708 337 1482 875 1482 c 3
 1126 1482 1235 1327 1235 1058 c 3
 1235 756 1095 -13 557 -13 c 3
828 1262 m 3
 528 1262 443 626 443 436 c 3
 443 278 496 207 604 207 c 3
 904 207 994 836 994 1026 c 3
 994 1184 936 1262 828 1262 c 3
EndSplineSet
EndChar

StartChar: one
Encoding: 49 49 21
Width: 1139
Flags: W
HStem: 0 21G<523 767.253> 1452 20G<789 1076>
VStem: 402 674
DStem2: 523 0 763 0 0.207912 0.978148<49.8988 1068.32 1362.65 1504.91>
LayerCount: 2
Fore
SplineSet
458 1104 m 1
 641 1183 742 1274 836 1472 c 1
 1076 1472 l 1
 763 0 l 1
 523 0 l 1
 745 1045 l 1
 596 908 465 858 402 844 c 1
 458 1104 l 1
EndSplineSet
EndChar

StartChar: two
Encoding: 50 50 22
Width: 1139
Flags: W
HStem: 0 220<429 1031> 1262 220<681.579 965.807>
VStem: 1024 243<975.645 1208.99>
LayerCount: 2
Fore
SplineSet
887 1482 m 3
 1128 1482 1267 1356 1267 1167 c 3
 1267 733 661 486 429 220 c 1
 1078 220 l 1
 1031 0 l 1
 62 0 l 1
 117 186 261 355 376 450 c 0
 624 656 1024 861 1024 1111 c 3
 1024 1203 932 1262 836 1262 c 3
 691 1262 593 1175 557 1039 c 1
 317 1039 l 1
 374 1307 599 1482 887 1482 c 3
EndSplineSet
EndChar

StartChar: three
Encoding: 51 51 23
Width: 1139
Flags: W
HStem: -13 220<483.928 763.435> 665 220<629 833.961> 1070 21G<331 589.5> 1262 220<676.874 928.615>
VStem: 167 249<273.633 427> 906 250<351.949 598.104> 974 246<991.536 1216.24>
LayerCount: 2
Fore
SplineSet
549 -13 m 3xfc
 328 -13 167 124 167 333 c 3
 167 363 170 394 177 427 c 1
 417 427 l 1
 416 419 416 412 416 405 c 3
 416 285 499 207 597 207 c 3
 766 207 906 330 906 488 c 3xfc
 906 595 812 665 678 665 c 3
 645 665 612 660 579 651 c 1
 629 885 l 1
 847 888 974 968 974 1127 c 3
 974 1202 894 1262 817 1262 c 3
 706 1262 608 1191 571 1070 c 1
 331 1070 l 1
 381 1305 611 1482 860 1482 c 3
 1073 1482 1220 1364 1220 1181 c 3xfa
 1220 986 1111 840 981 794 c 1
 1102 774 1156 698 1156 576 c 3
 1156 229 866 -13 549 -13 c 3xfc
EndSplineSet
EndChar

StartChar: four
Encoding: 52 52 24
Width: 1139
Flags: W
HStem: 0 21G<652 896.281> 327 220<437 722 1008 1140> 1452 20G<947.854 1205>
DStem2: 172 547 437 547 0.650859 0.759199<172.478 863.834> 652 0 892 0 0.207912 0.978148<49.8988 334.408 609.063 1101.08>
LayerCount: 2
Fore
SplineSet
652 0 m 1
 722 327 l 1
 126 327 l 1
 172 547 l 1
 965 1472 l 1
 1205 1472 l 1
 1008 547 l 1
 1186 547 l 1
 1140 327 l 1
 962 327 l 1
 892 0 l 1
 652 0 l 1
768 547 m 1
 881 1077 l 1
 437 547 l 1
 768 547 l 1
EndSplineSet
EndChar

StartChar: five
Encoding: 53 53 25
Width: 1139
Flags: W
HStem: -13 220<460.786 753.998> 774 220<631.922 868.819> 1230 220<721 1249>
VStem: 169 241<255.455 412> 932 246<395.417 709.413>
DStem2: 267 705 603 937 0.373536 0.927616<66.6264 143.201 340.715 656.584>
LayerCount: 2
Fore
SplineSet
553 -13 m 3
 295 -13 169 125 169 343 c 3
 169 365 170 388 173 412 c 1
 413 412 l 1
 411 397 410 382 410 369 c 3
 410 233 523 207 600 207 c 3
 783 207 932 362 932 580 c 3
 932 707 856 774 718 774 c 3
 623 774 567 745 500 683 c 1
 267 705 l 1
 567 1450 l 1
 1296 1450 l 1
 1249 1230 l 1
 721 1230 l 1
 603 937 l 1
 684 975 734 994 802 994 c 3
 1047 994 1178 842 1178 631 c 3
 1178 256 889 -13 553 -13 c 3
EndSplineSet
EndChar

StartChar: six
Encoding: 54 54 26
Width: 1139
Flags: W
HStem: -13 220<502.554 764.474> 757 220<603.618 860.901> 1262 220<716.124 991.675>
VStem: 193 252<262.181 590.879> 917 244<373.621 697.69>
LayerCount: 2
Fore
SplineSet
918 1482 m 3
 1122 1482 1262 1366 1262 1185 c 3
 1262 1159 1259 1132 1253 1103 c 1
 1041 1104 l 1
 1031 1222 947 1262 868 1262 c 3
 690 1262 562 1112 499 858 c 1
 581 937 681 977 797 977 c 3
 1027 977 1161 815 1161 599 c 3
 1161 255 896 -13 583 -13 c 3
 286 -13 193 181 193 421 c 3
 193 665 323 1482 918 1482 c 3
734 757 m 3
 578 757 445 609 445 403 c 3
 445 290 502 207 623 207 c 3
 785 207 917 359 917 563 c 3
 917 677 857 757 734 757 c 3
EndSplineSet
EndChar

StartChar: seven
Encoding: 55 55 27
Width: 1139
Flags: W
HStem: 0 21G<262 516.5> 1230 220<405 1025>
VStem: 262 240<0 148.333>
LayerCount: 2
Fore
SplineSet
358 1230 m 1
 405 1450 l 1
 1354 1450 l 1
 1307 1230 l 1
 1195 1136 910 856 813 692 c 0
 600 328 531 138 502 0 c 1
 262 0 l 1
 314 243 435 502 620 776 c 0
 694 885 858 1069 1025 1230 c 1
 358 1230 l 1
EndSplineSet
EndChar

StartChar: eight
Encoding: 56 56 28
Width: 1139
Flags: W
HStem: -13 220<463.249 771.887> 666 220<640.516 860.753> 1262 220<704.486 948.037>
VStem: 163 246<264.068 538.698> 364 242<921.135 1163.16> 909 244<338.436 616.644> 982 246<981.426 1224.18>
LayerCount: 2
Fore
SplineSet
563 -13 m 3xe4
 344 -13 163 102 163 329 c 3xf4
 163 599 327 744 528 794 c 1
 409 842 364 920 364 1009 c 3
 364 1295 634 1482 881 1482 c 3
 1092 1482 1228 1359 1228 1170 c 3xea
 1228 982 1143 863 942 794 c 1
 1075 757 1153 679 1153 538 c 3
 1153 176 831 -13 563 -13 c 3xe4
754 886 m 0
 878 886 982 985 982 1123 c 3
 982 1215 917 1262 834 1262 c 3
 728 1262 606 1178 606 1026 c 3xea
 606 943 658 886 754 886 c 0
610 207 m 3
 785 207 909 327 909 503 c 3
 909 611 839 666 708 666 c 3
 543 666 409 566 409 378 c 3xf4
 409 276 477 207 610 207 c 3
EndSplineSet
EndChar

StartChar: nine
Encoding: 57 57 29
Width: 1139
Flags: W
HStem: -13 220<483.839 765.983> 495 220<608.235 881.903> 1262 220<708.239 968.358>
VStem: 198 248<244.734 369> 309 245<771.737 1093.8> 1023 255<880.489 1208.07>
LayerCount: 2
Fore
SplineSet
552 -13 m 3xec
 338 -13 198 104 198 287 c 3
 198 313 201 340 207 369 c 1
 447 369 l 1
 446 362 446 355 446 348 c 3xf4
 446 259 511 207 610 207 c 0
 817 207 891 358 948 579 c 1
 868 513 791 495 669 495 c 3
 446 495 309 646 309 861 c 3
 309 1223 592 1482 887 1482 c 3
 1184 1482 1278 1288 1278 1048 c 3
 1278 711 1105 -13 552 -13 c 3xec
736 715 m 3
 939 715 1023 914 1023 1071 c 3
 1023 1184 967 1262 847 1262 c 3
 681 1262 554 1103 554 907 c 3xec
 554 787 621 715 736 715 c 3
EndSplineSet
EndChar

StartChar: colon
Encoding: 58 58 30
Width: 569
Flags: W
HStem: 0 230<209 415> 832 230<386 592>
VStem: 160 481
DStem2: 160 0 415 0 0.207912 0.978148<53.0175 235.162 903.637 1085.78>
LayerCount: 2
Fore
SplineSet
337 832 m 1
 386 1062 l 1
 641 1062 l 1
 592 832 l 1
 337 832 l 1
160 0 m 1
 209 230 l 1
 464 230 l 1
 415 0 l 1
 160 0 l 1
EndSplineSet
EndChar

StartChar: semicolon
Encoding: 59 59 31
Width: 569
Flags: W
HStem: 832 230<383 589>
VStem: 100 538
DStem2: 93.8707 -297 348.871 -297 0.207912 0.978148<326.047 513.304 1207.27 1389.42>
LayerCount: 2
Fore
SplineSet
334 832 m 1
 383 1062 l 1
 638 1062 l 1
 589 832 l 1
 334 832 l 1
157 0 m 1
 201 205 l 1
 456 205 l 1
 412 0 l 2
 377 -163 309 -262 207 -297 c 1
 100 -213 l 1
 177 -182 229 -120 259 0 c 1
 157 0 l 1
EndSplineSet
EndChar

StartChar: less
Encoding: 60 60 32
Width: 1196
Flags: W
DStem2: 577 724 248 641 0.905028 -0.425353<0 660.152> 284 809 577 724 0.932434 0.36134<242.489 1006.23>
LayerCount: 2
Fore
SplineSet
248 641 m 1
 284 809 l 1
 1342 1219 l 1
 1293 990 l 1
 577 724 l 1
 1180 455 l 1
 1131 226 l 1
 248 641 l 1
EndSplineSet
EndChar

StartChar: equal
Encoding: 61 61 33
Width: 1196
Flags: W
HStem: 416 220<249 1170> 811 220<333 1254>
LayerCount: 2
Fore
SplineSet
1254 811 m 1
 286 811 l 1
 333 1031 l 1
 1301 1031 l 1
 1254 811 l 1
1170 416 m 1
 202 416 l 1
 249 636 l 1
 1217 636 l 1
 1170 416 l 1
EndSplineSet
EndChar

StartChar: greater
Encoding: 62 62 34
Width: 1196
Flags: W
DStem2: 209 455 160 226 0.931061 0.364863<0 745.236> 371 1219 322 990 0.907177 -0.420749<51.9 691.796>
LayerCount: 2
Fore
SplineSet
1219 641 m 1
 160 226 l 1
 209 455 l 1
 904 724 l 1
 322 990 l 1
 371 1219 l 1
 1255 809 l 1
 1219 641 l 1
EndSplineSet
EndChar

StartChar: question
Encoding: 63 63 35
Width: 1139
Flags: W
HStem: 0 235<471 695> 1284 220<710.83 979.467>
VStem: 1032 244<992.163 1231.94>
DStem2: 471 235 745 235 0.150617 0.988592<-198.581 0 166.585 290.55>
LayerCount: 2
Fore
SplineSet
885 1504 m 3
 1121 1504 1276 1379 1276 1177 c 3
 1276 1059 1250 952 1061 782 c 0
 942 676 797 580 750 361 c 1
 510 361 l 1
 564 615 686 714 801 803 c 0
 999 957 1032 1055 1032 1131 c 3
 1032 1251 908 1284 841 1284 c 3
 714 1284 570 1133 552 1046 c 1
 312 1046 l 1
 366 1300 613 1504 885 1504 c 3
421 0 m 1
 471 235 l 1
 745 235 l 1
 695 0 l 1
 421 0 l 1
EndSplineSet
EndChar

StartChar: at
Encoding: 64 64 36
Width: 2079
Flags: W
HStem: -428 200<763.213 1387.51> -13 200<763.312 1060.1 1315.54 1559.1> 895 200<1056.89 1322.04> 1042 20G<1525.65 1749> 1282 200<1111.92 1606.06>
VStem: 185 229<78.9305 557.818> 583 228<227.443 561.062> 1356 62<236 739> 1900 227<626.44 1017.62>
LayerCount: 2
Fore
SplineSet
1351 -13 m 3xdf80
 1213 -13 1186 45 1186 101 c 3
 1186 108 1186 114 1187 121 c 1
 1096 28 984 -13 851 -13 c 3
 674 -13 583 123 583 312 c 3
 583 731 943 1095 1244 1095 c 3xef80
 1431 1095 1475 988 1477 938 c 1
 1535 1062 l 1
 1749 1062 l 1
 1461 379 l 2
 1446 342 1418 289 1418 236 c 0
 1418 207 1430 187 1462 187 c 3
 1663 187 1900 540 1900 829 c 3
 1900 1113 1650 1282 1372 1282 c 3
 769 1282 414 743 414 306 c 3
 414 39 558 -228 1072 -228 c 3
 1397 -228 1543 -142 1752 19 c 1
 2009 19 l 1
 1819 -253 1454 -428 1032 -428 c 3
 504 -428 185 -201 185 237 c 3
 185 952 757 1482 1417 1482 c 3
 1843 1482 2127 1253 2127 884 c 3
 2127 429 1722 -13 1351 -13 c 3xdf80
811 369 m 3
 811 241 877 187 946 187 c 3
 1150 187 1356 474 1356 739 c 3
 1356 868 1277 895 1203 895 c 3
 981 895 811 610 811 369 c 3
EndSplineSet
EndChar

StartChar: A
Encoding: 65 65 37
Width: 1366
Flags: W
HStem: 0 21G<1 267.24 1105.26 1363> 433 220<655 987> 1430 20G<875.766 1095.74>
DStem2: 1 0 255 0 0.521831 0.853049<132.545 640.2 898.318 1386.58> 1092 1450 909 1070 0.183715 -0.982979<339.912 764.145 987.932 1428.44>
LayerCount: 2
Fore
SplineSet
655 653 m 1
 987 653 l 1
 909 1070 l 1
 655 653 l 1
1092 1450 m 1
 1363 0 l 1
 1109 0 l 1
 1028 433 l 1
 520 433 l 1
 255 0 l 1
 1 0 l 1
 888 1450 l 1
 1092 1450 l 1
EndSplineSet
EndChar

StartChar: B
Encoding: 66 66 38
Width: 1366
Flags: W
HStem: 0 220<451 988.148> 626 220<584 1063.85> 1230 220<665 1151.3>
VStem: 1114 245<326.916 582.978> 1177 248<969.662 1199.98>
DStem2: 164 0 404.238 0 0.207912 0.978148<274.863 689.871 914.836 1307.29>
LayerCount: 2
Fore
SplineSet
1185 772 m 1xe8
 1301 736 1359 655 1359 531 c 3xf0
 1359 251 1167 0 709 0 c 2
 164 0 l 1
 472 1450 l 1
 1008 1450 l 2
 1263 1450 1425 1357 1425 1165 c 3
 1425 909 1231 788 1185 772 c 1xe8
584 846 m 1
 841 846 l 2
 1063 846 1177 922 1177 1116 c 3xe8
 1177 1216 1093 1230 898 1230 c 2
 665 1230 l 1
 584 846 l 1
451 220 m 1
 756 220 l 2
 951 220 1114 258 1114 488 c 3xf0
 1114 604 1019 626 816 626 c 2
 537 626 l 1
 451 220 l 1
EndSplineSet
EndChar

StartChar: C
Encoding: 67 67 39
Width: 1479
Flags: W
HStem: -13 220<658.099 1027.27> 1262 220<851.15 1244.72>
VStem: 234 251<394.212 817.843> 1356 240<1050 1162.15>
LayerCount: 2
Fore
SplineSet
832 207 m 0
 1011 207 1209 328 1260 480 c 1
 1500 480 l 1
 1370 201 1141 -13 788 -13 c 3
 428 -13 234 185 234 518 c 3
 234 1084 637 1482 1109 1482 c 3
 1415 1482 1580 1304 1596 1050 c 1
 1356 1050 l 1
 1342 1182 1233 1262 1058 1262 c 3
 745 1262 485 983 485 599 c 3
 485 367 615 207 832 207 c 0
EndSplineSet
EndChar

StartChar: D
Encoding: 68 68 40
Width: 1479
Flags: W
HStem: 0 220<455 935.28> 1230 220<669 1145.97>
VStem: 1313 252<650.187 1073.39>
DStem2: 168 0 408.238 0 0.207912 0.978148<274.863 1307.29>
LayerCount: 2
Fore
SplineSet
697 0 m 2
 168 0 l 1
 476 1450 l 1
 981 1450 l 2
 1424 1450 1565 1251 1565 976 c 3
 1565 515 1312 0 697 0 c 2
722 220 m 6
 1144 220 1313 607 1313 886 c 3
 1313 1108 1180 1230 931 1230 c 2
 669 1230 l 1
 455 220 l 1
 722 220 l 6
EndSplineSet
EndChar

StartChar: E
Encoding: 69 69 41
Width: 1320
Flags: W
HStem: 0 220<454 1227> 626 220<587 1159> 1230 220<668 1488>
DStem2: 167 0 407.238 0 0.207912 0.978148<274.863 689.871 914.836 1307.29>
LayerCount: 2
Fore
SplineSet
167 0 m 1
 475 1450 l 1
 1535 1450 l 1
 1488 1230 l 1
 668 1230 l 1
 587 846 l 1
 1206 846 l 1
 1159 626 l 1
 540 626 l 1
 454 220 l 1
 1274 220 l 1
 1227 0 l 1
 167 0 l 1
EndSplineSet
EndChar

StartChar: F
Encoding: 70 70 42
Width: 1251
Flags: W
HStem: 0 21G<167 411.249> 626 220<587 1141> 1230 220<668 1419>
DStem2: 167 0 407 0 0.207912 0.978148<49.8988 689.871 914.836 1307.29>
LayerCount: 2
Fore
SplineSet
167 0 m 1
 475 1450 l 1
 1466 1450 l 1
 1419 1230 l 1
 668 1230 l 1
 587 846 l 1
 1188 846 l 1
 1141 626 l 1
 540 626 l 1
 407 0 l 1
 167 0 l 1
EndSplineSet
EndChar

StartChar: G
Encoding: 71 71 43
Width: 1479
Flags: W
HStem: -13 220<655.475 1067.75> 464 220<1050 1263> 1262 220<868.365 1220.62>
VStem: 235 250<392.302 826.281>
LayerCount: 2
Fore
SplineSet
1549 684 m 1
 1474 237 1229 -13 788 -13 c 3
 425 -13 235 198 235 526 c 3
 235 1082 632 1482 1109 1482 c 3
 1428 1482 1577 1300 1596 1050 c 1
 1338 1050 l 1
 1316 1167 1216 1262 1058 1262 c 3
 783 1262 485 981 485 596 c 3
 485 371 605 207 832 207 c 3
 1035 207 1218 287 1263 464 c 1
 1004 464 l 1
 1050 684 l 1
 1549 684 l 1
EndSplineSet
EndChar

StartChar: H
Encoding: 72 72 44
Width: 1479
Flags: W
HStem: 0 21G<164 408.247 1074 1318.25> 631 220<585 1208> 1430 20G<467.752 712 1377.76 1622>
DStem2: 164 0 404 0 0.207912 0.978148<49.8988 694.97 919.934 1482.35> 1074 0 1314 0 0.207912 0.978148<49.8988 645.071 870.036 1482.35>
LayerCount: 2
Fore
SplineSet
164 0 m 1
 472 1450 l 1
 712 1450 l 1
 585 851 l 1
 1255 851 l 1
 1382 1450 l 1
 1622 1450 l 1
 1314 0 l 1
 1074 0 l 1
 1208 631 l 1
 538 631 l 1
 404 0 l 1
 164 0 l 1
EndSplineSet
EndChar

StartChar: I
Encoding: 73 73 45
Width: 650
Flags: W
HStem: 0 220<72 252 492 625> 1230 220<333 466 706 886>
DStem2: 205.238 0 445.238 0 0.207912 0.978148<274.814 1257.34>
LayerCount: 2
Fore
SplineSet
672 220 m 1
 625 0 l 1
 25 0 l 1
 72 220 l 1
 252 220 l 1
 466 1230 l 1
 286 1230 l 1
 333 1450 l 1
 933 1450 l 1
 886 1230 l 1
 706 1230 l 1
 492 220 l 1
 672 220 l 1
EndSplineSet
EndChar

StartChar: J
Encoding: 74 74 46
Width: 1024
Flags: W
HStem: -13 220<423.798 619.532> 1230 220<716 886>
VStem: 141 252<237.266 452.754>
DStem2: 622.123 -13 862.311 -13 0.207912 0.978148<278.077 1270.7>
LayerCount: 2
Fore
SplineSet
512 207 m 3
 627 207 695 328 725 471 c 2
 886 1230 l 1
 669 1230 l 1
 716 1450 l 1
 1173 1450 l 1
 962 456 l 2
 890 116 703 -13 460 -13 c 3
 265 -13 141 70 141 286 c 3
 141 335 147 391 161 455 c 1
 401 455 l 1
 396 423 393 395 393 370 c 3
 393 244 456 207 512 207 c 3
EndSplineSet
EndChar

StartChar: K
Encoding: 75 75 47
Width: 1366
Flags: W
HStem: 0 21G<150 394.241 1038.47 1346> 1430 20G<453.752 698 1305.05 1624>
DStem2: 149.787 -1 389.787 -1 0.207912 0.978148<50.9211 576.351 909.781 1483.37>
LayerCount: 2
Fore
SplineSet
150 0 m 1
 458 1450 l 1
 698 1450 l 1
 569 840 l 1
 1330 1450 l 1
 1624 1450 l 1
 830 806 l 1
 1346 0 l 1
 1053 -1 l 1
 609 610 l 1
 499 514 l 1
 390 0 l 1
 150 0 l 1
EndSplineSet
EndChar

StartChar: L
Encoding: 76 76 48
Width: 1139
Flags: W
HStem: 0 220<437 1060> 1430 20G<453.752 698>
DStem2: 150 0 390.238 0 0.207912 0.978148<274.863 1482.35>
LayerCount: 2
Fore
SplineSet
150 0 m 1
 458 1450 l 1
 698 1450 l 1
 437 220 l 1
 1107 220 l 1
 1060 0 l 1
 150 0 l 1
EndSplineSet
EndChar

StartChar: M
Encoding: 77 77 49
Width: 1706
Flags: W
HStem: 0 21G<152 396.252 672.798 1037.71 1310 1554.25> 1430 20G<455.752 697.205 1612.3 1858>
DStem2: 152 0 392 0 0.207912 0.978148<49.8988 828.929> 894 202 554 762 0.158237 -0.987401<-606.745 0> 894 202 1026 0 0.504903 0.863176<0 775.213> 1310 0 1550 0 0.207912 0.978148<49.8988 779.03>
LayerCount: 2
Fore
SplineSet
152 0 m 1
 460 1450 l 1
 694 1450 l 1
 894 202 l 1
 1624 1450 l 1
 1858 1450 l 1
 1550 0 l 1
 1310 0 l 1
 1472 762 l 1
 1026 0 l 1
 676 0 l 1
 554 762 l 1
 392 0 l 1
 152 0 l 1
EndSplineSet
EndChar

StartChar: N
Encoding: 78 78 50
Width: 1479
Flags: W
HStem: 0 21G<156 400.246 1061.4 1315.25> 1430 20G<459.752 713.54 1374.75 1619>
DStem2: 156 0 396 0 0.207912 0.978148<49.8988 1046.63> 704 1450 603 975 0.430542 -0.902571<385.236 1084.68> 1070.89 0 1311 0 0.207912 0.978148<481.522 1482.37>
LayerCount: 2
Fore
SplineSet
156 0 m 1
 464 1450 l 1
 704 1450 l 1
 1171 471 l 1
 1379 1450 l 1
 1619 1450 l 1
 1311 0 l 1
 1071 0 l 1
 603 975 l 1
 396 0 l 1
 156 0 l 1
EndSplineSet
EndChar

StartChar: O
Encoding: 79 79 51
Width: 1593
Flags: W
HStem: -13 220<638.004 1062.18> 1262 220<856.052 1271.32>
VStem: 235 242<365.332 831.313> 1431 244<640.192 1101.19>
LayerCount: 2
Fore
SplineSet
797 -13 m 3
 439 -13 235 200 235 524 c 3
 235 1099 642 1482 1116 1482 c 3
 1476 1482 1675 1275 1675 943 c 3
 1675 382 1283 -13 797 -13 c 3
1071 1262 m 3
 673 1262 477 923 477 556 c 3
 477 337 600 207 844 207 c 3
 1255 207 1431 559 1431 903 c 3
 1431 1125 1314 1262 1071 1262 c 3
EndSplineSet
EndChar

StartChar: P
Encoding: 80 80 52
Width: 1366
Flags: W
HStem: 0 21G<158 402.241> 580 220<568 1118.07> 1230 220<659 1186.16>
VStem: 1260 249<923.604 1171.5>
DStem2: 158 0 398 0 0.207912 0.978148<49.8988 642.798 867.762 1307.29>
LayerCount: 2
Fore
SplineSet
851 580 m 2
 521 580 l 1
 398 0 l 1
 158 0 l 1
 466 1450 l 1
 1019 1450 l 2
 1383 1450 1509 1331 1509 1144 c 3
 1509 808 1277 580 851 580 c 2
1260 1071 m 3
 1260 1196 1137 1230 948 1230 c 2
 659 1230 l 1
 568 800 l 1
 861 800 l 2
 1142 800 1260 898 1260 1071 c 3
EndSplineSet
EndChar

StartChar: Q
Encoding: 81 81 53
Width: 1659
Flags: W
HStem: -13 220<612.041 1056.82 1370.96 1575.71> 341 220<852.259 1084.4> 1262 220<849.523 1274.46>
VStem: 236 244<398.561 831.231> 1433 242<655.959 1102.97>
LayerCount: 2
Fore
SplineSet
1013 561 m 3
 1177 561 1244 455 1259 435 c 1
 1345 484 1433 721 1433 910 c 3
 1433 1133 1310 1262 1070 1262 c 3
 678 1262 480 930 480 576 c 3
 480 418 551 337 629 323 c 1
 698 467 866 561 1013 561 c 3
1116 1482 m 3
 1477 1482 1675 1271 1675 942 c 3
 1675 613 1530 360 1370 247 c 1
 1383 228 1403 207 1436 207 c 3
 1475 207 1536 224 1588 260 c 1
 1678 90 l 1
 1589 21 1495 -13 1396 -13 c 3
 1288 -13 1214 27 1175 88 c 1
 1042 11 931 -13 797 -13 c 3
 439 -13 236 203 236 528 c 3
 236 1104 641 1482 1116 1482 c 3
1107 269 m 1
 1077 316 1037 341 986 341 c 3
 928 341 837 315 784 217 c 1
 807 210 834 207 865 207 c 3
 976 207 1066 242 1107 269 c 1
EndSplineSet
EndChar

StartChar: R
Encoding: 82 82 54
Width: 1400
Flags: W
HStem: 0 21G<158 402.241 1062.14 1387> 580 220<568 786> 1230 220<659 1184.67>
VStem: 1260 248<928.816 1167.65>
DStem2: 158 0 398 0 0.207912 0.978148<49.8988 642.798 867.762 1307.29>
LayerCount: 2
Fore
SplineSet
1051 596 m 1
 1387 0 l 1
 1072 0 l 1
 786 580 l 1
 521 580 l 1
 398 0 l 1
 158 0 l 1
 466 1450 l 1
 1019 1450 l 2
 1379 1450 1508 1330 1508 1141 c 3
 1508 747 1169 604 1051 596 c 1
1260 1071 m 3
 1260 1192 1135 1230 948 1230 c 2
 659 1230 l 1
 568 800 l 1
 861 800 l 2
 1132 800 1260 900 1260 1071 c 3
EndSplineSet
EndChar

StartChar: S
Encoding: 83 83 55
Width: 1366
Flags: W
HStem: -13 220<551.883 964.318> 1262 220<729.775 1112.62>
VStem: 187 250<312.221 502> 365 248<967.809 1160.04> 1112 249<331.141 541.035> 1193 240<1019 1178.86>
LayerCount: 2
Fore
SplineSet
714 -13 m 3xd8
 288 -13 187 193 187 384 c 3
 187 425 192 465 199 502 c 1
 439 502 l 1
 437 487 437 473 437 459 c 3
 437 234 652 207 752 207 c 3
 964 207 1112 308 1112 457 c 3xe8
 1112 549 1022 582 740 667 c 0
 578 716 365 764 365 981 c 3
 365 1303 674 1482 979 1482 c 3
 1290 1482 1433 1326 1433 1064 c 0
 1433 1049 1433 1034 1432 1019 c 1
 1192 1019 l 1
 1192 1026 1193 1034 1193 1041 c 0xd4
 1193 1182 1108 1262 940 1262 c 0
 789 1262 613 1206 613 1042 c 3
 613 956 706 926 1046 816 c 0
 1218 761 1361 705 1361 524 c 3
 1361 183 1030 -13 714 -13 c 3xd8
EndSplineSet
EndChar

StartChar: T
Encoding: 84 84 56
Width: 1251
Flags: W
HStem: 0 21G<508 752.244> 1230 220<356 769 1009 1471>
DStem2: 508 0 748 0 0.207912 0.978148<49.8988 1257.39>
LayerCount: 2
Fore
SplineSet
508 0 m 1
 769 1230 l 1
 309 1230 l 1
 356 1450 l 1
 1518 1450 l 1
 1471 1230 l 1
 1009 1230 l 1
 748 0 l 1
 508 0 l 1
EndSplineSet
EndChar

StartChar: U
Encoding: 85 85 57
Width: 1479
Flags: W
HStem: -13 220<607.837 982.128> 1430 20G<464.756 709 1377.76 1622>
VStem: 259 249<295.882 660.906>
DStem2: 158.355 -13 398.355 -13 0.207912 0.978148<527.14 1495.62> 1071.35 -13 1311.35 -13 0.207912 0.978148<374.097 1495.62>
LayerCount: 2
Fore
SplineSet
781 207 m 3
 1006 207 1145 332 1194 564 c 2
 1382 1450 l 1
 1622 1450 l 1
 1434 564 l 2
 1352 179 1120 -13 738 -13 c 3
 373 -13 259 155 259 376 c 3
 259 436 267 499 281 564 c 2
 469 1450 l 1
 709 1450 l 1
 521 564 l 2
 512 522 508 484 508 450 c 3
 508 285 608 207 781 207 c 3
EndSplineSet
EndChar

StartChar: V
Encoding: 86 86 58
Width: 1366
Flags: W
HStem: 0 21G<573.414 788.166> 1430 20G<317 654.554 1319.68 1658>
LayerCount: 2
Fore
SplineSet
577 0 m 1
 317 1450 l 1
 652 1450 l 1
 777 471 l 1
 1331 1450 l 1
 1658 1450 l 1
 776 0 l 1
 577 0 l 1
EndSplineSet
EndChar

StartChar: W
Encoding: 87 87 59
Width: 1933
Flags: W
HStem: 0 21G<365.545 629.111 1296.48 1574.81> 1430 20G<333 587.773 1119.11 1402.56 1925.08 2205>
VStem: 333 254<1079.26 1450> 366 257<519 629.915>
DStem2: 623 519 618 0 0.485643 0.874157<0 686.699> 1400 1450 1173 999 0.125135 -0.99214<419.049 938.573> 1519 519 1566 0 0.403267 0.915082<0 1019.3>
LayerCount: 2
Fore
SplineSet
366 0 m 1xd0
 333 1450 l 1
 587 1450 l 1xe0
 623 519 l 1
 1130 1450 l 1
 1400 1450 l 1
 1519 519 l 1
 1934 1450 l 1
 2205 1450 l 1
 1566 0 l 1
 1299 0 l 1
 1173 999 l 1
 618 0 l 1
 366 0 l 1xd0
EndSplineSet
EndChar

StartChar: X
Encoding: 88 88 60
Width: 1366
Flags: W
HStem: 0 21G<9 336.574 1033.96 1353> 1430 20G<384 702.117 1293.3 1621>
DStem2: 9 0 319 0 0.649631 0.760249<201.386 925.485> 694 1450 384 1450 0.363741 -0.9315<0 515.823> 1029 756 797 544 0.393919 -0.919145<103.469 700.389> 888 972 1029 756 0.648984 0.760802<0 638.184>
LayerCount: 2
Fore
SplineSet
9 0 m 1
 655 756 l 1
 384 1450 l 1
 694 1450 l 1
 888 972 l 1
 1311 1450 l 1
 1621 1450 l 1
 1029 756 l 1
 1353 0 l 1
 1043 0 l 1
 797 544 l 1
 319 0 l 1
 9 0 l 1
EndSplineSet
EndChar

StartChar: Y
Encoding: 89 89 61
Width: 1366
Flags: W
HStem: 0 21G<548 792.251> 1431 20G<314 620.688 1342.16 1658>
DStem2: 612 1451 314 1451 0.403477 -0.91499<0 614.906> 548 0 788 0 0.207912 0.978148<49.8988 634.874> 857 887 920 621 0.664476 0.74731<0 755.714>
LayerCount: 2
Fore
SplineSet
548 0 m 1
 680 621 l 1
 314 1451 l 1
 612 1451 l 1
 857 887 l 1
 1360 1451 l 1
 1658 1451 l 1
 920 621 l 1
 788 0 l 1
 548 0 l 1
EndSplineSet
EndChar

StartChar: Z
Encoding: 90 90 62
Width: 1251
Flags: W
HStem: 0 220<422 1200> 1230 220<353 1146>
DStem2: 89 227 422 220 0.72136 0.69256<235.365 1457.12>
LayerCount: 2
Fore
SplineSet
41 0 m 1
 89 227 l 1
 1146 1230 l 1
 306 1230 l 1
 353 1450 l 1
 1521 1450 l 1
 1474 1230 l 1
 422 220 l 1
 1247 220 l 1
 1200 0 l 1
 41 0 l 1
EndSplineSet
EndChar

StartChar: bracketleft
Encoding: 91 91 63
Width: 569
Flags: W
HStem: -407 200<315 449> 1266 200<628 805>
DStem2: 52 -407 272.489 -407 0.207912 0.978148<250.31 1756.2>
LayerCount: 2
Fore
SplineSet
52 -407 m 1
 451 1466 l 1
 848 1466 l 1
 805 1266 l 1
 628 1266 l 1
 315 -207 l 1
 492 -207 l 1
 449 -407 l 1
 52 -407 l 1
EndSplineSet
EndChar

StartChar: backslash
Encoding: 92 92 64
Width: 569
Flags: W
VStem: 278 326
DStem2: 502 1491 278 1491 0.0677857 -0.9977<0 1504.31>
LayerCount: 2
Fore
SplineSet
381 -25 m 1
 278 1491 l 1
 502 1491 l 1
 604 -25 l 1
 381 -25 l 1
EndSplineSet
EndChar

StartChar: bracketright
Encoding: 93 93 65
Width: 569
Flags: W
HStem: -407 200<-11 166> 1266 200<345 479>
DStem2: 123.489 -407 343 -407 0.207912 0.978148<204.468 1710.36>
LayerCount: 2
Fore
SplineSet
343 -407 m 1
 -54 -407 l 1
 -11 -207 l 1
 166 -207 l 1
 479 1266 l 1
 302 1266 l 1
 345 1466 l 1
 742 1466 l 1
 343 -407 l 1
EndSplineSet
EndChar

StartChar: asciicircum
Encoding: 94 94 66
Width: 961
Flags: W
DStem2: 201 690 435 690 0.531803 0.846868<124.442 724.039>
LayerCount: 2
Fore
SplineSet
435 690 m 1
 201 690 l 1
 704 1491 l 1
 889 1491 l 1
 1054 690 l 1
 823 690 l 1
 736 1209 l 1
 435 690 l 1
EndSplineSet
EndChar

StartChar: underscore
Encoding: 95 95 67
Width: 1139
Flags: W
HStem: -427 200<-79 1071>
LayerCount: 2
Fore
SplineSet
-122 -427 m 1
 -79 -227 l 1
 1114 -227 l 1
 1071 -427 l 1
 -122 -427 l 1
EndSplineSet
EndChar

StartChar: grave
Encoding: 96 96 68
Width: 682
Flags: W
HStem: 1194 280<545 673>
VStem: 373 376
LayerCount: 2
Fore
SplineSet
749 1194 m 1
 545 1194 l 1
 373 1474 l 1
 673 1474 l 1
 749 1194 l 1
EndSplineSet
EndChar

StartChar: a
Encoding: 97 97 69
Width: 1139
Flags: W
HStem: 0 187<380.555 725.58> 895 200<584.596 898.045>
VStem: 128 229<216.354 380.875> 810 224<1.26419 138> 930 233<691.124 861.301>
LayerCount: 2
Fore
SplineSet
1090 445 m 2xe8
 1051 263 1034 171 1034 105 c 3
 1034 65 1040 35 1052 0 c 1
 814 0 l 1
 812 19 810 39 810 59 c 3xf0
 810 71 810 83 812 96 c 1
 686 6 576 -13 434 -13 c 3
 194 -13 128 110 128 223 c 3
 128 475 350 599 627 633 c 0
 738 646 837 666 924 695 c 1
 928 717 930 737 930 755 c 3
 930 853 874 895 748 895 c 3
 612 895 516 818 475 738 c 1
 268 768 l 1
 362 991 537 1095 817 1095 c 3
 1044 1095 1163 1043 1163 852 c 3
 1163 807 1156 755 1143 694 c 2
 1090 445 l 2xe8
357 286 m 3
 357 208 458 187 527 187 c 3
 715 187 830 262 869 444 c 2
 880 495 l 1
 649 416 357 473 357 286 c 3
EndSplineSet
EndChar

StartChar: b
Encoding: 98 98 70
Width: 1139
Flags: W
HStem: -13 200<511.405 760.539> 895 200<668.896 911.043> 1446 20G<441.744 666>
VStem: 967 223<445.4 835.479>
DStem2: 131.237 -13 338.237 -13 0.207912 0.978148<56.3281 142.235 1071.06 1512.12>
LayerCount: 2
Fore
SplineSet
593 -13 m 3
 442 -13 372 67 359 84 c 1
 341 0 l 1
 134 0 l 1
 446 1466 l 1
 666 1466 l 1
 564 990 l 1
 656 1054 751 1095 838 1095 c 3
 1072 1095 1190 940 1190 714 c 3
 1190 304 923 -13 593 -13 c 3
781 895 m 3
 603 895 454 658 454 405 c 3
 454 228 552 187 624 187 c 0
 812 187 967 409 967 684 c 3
 967 813 913 895 781 895 c 3
EndSplineSet
EndChar

StartChar: c
Encoding: 99 99 71
Width: 1024
Flags: W
HStem: -13 200<471.437 763.467> 895 200<610.723 886.555>
VStem: 176 224<258.419 638.799> 871 220<300.406 403> 937 224<696 843.057>
LayerCount: 2
Fore
SplineSet
601 187 m 3xe8
 741 187 837 256 871 403 c 1
 1091 403 l 1xf0
 1008 62 737 -13 560 -13 c 3
 317 -13 176 135 176 375 c 3
 176 781 451 1095 797 1095 c 3
 1023 1095 1161 970 1161 785 c 3
 1161 757 1158 727 1151 696 c 1
 933 696 l 1
 936 709 937 722 937 734 c 3
 937 831 860 895 761 895 c 3
 517 895 400 616 400 414 c 3
 400 278 463 187 601 187 c 3xe8
EndSplineSet
EndChar

StartChar: d
Encoding: 100 100 72
Width: 1139
Flags: W
HStem: -13 200<448.332 707.313> 895 200<588.007 833.913> 1446 20G<1076.71 1301>
VStem: 165 222<249.118 647.339>
DStem2: 779.237 -13 986.237 -13 0.207912 0.978148<56.3281 99.1972 1022.62 1509.42>
LayerCount: 2
Fore
SplineSet
751 1095 m 3
 838 1095 915 1054 979 990 c 1
 1081 1466 l 1
 1301 1466 l 1
 989 0 l 1
 782 0 l 1
 800 84 l 1
 779 67 675 -13 524 -13 c 3
 283 -13 165 140 165 371 c 3
 165 781 426 1095 751 1095 c 3
579 187 m 3
 704 187 898 333 898 659 c 3
 898 797 836 895 722 895 c 3
 606 895 387 784 387 407 c 3
 387 268 450 187 579 187 c 3
EndSplineSet
EndChar

StartChar: e
Encoding: 101 101 73
Width: 1139
Flags: W
HStem: -13 200<478.912 800.851> 475 200<450 974> 895 200<595.427 916.037>
VStem: 168 230<266.844 465.943> 974 215<676.056 841.117>
LayerCount: 2
Fore
SplineSet
1189 708 m 3
 1189 636 1173 542 1154 475 c 1
 402 475 l 1
 399 455 398 436 398 417 c 3
 398 284 470 187 622 187 c 3
 815 187 874 293 891 333 c 1
 1119 333 l 1
 1031 118 836 -13 578 -13 c 3
 305 -13 168 123 168 359 c 3
 168 791 450 1095 804 1095 c 3
 1055 1095 1189 948 1189 708 c 3
972 675 m 1
 974 689 974 702 974 715 c 3
 974 832 907 895 762 895 c 3
 605 895 484 795 450 675 c 1
 972 675 l 1
EndSplineSet
EndChar

StartChar: f
Encoding: 102 102 74
Width: 569
Flags: W
HStem: 0 21G<157 381.246> 862 200<245 340 603 719> 1315 200<684.288 919.909>
DStem2: 157 0 377 0 0.207912 0.978148<45.7406 881.211 1131.52 1360.01>
LayerCount: 2
Fore
SplineSet
804 1315 m 3
 718 1315 648 1271 618 1132 c 2
 603 1062 l 1
 762 1062 l 1
 719 862 l 1
 560 862 l 1
 377 0 l 1
 157 0 l 1
 340 862 l 1
 202 862 l 1
 245 1062 l 1
 383 1062 l 1
 407 1175 l 2
 465 1447 652 1515 784 1515 c 3
 851 1515 909 1506 956 1488 c 1
 914 1288 l 1
 858 1307 839 1315 804 1315 c 3
EndSplineSet
EndChar

StartChar: g
Encoding: 103 103 75
Width: 1139
Flags: W
HStem: -428 200<339.992 642.513> -13 200<437.958 718.517> 895 200<577.888 862.226> 1042 20G<1003.64 1228>
VStem: 67 230<-184.107 -74> 162 221<241.17 642.988>
LayerCount: 2
Fore
SplineSet
431 -428 m 3xd4
 138 -428 67 -307 67 -176 c 3
 67 -142 72 -108 79 -74 c 1
 299 -74 l 1
 298 -80 297 -86 297 -93 c 3xd8
 297 -148 339 -228 473 -228 c 3
 650 -228 756 -121 798 75 c 1
 724 25 625 -13 522 -13 c 3
 286 -13 162 144 162 374 c 3
 162 788 452 1095 759 1095 c 3xe4
 872 1095 966 1049 991 984 c 1
 1008 1062 l 1
 1228 1062 l 1
 1033 144 l 2
 932 -330 743 -428 431 -428 c 3xd4
728 895 m 3xe4
 484 895 383 623 383 387 c 3
 383 250 445 187 580 187 c 3
 825 187 915 476 915 690 c 3
 915 863 819 895 728 895 c 3xe4
EndSplineSet
EndChar

StartChar: h
Encoding: 104 104 76
Width: 1139
Flags: W
HStem: 0 21G<135 359.235 780 1004.25> 895 200<647.327 910.873> 1446 20G<442.744 667>
VStem: 935 222<623.459 865.741>
DStem2: 135 0 355 0 0.207912 0.978148<45.7406 847.73 1076.21 1498.83> 780 0 1000 0 0.207912 0.978148<45.7406 781.408>
LayerCount: 2
Fore
SplineSet
786 895 m 3
 625 895 511 735 481 595 c 2
 355 0 l 1
 135 0 l 1
 447 1466 l 1
 667 1466 l 1
 569 1008 l 1
 632 1066 728 1095 833 1095 c 3
 1085 1095 1157 948 1157 795 c 3
 1157 754 1151 712 1143 673 c 2
 1000 0 l 1
 780 0 l 1
 926 687 l 2
 932 718 935 744 935 767 c 3
 935 865 879 895 786 895 c 3
EndSplineSet
EndChar

StartChar: i
Encoding: 105 105 77
Width: 455
Flags: W
HStem: 0 21G<116 340.256> 1042 20G<337.744 562> 1220 246<433 591>
VStem: 116 528
DStem2: 116 0 336 0 0.207912 0.978148<45.7406 1085.78 1292.1 1499.87>
LayerCount: 2
Fore
SplineSet
380 1220 m 1
 433 1466 l 1
 644 1466 l 1
 591 1220 l 1
 380 1220 l 1
116 0 m 1
 342 1062 l 1
 562 1062 l 1
 336 0 l 1
 116 0 l 1
EndSplineSet
EndChar

StartChar: j
Encoding: 106 106 78
Width: 455
Flags: W
HStem: -428 200<-144.927 41.2971> 1042 20G<337.752 562> 1220 246<428 595>
DStem2: 25.4653 -428 245.354 -428 0.207912 0.978148<231.466 1523.25 1730.4 1936.3>
LayerCount: 2
Fore
SplineSet
375 1220 m 1
 428 1466 l 1
 648 1466 l 1
 595 1220 l 1
 375 1220 l 1
324 -58 m 2
 265 -336 139 -428 -26 -428 c 3
 -83 -428 -135 -423 -182 -412 c 1
 -141 -220 l 1
 -107 -225 -86 -228 -77 -228 c 3
 8 -228 76 -191 109 -35 c 2
 342 1062 l 1
 562 1062 l 1
 324 -58 l 2
EndSplineSet
EndChar

StartChar: k
Encoding: 107 107 79
Width: 1024
Flags: W
HStem: 0 21G<136 360.256 731.983 1016> 1042 20G<899.725 1201> 1446 20G<443.744 668>
DStem2: 136 0 356 0 0.207912 0.978148<45.7406 444.475 744.941 1498.83> 501 684 727 636 0.75001 0.661426<137.754 565.773>
LayerCount: 2
Fore
SplineSet
136 0 m 1
 448 1466 l 1
 668 1466 l 1
 501 684 l 1
 922 1062 l 1
 1201 1062 l 1
 727 636 l 1
 1016 0 l 1
 740 0 l 1
 546 484 l 1
 439 390 l 1
 356 0 l 1
 136 0 l 1
EndSplineSet
EndChar

StartChar: l
Encoding: 108 108 80
Width: 455
Flags: W
HStem: 0 21G<112 336.256> 1446 20G<419.744 644>
VStem: 112 532
DStem2: 112 0 332 0 0.207912 0.978148<45.7406 1498.83>
LayerCount: 2
Fore
SplineSet
112 0 m 1
 424 1466 l 1
 644 1466 l 1
 332 0 l 1
 112 0 l 1
EndSplineSet
EndChar

StartChar: m
Encoding: 109 109 81
Width: 1706
Flags: W
HStem: 0 21G<135 359.235 744 968.236 1353 1577.25> 895 200<658.795 880.413 1242.65 1488.96> 1042 20G<356.744 581>
VStem: 1512 230<667.16 870.67>
DStem2: 135 0 355 0 0.207912 0.978148<45.7406 872.796 1057.77 1085.78> 744 0 964 0 0.207912 0.978148<45.7406 796.764> 1353 0 1573 0 0.207912 0.978148<45.7406 787.361>
LayerCount: 2
Fore
SplineSet
768 895 m 0xd0
 588 895 512 742 481 595 c 2
 355 0 l 1
 135 0 l 1
 361 1062 l 1
 581 1062 l 1xb0
 565 990 l 1
 634 1050 736 1095 851 1095 c 3
 1047 1095 1091 1003 1103 957 c 1
 1185 1056 1358 1095 1478 1095 c 3
 1680 1095 1742 986 1742 852 c 3
 1742 812 1737 771 1728 729 c 2
 1573 0 l 1
 1353 0 l 1
 1505 713 l 2
 1510 734 1512 754 1512 772 c 3
 1512 850 1471 895 1395 895 c 3
 1279 895 1142 841 1104 661 c 2
 964 0 l 1
 744 0 l 1
 900 734 l 2
 904 751 905 767 905 781 c 3
 905 866 843 895 768 895 c 0xd0
EndSplineSet
EndChar

StartChar: n
Encoding: 110 110 82
Width: 1139
Flags: W
HStem: 0 21G<135 359.24 780 1004.25> 895 200<628.406 909.866> 1044 20G<356.752 581>
VStem: 936 221<627.499 865.741>
DStem2: 135 0 355 0 0.207912 0.978148<45.7406 865.831 1080.33 1087.74> 780 0 1000 0 0.207912 0.978148<45.7406 779.751>
LayerCount: 2
Fore
SplineSet
782 895 m 3xd0
 591 895 511 737 482 599 c 2
 355 0 l 1
 135 0 l 1
 361 1064 l 1
 581 1064 l 1xb0
 570 1012 l 1
 650 1074 721 1095 833 1095 c 3
 1085 1095 1157 948 1157 795 c 3
 1157 754 1151 712 1143 673 c 2
 1000 0 l 1
 780 0 l 1
 927 691 l 2
 933 719 936 744 936 765 c 3
 936 862 877 895 782 895 c 3xd0
EndSplineSet
EndChar

StartChar: o
Encoding: 111 111 83
Width: 1139
Flags: W
HStem: -13 200<457.187 771.381> 895 200<590.488 904.605>
VStem: 163 223<255.151 648.679> 975 223<433.684 826.75>
LayerCount: 2
Fore
SplineSet
563 -13 m 3
 300 -13 163 120 163 363 c 3
 163 809 439 1095 799 1095 c 3
 1062 1095 1198 961 1198 719 c 3
 1198 273 923 -13 563 -13 c 3
756 895 m 3
 498 895 386 653 386 404 c 3
 386 281 439 187 606 187 c 3
 864 187 975 430 975 679 c 3
 975 801 923 895 756 895 c 3
EndSplineSet
EndChar

StartChar: p
Encoding: 112 112 84
Width: 1139
Flags: W
HStem: -13 200<504.521 737.85> 895 200<641.912 882.357> 1042 20G<341.744 566>
VStem: 951 223<441.621 825.297>
DStem2: 37 -390 257 -390 0.207912 0.978148<45.7406 532.338 1465.72 1484.52>
LayerCount: 2
Fore
SplineSet
588 -13 m 3xd0
 501 -13 422 22 358 86 c 1
 257 -390 l 1
 37 -390 l 1
 346 1062 l 1
 566 1062 l 1xb0
 552 999 l 1
 622 1048 710 1095 815 1095 c 3
 1056 1095 1174 942 1174 711 c 3
 1174 303 914 -13 588 -13 c 3xd0
757 895 m 3xd0
 662 895 441 747 441 423 c 3
 441 285 503 187 614 187 c 0
 723 187 951 334 951 669 c 3
 951 811 884 895 757 895 c 3xd0
EndSplineSet
EndChar

StartChar: q
Encoding: 113 113 85
Width: 1139
Flags: W
HStem: -13 200<472.021 711.205> 895 200<612.426 860.745> 1042 20G<1009.56 1234>
VStem: 181 226<254.745 639.061>
DStem2: 705 -390 925 -390 0.207912 0.978148<45.7406 486.597 1419.98 1484.52>
LayerCount: 2
Fore
SplineSet
779 1095 m 3xd0
 930 1095 994 1009 1000 999 c 1
 1014 1062 l 1
 1234 1062 l 1xb0
 925 -390 l 1
 705 -390 l 1
 806 86 l 1
 714 22 621 -13 534 -13 c 3
 303 -13 181 137 181 366 c 3
 181 777 448 1095 779 1095 c 3xd0
595 187 m 3
 768 187 919 430 919 678 c 3
 919 853 820 895 752 895 c 3xd0
 561 895 407 679 407 409 c 3
 407 226 518 187 595 187 c 3
EndSplineSet
EndChar

StartChar: r
Encoding: 114 114 86
Width: 682
Flags: W
HStem: 0 21G<133 357.237> 895 200<662.898 851.949> 1042 20G<354.744 579>
DStem2: 133 0 353 0 0.207912 0.978148<45.7406 889.124 1013.84 1085.78>
LayerCount: 2
Fore
SplineSet
133 0 m 1xc0
 359 1062 l 1
 579 1062 l 1xa0
 554 947 l 1
 653 1068 719 1095 813 1095 c 3
 869 1095 902 1069 932 1046 c 1
 830 856 l 1
 807 870 797 895 755 895 c 3
 552 895 504 713 478 590 c 2
 353 0 l 1
 133 0 l 1xc0
EndSplineSet
EndChar

StartChar: s
Encoding: 115 115 87
Width: 1024
Flags: W
HStem: -14 200<405.994 734.865> 895 200<519.946 827.43>
VStem: 134 224<231.125 357.343> 250 227<688.115 846.755> 794 229<243.748 410.151> 849 227<767 869.667>
LayerCount: 2
Fore
SplineSet
514 -14 m 3xd8
 203 -14 134 151 134 291 c 3
 134 314 136 337 139 358 c 1
 359 358 l 1
 358 351 358 343 358 336 c 3
 358 237 430 186 556 186 c 3
 715 186 794 254 794 339 c 3xe8
 794 413 725 429 618 449 c 0
 406 489 250 531 250 704 c 3
 250 956 473 1095 717 1095 c 3
 1009 1095 1076 961 1076 841 c 0
 1076 815 1073 790 1068 767 c 1
 848 767 l 1
 849 774 849 781 849 787 c 0xd4
 849 860 793 895 687 895 c 3
 536 895 477 833 477 760 c 3
 477 689 553 668 655 648 c 0
 910 599 1023 542 1023 401 c 3
 1023 134 771 -14 514 -14 c 3xd8
EndSplineSet
EndChar

StartChar: t
Encoding: 116 116 88
Width: 569
Flags: W
HStem: -13 200<317.5 553.267> 862 200<244 329 592 680>
VStem: 186 239<95 395.602>
DStem2: 143.132 -13 363.107 -13 0.207912 0.978148<327.121 894.523 1144.83 1478.41>
LayerCount: 2
Fore
SplineSet
569 195 m 1
 554 2 l 1
 504 -8 453 -13 403 -13 c 3
 232 -13 186 48 186 142 c 3
 186 191 199 249 212 311 c 2
 329 862 l 1
 201 862 l 1
 244 1062 l 1
 372 1062 l 1
 451 1433 l 1
 671 1433 l 1
 592 1062 l 1
 723 1062 l 1
 680 862 l 1
 549 862 l 1
 429 297 l 2
 426 284 425 272 425 261 c 3
 425 217 448 187 514 187 c 3
 515 187 533 190 569 195 c 1
EndSplineSet
EndChar

StartChar: u
Encoding: 117 117 89
Width: 1139
Flags: W
HStem: -13 200<449.589 725.947> 1042 20G<325.754 550 970.751 1195>
VStem: 178 226<235.635 472.217>
DStem2: 101.663 -13 321.514 -13 0.207912 0.978148<412.932 1098.98> 746.237 -13 966.237 -13 0.207912 0.978148<269.999 1099.07>
LayerCount: 2
Fore
SplineSet
574 187 m 3
 728 187 811 289 835 403 c 2
 975 1062 l 1
 1195 1062 l 1
 969 0 l 1
 749 0 l 1
 756 34 l 1
 687 -2 573 -13 534 -13 c 3
 259 -13 178 128 178 287 c 3
 178 328 183 371 192 412 c 2
 330 1062 l 1
 550 1062 l 1
 411 408 l 2
 406 385 404 363 404 344 c 3
 404 222 498 187 574 187 c 3
EndSplineSet
EndChar

StartChar: v
Encoding: 118 118 90
Width: 1024
Flags: W
HStem: 0 21G<425.667 610.808> 1042 20G<252 496.934 974.917 1226>
DStem2: 494 1062 252 1062 0.164399 -0.986394<0 709.382> 597 360 599 0 0.508401 0.86112<0 802.275>
LayerCount: 2
Fore
SplineSet
429 0 m 1
 252 1062 l 1
 494 1062 l 1
 597 360 l 1
 986 1062 l 1
 1226 1062 l 1
 599 0 l 1
 429 0 l 1
EndSplineSet
EndChar

StartChar: w
Encoding: 119 119 91
Width: 1479
Flags: W
HStem: 0 21G<294.795 554.059 951.5 1209.21> 1042 20G<232 482.544 863.312 1060.52 1452.95 1689>
VStem: 232 250<824.112 1062>
DStem2: 501 364 544 0 0.471309 0.881968<0 455.686> 1146 364 1200 0 0.418244 0.908334<0 766.183>
LayerCount: 2
Fore
SplineSet
296 0 m 1
 232 1062 l 1
 482 1062 l 1
 501 364 l 1
 874 1062 l 1
 1058 1062 l 1
 1146 364 l 1
 1462 1062 l 1
 1689 1062 l 1
 1200 0 l 1
 956 0 l 1
 947 149 923 374 884 676 c 1
 544 0 l 1
 296 0 l 1
EndSplineSet
EndChar

StartChar: x
Encoding: 120 120 92
Width: 1024
Flags: W
HStem: 0 21G<15 300.206 723.924 1009> 1042 20G<270 556.73 909.082 1207>
DStem2: 15 0 284 0 0.655985 0.754774<176.46 176.46 982.694 1399.17> 776 562 583 369 0.382981 -0.923756<104.37 502.3>
LayerCount: 2
Fore
SplineSet
15 0 m 1
 463 552 l 1
 270 1062 l 1
 550 1062 l 1
 657 744 l 1
 926 1062 l 1
 1207 1062 l 1
 776 562 l 1
 1009 0 l 1
 732 0 l 1
 583 369 l 1
 284 0 l 1
 15 0 l 1
EndSplineSet
EndChar

StartChar: y
Encoding: 121 121 93
Width: 1024
Flags: W
HStem: -428 200<61.9587 311.619> 1042 20G<259 520.493 959.391 1232>
DStem2: 518 1062 259 1062 0.13894 -0.990301<0 695.256> 604 372 642 0 0.485643 0.874157<0 780.914>
LayerCount: 2
Fore
SplineSet
166 -228 m 3
 288 -228 409 -136 409 -23 c 3
 409 -15 409 -8 408 0 c 2
 259 1062 l 1
 518 1062 l 1
 604 372 l 1
 970 1062 l 1
 1232 1062 l 1
 642 0 l 1
 563 -253 381 -428 148 -428 c 3
 106 -428 66 -427 39 -415 c 1
 62 -214 l 1
 94 -223 129 -228 166 -228 c 3
EndSplineSet
EndChar

StartChar: z
Encoding: 122 122 94
Width: 1024
Flags: W
HStem: 0 200<387 980> 862 200<286 847>
DStem2: 83 200 387 200 0.755754 0.654855<229.749 1010.91>
LayerCount: 2
Fore
SplineSet
40 0 m 1
 83 200 l 1
 847 862 l 1
 243 862 l 1
 286 1062 l 1
 1174 1062 l 1
 1131 862 l 1
 387 200 l 1
 1023 200 l 1
 980 0 l 1
 40 0 l 1
EndSplineSet
EndChar

StartChar: braceleft
Encoding: 123 123 95
Width: 684
Flags: W
HStem: -422 21G<395 550.3> 448 164<187 268.17> 1282 200<783.598 908>
VStem: 239 231<-217.661 70.8641> 310 221<1.69583 409.394>
LayerCount: 2
Fore
SplineSet
187 612 m 17xe8
 382 616 430 785 470 971 c 0xf0
 542 1312 599 1482 895 1482 c 2
 951 1482 l 1
 908 1282 l 1
 867 1282 l 2
 780 1282 746 1228 693 981 c 0
 639 729 578 618 421 530 c 1
 497 474 531 407 531 301 c 3xe8
 531 205 470 -45 470 -131 c 3
 470 -202 495 -222 548 -222 c 2
 589 -222 l 1
 546 -422 l 1
 490 -422 l 2
 300 -422 239 -352 239 -211 c 3xf0
 239 -94 310 140 310 280 c 3
 310 377 274 445 152 448 c 9
 187 612 l 17xe8
EndSplineSet
EndChar

StartChar: bar
Encoding: 124 124 96
Width: 532
Flags: W
VStem: 64 629
DStem2: 64 -431 284 -431 0.207912 0.978148<45.7406 1965.04>
LayerCount: 2
Fore
SplineSet
64 -431 m 1
 473 1491 l 1
 693 1491 l 1
 284 -431 l 1
 64 -431 l 1
EndSplineSet
EndChar

StartChar: braceright
Encoding: 125 125 97
Width: 684
Flags: W
HStem: -422 200<1 125.402> 448 164<640.83 722> 1462 20G<358.7 514>
VStem: 379 220<650.606 1057.94> 440 230<988.874 1277.65>
LayerCount: 2
Fore
SplineSet
757 612 m 9xf0
 722 448 l 17
 527 444 479 275 439 89 c 0
 367 -252 310 -422 14 -422 c 2
 -42 -422 l 1
 1 -222 l 1
 42 -222 l 2
 129 -222 164 -168 217 79 c 0
 271 331 332 442 489 530 c 1
 413 586 379 653 379 759 c 3xf0
 379 855 440 1104 440 1190 c 3
 440 1262 414 1282 361 1282 c 2
 320 1282 l 1
 363 1482 l 1
 419 1482 l 2
 609 1482 670 1412 670 1271 c 3xe8
 670 1154 599 920 599 780 c 3
 599 683 635 615 757 612 c 9xf0
EndSplineSet
EndChar

StartChar: asciitilde
Encoding: 126 126 98
Width: 1196
Flags: W
HStem: 540 220<861.054 1140.04> 674 220<361.357 656.163>
LayerCount: 2
Fore
SplineSet
491 674 m 3x40
 389 674 311 626 201 538 c 1
 252 774 l 1
 340 854 440 894 555 894 c 3x40
 749 894 878 760 1014 760 c 3
 1117 760 1233 838 1301 897 c 1
 1249 654 l 1
 1147 575 1059 540 948 540 c 3x80
 750 540 653 674 491 674 c 3x40
EndSplineSet
EndChar

StartChar: exclamdown
Encoding: 161 161 100
Width: 569
Flags: W
HStem: 0 21G<168 412.257> 1065 20G<436.385 595> 1256 194<484 667>
VStem: 442 153<1033.94 1085>
DStem2: 168 0 408 0 0.207912 0.978148<49.8988 871.397 1332.3 1484.01>
LayerCount: 2
Fore
SplineSet
504 451 m 1
 408 0 l 1
 168 0 l 1
 264 451 l 1
 442 1085 l 1
 595 1085 l 1
 504 451 l 1
667 1256 m 1
 443 1256 l 1
 484 1450 l 1
 708 1450 l 1
 667 1256 l 1
EndSplineSet
EndChar

StartChar: cent
Encoding: 162 162 101
Width: 1118
Flags: W
HStem: 925 202<964 1045.92> 1455 20G<813.714 1038>
VStem: 198 223<265.501 662.269>
DStem2: 427 -361 647 -361 0.207912 0.978148<45.7406 359.901 611.19 1306.62 1567.13 1877.17>
LayerCount: 2
Fore
SplineSet
647 -361 m 1
 427 -361 l 1
 502 -9 l 1
 294 30 198 187 198 392 c 3
 198 779 443 1070 743 1125 c 1
 818 1475 l 1
 1038 1475 l 1
 964 1127 l 1
 1066 1112 1151 1078 1214 1047 c 1
 1166 821 l 1
 1134 821 l 1
 1060 884 985 912 921 925 c 1
 765 192 l 1
 834 205 918 234 1022 297 c 1
 1054 297 l 1
 1007 73 l 1
 887 18 795 -6 721 -14 c 1
 647 -361 l 1
547 201 m 1
 699 917 l 1
 579 876 421 698 421 428 c 3
 421 296 479 230 547 201 c 1
EndSplineSet
EndChar

StartChar: sterling
Encoding: 163 163 102
Width: 1118
Flags: W
HStem: 0 232<122 224.524> 0 200<342 1047> 597 200<283 404 666 990> 1231 235<1181.05 1279> 1318 200<855.89 1182.25>
DStem2: 277.104 0 497.104 0 0.207912 0.978148<411.711 610.337 860.44 1311.02>
LayerCount: 2
Fore
SplineSet
1248 1231 m 1x30
 1176 1290 1085 1318 1007 1318 c 3
 844 1318 754 1212 717 1036 c 2
 666 797 l 1
 1032 797 l 1
 990 597 l 1
 624 597 l 1
 572 353 446 262 342 200 c 1
 1090 200 l 1
 1047 0 l 1
 73 0 l 1x68
 122 232 l 1
 290 279 357 384 404 597 c 1
 241 597 l 1
 283 797 l 1
 446 797 l 1
 501 1055 l 2
 560 1331 773 1518 1031 1518 c 3xa8
 1110 1518 1181 1511 1329 1466 c 1
 1279 1231 l 1
 1248 1231 l 1x30
EndSplineSet
EndChar

StartChar: currency
Encoding: 164 164 103
Width: 1118
Flags: W
HStem: 310 200<585.023 772.88> 812 200<630.927 816.186>
VStem: 344 222<526.639 746.496> 836 224<574.83 795.074>
DStem2: 101 273 200 141 0.771305 0.636466<0 351.668 1067.8 1423.53> 423 1180 265 1051 0.619196 -0.785237<3.46265 285.079 875.982 1155.72>
LayerCount: 2
Fore
SplineSet
344 596 m 3
 344 700 388 774 435 833 c 1
 265 1051 l 1
 423 1180 l 1
 593 964 l 1
 661 1000 723 1012 775 1012 c 3
 843 1012 899 989 938 965 c 1
 1199 1179 l 1
 1304 1052 l 1
 1040 834 l 1
 1053 801 1060 768 1060 732 c 3
 1060 631 1028 564 967 488 c 1
 1138 272 l 1
 981 143 l 1
 811 358 l 1
 745 324 695 310 626 310 c 3
 558 310 500 334 463 359 c 1
 200 141 l 1
 101 273 l 1
 361 489 l 1
 349 525 344 562 344 596 c 3
733 812 m 3
 644 812 566 720 566 624 c 3
 566 563 600 510 668 510 c 3
 757 510 836 601 836 697 c 3
 836 759 801 812 733 812 c 3
EndSplineSet
EndChar

StartChar: yen
Encoding: 165 165 104
Width: 1118
Flags: W
HStem: 0 21G<439 683.25> 320 220<214 507 792 1087> 1431 20G<322 595.942 1135.43 1409>
DStem2: 591 1451 322 1451 0.271778 -0.96236<0 620.798> 740 848 806 608 0.581786 0.813342<0 728.396>
LayerCount: 2
Fore
SplineSet
1409 1451 m 1
 806 608 l 1
 792 540 l 1
 1134 540 l 1
 1087 320 l 1
 747 320 l 1
 679 0 l 1
 439 0 l 1
 507 320 l 1
 167 320 l 1
 214 540 l 1
 556 540 l 1
 566 587 l 1
 322 1451 l 1
 591 1451 l 1
 740 848 l 1
 1149 1451 l 1
 1409 1451 l 1
EndSplineSet
EndChar

StartChar: brokenbar
Encoding: 166 166 105
Width: 783
Flags: W
VStem: 198 634
DStem2: 198 -392 418 -392 0.207912 0.978148<45.7406 815.699 1221.34 1991.51>
LayerCount: 2
Fore
SplineSet
662 758 m 1
 442 758 l 1
 612 1556 l 1
 832 1556 l 1
 662 758 l 1
418 -392 m 1
 198 -392 l 1
 367 406 l 1
 587 406 l 1
 418 -392 l 1
EndSplineSet
EndChar

StartChar: section
Encoding: 167 167 106
Width: 1118
Flags: W
HStem: -404 200<247.505 656.254> -338 221<131 220.849> 1252 221<1139.6 1228> 1339 200<697.257 1108.54>
VStem: 207 233<429.677 640.717> 367 230<1042.77 1247.94> 762 230<-114.861 95.096> 918 233<488.398 702.307>
DStem2: 579 384 494 177 0.949286 -0.314413<-146.982 197.686> 738 995 622 802 0.957407 -0.288742<-90.2326 247.967>
LayerCount: 2
Fore
SplineSet
736 332 m 1x09
 784 359 918 457 918 608 c 3
 918 706 837 731 709 773 c 2
 622 802 l 1
 472 716 440 617 440 525 c 3
 440 442 496 412 579 384 c 2
 736 332 l 1x09
466 -204 m 3x82
 586 -204 762 -158 762 7 c 3
 762 79 711 112 620 139 c 2
 494 177 l 2
 352 220 207 280 207 453 c 3x8a
 207 588 265 739 476 861 c 1
 425 896 367 957 367 1068 c 3
 367 1312 569 1539 955 1539 c 3x94
 1089 1539 1181 1510 1275 1473 c 1
 1228 1252 l 1
 1198 1252 l 1x24
 1049 1336 944 1339 892 1339 c 3
 744 1339 597 1281 597 1135 c 3
 597 1064 646 1023 738 995 c 2
 864 957 l 2
 1033 906 1151 837 1151 681 c 3x15
 1151 540 1094 393 883 274 c 1
 936 239 992 179 992 70 c 3
 992 -144 811 -404 404 -404 c 3x92
 275 -404 173 -373 84 -338 c 1
 131 -117 l 1
 161 -117 l 1x42
 217 -150 329 -204 466 -204 c 3x82
EndSplineSet
EndChar

StartChar: dieresis
Encoding: 168 168 107
Width: 1118
Flags: W
HStem: 1288 227<559 744 972 1157>
LayerCount: 2
Fore
SplineSet
1157 1288 m 1
 924 1288 l 1
 972 1515 l 1
 1205 1515 l 1
 1157 1288 l 1
744 1288 m 1
 511 1288 l 1
 559 1515 l 1
 792 1515 l 1
 744 1288 l 1
EndSplineSet
EndChar

StartChar: copyright
Encoding: 169 169 108
Width: 1902
Flags: W
HStem: -226 142<695.013 1173.54> 164 200<922.677 1242.71> 959 200<1045 1349.07> 1393 142<1006.6 1484.7>
VStem: 190 150<274.183 747.005> 638 225<425.05 765.749> 1839 151<562.005 1034.64>
LayerCount: 2
Fore
SplineSet
903 -226 m 3
 482 -226 190 77 190 475 c 3
 190 1074 763 1535 1277 1535 c 3
 1698 1535 1990 1231 1990 834 c 3
 1990 234 1417 -226 903 -226 c 3
1839 808 m 3
 1839 1141 1598 1393 1247 1393 c 3
 816 1393 340 1006 340 501 c 3
 340 168 581 -84 933 -84 c 3
 1365 -84 1839 304 1839 808 c 3
1433 852 m 1
 1389 899 1297 959 1190 959 c 3
 1075 959 863 854 863 559 c 3
 863 394 979 364 1063 364 c 3
 1199 364 1326 452 1352 471 c 1
 1390 471 l 1
 1342 245 l 1
 1192 185 1114 164 1017 164 c 3
 840 164 638 240 638 511 c 3
 638 913 924 1159 1228 1159 c 3
 1354 1159 1451 1118 1520 1080 c 1
 1471 852 l 1
 1433 852 l 1
EndSplineSet
EndChar

StartChar: ordfeminine
Encoding: 170 170 109
Width: 1010
Flags: W
HStem: 525 200<507.218 713.925> 999 200<596.574 882> 1335 200<507.596 916.217>
VStem: 268 226<741.987 922.637> 930 225<1198.47 1317.06>
DStem2: 781.686 525 1001.69 525 0.207912 0.978148<71.2991 102.246 257.606 484.498 680.1 731.571>
LayerCount: 2
Fore
SplineSet
489 1486 m 1
 535 1499 678 1535 809 1535 c 3
 1060 1535 1155 1439 1155 1290 c 3
 1155 1260 1151 1228 1144 1194 c 2
 1007 550 l 1
 787 550 l 1
 803 625 l 1
 714 549 593 525 516 525 c 3
 366 525 268 620 268 764 c 3
 268 1115 559 1180 925 1199 c 1
 928 1215 930 1229 930 1242 c 3
 930 1314 875 1335 766 1335 c 3
 711 1335 651 1330 480 1286 c 1
 446 1286 l 1
 489 1486 l 1
615 725 m 3
 660 725 732 730 845 823 c 1
 882 999 l 1
 678 985 494 980 494 816 c 3
 494 768 522 725 615 725 c 3
EndSplineSet
EndChar

StartChar: guillemotleft
Encoding: 171 171 110
Width: 1174
Flags: W
HStem: 1128 20G<1275.42 1298.74>
DStem2: 445 652 215 601 0.681162 -0.732133<0 388.587> 237 704 445 652 0.805087 0.593156<136.614 616.003> 890 652 667 603 0.689048 -0.724716<0 365.725> 688 702 890 652 0.809532 0.587075<134.172 585.004>
LayerCount: 2
Fore
SplineSet
1092 156 m 1
 667 603 l 1
 688 702 l 1
 1303 1148 l 1
 1254 918 l 1
 890 652 l 1
 1141 386 l 1
 1092 156 l 1
656 127 m 1
 215 601 l 1
 237 704 l 1
 879 1177 l 1
 829 939 l 1
 445 652 l 1
 707 365 l 1
 656 127 l 1
EndSplineSet
EndChar

StartChar: logicalnot
Encoding: 172 172 111
Width: 1490
Flags: W
HStem: 578 200<306 1242>
DStem2: 1128 41 1348 41 0.207912 0.978148<45.7406 548.967>
LayerCount: 2
Fore
SplineSet
1348 41 m 1
 1128 41 l 1
 1242 578 l 1
 264 578 l 1
 306 778 l 1
 1504 778 l 1
 1348 41 l 1
EndSplineSet
EndChar

StartChar: registered
Encoding: 174 174 113
Width: 1902
Flags: W
HStem: -226 142<695.013 1173.54> 946 200<1055 1276.69> 1393 142<1006.6 1484.7>
VStem: 190 150<274.183 747.005> 1284 228<796.02 1012> 1839 151<562.005 1034.64>
DStem2: 585.663 -226 805.663 -226 0.207912 0.978148<480.235 843.279 1047.64 1243.97> 1281 619 1048 554 0.502334 -0.864674<0 350.102>
LayerCount: 2
Fore
SplineSet
903 -226 m 3
 482 -226 190 77 190 475 c 3
 190 1074 763 1535 1277 1535 c 3
 1698 1535 1990 1231 1990 834 c 3
 1990 234 1417 -226 903 -226 c 3
1839 808 m 3
 1839 1141 1598 1393 1247 1393 c 3
 816 1393 340 1006 340 501 c 3
 340 168 581 -84 933 -84 c 3
 1365 -84 1839 304 1839 808 c 3
1281 619 m 1
 1525 199 l 1
 1255 199 l 1
 1048 554 l 1
 972 554 l 1
 896 199 l 1
 676 199 l 1
 878 1146 l 1
 1173 1146 l 2
 1391 1146 1512 1082 1512 942 c 3
 1512 789 1428 688 1281 619 c 1
1073 754 m 2
 1229 754 1284 816 1284 884 c 3
 1284 936 1218 946 1131 946 c 2
 1055 946 l 1
 1014 754 l 1
 1073 754 l 2
EndSplineSet
EndChar

StartChar: macron
Encoding: 175 175 114
Width: 1118
Flags: W
HStem: 1643 162<368 1483>
LayerCount: 2
Fore
SplineSet
1483 1643 m 1
 333 1643 l 1
 368 1805 l 1
 1518 1805 l 1
 1483 1643 l 1
EndSplineSet
EndChar

StartChar: degree
Encoding: 176 176 115
Width: 964
Flags: W
HStem: 739 200<586.136 795.74> 1331 200<649.161 860.78>
VStem: 316 226<982.05 1222.59> 904 225<1047.85 1288.24>
LayerCount: 2
Fore
SplineSet
807 1531 m 3
 999 1531 1129 1404 1129 1222 c 3
 1129 939 877 739 639 739 c 3
 448 739 316 864 316 1047 c 3
 316 1330 569 1531 807 1531 c 3
765 1331 m 3
 667 1331 542 1222 542 1095 c 3
 542 1004 611 939 682 939 c 3
 784 939 904 1052 904 1175 c 3
 904 1264 839 1331 765 1331 c 3
EndSplineSet
EndChar

StartChar: plusminus
Encoding: 177 177 116
Width: 1490
Flags: W
HStem: 143 220<223 702 942 1374> 723 220<346 779 1065 1498>
DStem2: 655.238 143 895.238 143 0.207912 0.978148<274.814 593.057 867.712 1303.43>
LayerCount: 2
Fore
SplineSet
1374 143 m 1
 176 143 l 1
 223 363 l 1
 702 363 l 1
 779 723 l 1
 300 723 l 1
 346 943 l 1
 825 943 l 1
 926 1418 l 1
 1166 1418 l 1
 1065 943 l 1
 1544 943 l 1
 1498 723 l 1
 1019 723 l 1
 942 363 l 1
 1421 363 l 1
 1374 143 l 1
EndSplineSet
EndChar

StartChar: uni00B2
Encoding: 178 178 117
Width: 1010
Flags: W
HStem: 534 200<606 933> 1318 200<686.247 856.091>
VStem: 426 220<1179 1278.44> 863 224<1142.04 1309.69>
LayerCount: 2
Fore
SplineSet
825 1518 m 3
 987 1518 1087 1430 1087 1297 c 3
 1087 1013 755 865 606 734 c 1
 975 734 l 1
 933 534 l 1
 264 534 l 1
 308 681 392 794 482 868 c 0
 645 1003 863 1111 863 1249 c 3
 863 1289 822 1318 781 1318 c 3
 701 1318 667 1266 646 1179 c 1
 426 1179 l 1
 470 1385 611 1518 825 1518 c 3
EndSplineSet
EndChar

StartChar: uni00B3
Encoding: 179 179 118
Width: 1010
Flags: W
HStem: 528 200<584.835 750.395> 946 200<633 778.358> 1318 200<689.424 824.488>
VStem: 341 229<740.238 863> 789 229<765.319 932.464> 831 224<1171.88 1313.15>
LayerCount: 2
Fore
SplineSet
1018 930 m 3xf8
 1018 691 815 528 602 528 c 3
 440 528 341 622 341 775 c 3
 341 802 344 832 351 863 c 1
 571 863 l 1
 571 856 570 850 570 844 c 3
 570 775 596 728 645 728 c 3
 729 728 789 786 789 862 c 3xf8
 789 910 751 946 681 946 c 0
 647 946 615 936 586 928 c 1
 633 1146 l 1
 765 1146 831 1166 831 1258 c 3
 831 1285 796 1318 770 1318 c 3
 708 1318 679 1273 655 1198 c 1
 435 1198 l 1
 475 1386 617 1518 808 1518 c 3
 952 1518 1055 1436 1055 1306 c 3xf4
 1055 1203 1011 1113 953 1068 c 1
 999 1039 1018 991 1018 930 c 3xf8
EndSplineSet
EndChar

StartChar: acute
Encoding: 180 180 119
Width: 1118
Flags: W
HStem: 1286 406
VStem: 697 565
LayerCount: 2
Fore
SplineSet
1262 1692 m 1
 879 1286 l 1
 697 1286 l 1
 978 1692 l 1
 1262 1692 l 1
EndSplineSet
EndChar

StartChar: mu
Encoding: 181 181 120
Width: 1163
Flags: W
HStem: -13 200<465.072 748.344>
DStem2: 32 -412 252 -412 0.207912 0.978148<45.7406 559.995 737.05 1563.16> 735.427 -412 955.427 -412 0.207912 0.978148<466.945 522.407 673.479 1563.07>
LayerCount: 2
Fore
SplineSet
618 187 m 3
 724 187 805 228 886 297 c 1
 1060 1117 l 1
 1280 1117 l 1
 1043 0 l 1
 823 0 l 1
 844 99 l 1
 721 -1 655 -13 575 -13 c 3
 480 -13 422 10 359 91 c 1
 252 -412 l 1
 32 -412 l 1
 357 1117 l 1
 577 1117 l 1
 403 297 l 1
 449 227 520 187 618 187 c 3
EndSplineSet
EndChar

StartChar: paragraph
Encoding: 182 182 121
Width: 1118
Flags: W
HStem: 1289 200<945 1052>
DStem2: 374 -363 594 -363 0.207912 0.978148<45.7406 945.537> 701 -363 921 -363 0.207912 0.978148<45.7406 1688.88>
LayerCount: 2
Fore
SplineSet
828 1489 m 2
 1314 1489 l 1
 921 -363 l 1
 701 -363 l 1
 1052 1289 l 1
 945 1289 l 1
 594 -363 l 1
 374 -363 l 1
 570 562 l 1
 381 573 248 705 248 914 c 3
 248 1287.3 537 1489 828 1489 c 2
EndSplineSet
EndChar

StartChar: periodcentered
Encoding: 183 183 122
Width: 724
Flags: W
HStem: 816 317<468 671>
VStem: 400 339
LayerCount: 2
Fore
SplineSet
671 816 m 1
 400 816 l 1
 468 1133 l 1
 739 1133 l 1
 671 816 l 1
EndSplineSet
EndChar

StartChar: cedilla
Encoding: 184 184 123
Width: 1118
Flags: W
HStem: -428 200<238.967 507.457> -400 206<232 373.185>
VStem: 574 218<-150.404 47>
LayerCount: 2
Fore
SplineSet
260 -194 m 1x60
 300 -214 344 -228 392 -228 c 3
 478 -228 529 -190 549 -96 c 0
 559 -51 559 -40 574 47 c 1
 792 47 l 1
 787 11 779 -44 772 -78 c 0
 713 -354 506 -428 375 -428 c 3xa0
 337 -428 252 -420 188 -400 c 1
 232 -194 l 1
 260 -194 l 1x60
EndSplineSet
EndChar

StartChar: uni0E01
Encoding: 3585 3585 124
Width: 1240
Flags: W
HStem: 0 21G<188 412.242 862 1086.25> 949 200<650.832 964.978>
VStem: 1015 226<540.188 899.474>
DStem2: 188 0 408 0 0.207912 0.978148<45.7406 594.949> 862 0 1082 0 0.207912 0.978148<45.7406 781.556>
LayerCount: 2
Fore
SplineSet
868 1149 m 0
 1106 1149 1241 1028 1241 811 c 0
 1241 769 1235 723 1225 673 c 2
 1082 0 l 1
 862 0 l 1
 1002 657 l 2
 1011 699 1015 736 1015 768 c 0
 1015 892 952 949 826 949 c 0
 720 949 635 916 567 831 c 1
 633 795 673 739 687 663 c 1
 556 552 519 523 485 363 c 2
 408 0 l 1
 188 0 l 1
 265 363 l 2
 299 524 328 560 459 671 c 1
 423 726 366 767 286 792 c 1
 336 912 552 1149 868 1149 c 0
EndSplineSet
EndChar

StartChar: uni0E02
Encoding: 3586 3586 125
Width: 1400
Flags: W
HStem: 0 200<800 1040> 531 129<362 529.539> 953 196<606.777 797.934>
VStem: 249 173<661.319 812.016> 550 135<675.65 826.728> 833 221<740.717 922.81>
DStem2: 537 0 757.489 0 0.207912 0.978148<250.31 703.33> 997.489 0 1217 0 0.207912 0.978148<204.468 1164.32>
LayerCount: 2
Fore
SplineSet
466 660 m 0
 513 660 550 719 550 767 c 0
 550 799 534 828 502 828 c 0
 455 828 422 767 422 718 c 0
 422 687 435 660 466 660 c 0
249 705 m 0
 249 929 453 1149 720 1149 c 0
 1005 1149 1054 954 1054 837 c 0
 1054 809 1051 786 1048 771 c 1
 945 688 889 623 879 575 c 2
 800 200 l 1
 1040 200 l 1
 1239 1139 l 1
 1459 1139 l 1
 1217 0 l 1
 537 0 l 1
 659 575 l 2
 669 622 717 682 828 771 c 1
 831 786 833 801 833 815 c 0
 833 891 788 953 702 953 c 0
 630 953 603 922 602 922 c 1
 602 921 602 920 601 920 c 1
 659 913 685 865 685 803 c 0
 685 672 578 531 420 531 c 0
 304 531 249 599 249 705 c 0
EndSplineSet
EndChar

StartChar: uni0E03
Encoding: 3587 3587 126
Width: 1450
Flags: W
HStem: 0 200<853 1093> 457 129<316.5 491.531> 1129 10G<479 629.185 876.074 970.5 1287.76 1512>
VStem: 216 168<587.608 738.618> 512 135<602.34 752.794> 897 210<741.783 927.951>
DStem2: 590 0 810.489 0 0.207912 0.978148<250.31 702.882> 1050.49 0 1270 0 0.207912 0.978148<204.468 1164.32>
LayerCount: 2
Fore
SplineSet
429 586 m 0
 476 586 512 645 512 693 c 0
 512 725 496 754 464 754 c 0
 417 754 384 694 384 645 c 0
 384 614 397 586 429 586 c 0
647 724 m 0
 647 595 538 457 383 457 c 0
 250 457 216 553 216 637 c 0
 216 798 354 1054 604 1149 c 1
 740 1041 l 1
 907 1149 l 1
 1034 1114 1107 966 1107 835 c 0
 1107 813 1105 791 1101 771 c 1
 998 688 942 623 932 575 c 2
 853 200 l 1
 1093 200 l 1
 1292 1139 l 1
 1512 1139 l 1
 1270 0 l 1
 590 0 l 1
 712 575 l 2
 723 628 780 691 895 771 c 1
 896 778 897 787 897 795 c 0
 897 841 879 901 860 929 c 1
 694 821 l 1
 557 929 l 1
 528 897 509 869 507 862 c 1
 618 862 647 789 647 724 c 0
EndSplineSet
EndChar

StartChar: uni0E04
Encoding: 3588 3588 127
Width: 1370
Flags: W
HStem: 0 21G<251 498 980 1204.25> 305 111<763.424 885.688> 574 142<779.605 902.321> 949 200<714.172 1041.43>
VStem: 905 125<433.54 571.518> 1129 228<615.182 861.959>
DStem2: 980 0 1200 0 0.207912 0.978148<45.7406 749.885>
LayerCount: 2
Fore
SplineSet
816 416 m 0
 861 416 905 465 905 513 c 0
 905 546 884 574 850 574 c 0
 806 574 761 525 761 478 c 0
 761 445 782 416 816 416 c 0
1030 550 m 0
 1030 432 902 305 772 305 c 0
 727 305 692 325 690 338 c 1
 653 304 505 52 491 0 c 1
 251 0 l 1
 274 108 l 2
 298 221 273 491 314 680 c 0
 381 996 628 1149 925 1149 c 0
 1151 1149 1357 1047 1357 795 c 0
 1357 759 1353 720 1344 677 c 2
 1200 0 l 1
 980 0 l 1
 1121 664 l 2
 1127 690 1129 714 1129 736 c 0
 1129 894 995 949 887 949 c 0
 785 949 578 890 527 647 c 0
 510 567 510 434 503 384 c 1
 608 592 730 716 872 716 c 0
 965 716 1030 636 1030 550 c 0
EndSplineSet
EndChar

StartChar: uni0E05
Encoding: 3589 3589 128
Width: 1370
Flags: W
HStem: 0 21G<238 482 967 1191.25> 305 111<750.259 874.629> 574 142<765.434 887.999> 1129 20G<665.5 781.138 1060.03 1199.5>
VStem: 892 124<431.038 571.991> 1122 227<549.969 877.753>
DStem2: 967 0 1187 0 0.207912 0.978148<45.7406 774.15>
LayerCount: 2
Fore
SplineSet
803 416 m 0
 848 416 892 464 892 512 c 0
 892 545 871 574 837 574 c 0
 792 574 748 526 748 478 c 0
 748 445 769 416 803 416 c 0
1016 545 m 0
 1016 436 883 305 759 305 c 0
 712 305 679 326 677 338 c 1
 634 299 486 37 478 0 c 1
 238 0 l 1
 261 108 l 2
 282 209 265 518 305 706 c 0
 365 988 574 1129 757 1149 c 1
 897 1033 l 1
 1094 1149 l 1
 1305 1099 1349 947 1349 825 c 0
 1349 762 1337 707 1331 677 c 2
 1187 0 l 1
 967 0 l 1
 1108 664 l 2
 1115 696 1122 728 1122 760 c 0
 1122 811 1105 862 1043 909 c 1
 846 795 l 1
 706 909 l 1
 487 824 512 596 490 384 c 1
 595 592 713 716 858 716 c 0
 963 716 1016 623 1016 545 c 0
EndSplineSet
EndChar

StartChar: uni0E06
Encoding: 3590 3590 129
Width: 1520
Flags: W
HStem: -13 263<1035.53 1197.43> -10 166<567.928 635.895> 457 129<306.5 481.531> 1129 10G<469 619.185 866.074 960.5 1376.75 1601>
VStem: 206 168<587.608 738.618> 411 154<156.39 293.128> 502 135<602.34 752.794> 887 210<741.783 927.948>
DStem2: 591.856 -13 796.378 -13 0.207912 0.978148<168.091 223.477 517.008 732.067> 1136.1 -13 1355.9 -13 0.207912 0.978148<262.762 1177.74>
LayerCount: 2
Fore
SplineSet
419 586 m 0x3b
 466 586 502 645 502 693 c 0
 502 725 486 754 454 754 c 0
 407 754 374 694 374 645 c 0
 374 614 387 586 419 586 c 0x3b
637 724 m 0
 637 595 528 457 373 457 c 0
 240 457 206 553 206 637 c 0
 206 798 344 1054 594 1149 c 1
 730 1041 l 1
 897 1149 l 1
 1024 1114 1097 966 1097 835 c 0
 1097 813 1095 791 1091 771 c 1
 987 689 933 624 922 575 c 2
 891 430 l 1
 987 315 1087 250 1140 250 c 0
 1204 250 1209 329 1219 377 c 2
 1381 1139 l 1
 1601 1139 l 1
 1405 218 l 2
 1362 14 1228 -13 1160 -13 c 0xbb
 1031 -13 841 156 834 164 c 1
 813 66 714 -10 598 -10 c 0
 446 -10 411 87 411 173 c 0x7d
 411 339 531 484 688 507 c 1
 702 575 l 2
 713 628 768 691 885 771 c 1
 886 777 887 784 887 791 c 0
 887 834 869 901 850 929 c 1
 684 821 l 1
 547 929 l 1
 518 897 499 869 497 862 c 1
 608 862 637 789 637 724 c 0
662 317 m 1
 604 317 565 242 565 187 c 0
 565 166 573 156 588 156 c 0x7d
 620 156 633 179 642 222 c 2
 662 317 l 1
EndSplineSet
EndChar

StartChar: uni0E07
Encoding: 3591 3591 130
Width: 1000
Flags: W
HStem: -10 200<524.443 672.577> 1026 123<770.732 929>
VStem: 285 229<196.696 640> 629 123<858.22 1008.21> 879 174<869.542 1025.91>
DStem2: 632.808 -10 853.059 -10 0.207912 0.978148<209.843 786.125>
LayerCount: 2
Fore
SplineSet
629 876 m 0
 629 977 713 1149 895 1149 c 0
 963 1149 1053 1119 1053 978 c 0
 1053 950 1050 918 1042 881 c 2
 913 272 l 2
 865 46 684 -10 551 -10 c 0
 306 -10 283 175 285 257 c 2
 298 719 l 1
 522 640 l 1
 514 282 l 2
 512 199 562 190 590 190 c 0
 646 190 683 224 697 292 c 2
 796 759 l 1
 788 754 771 752 745 752 c 0
 703 752 629 782 629 876 c 0
802 857 m 0
 866 857 879 954 879 980 c 0
 879 1007 869 1026 837 1026 c 0
 802 1026 752 980 752 920 c 0
 752 885 771 857 802 857 c 0
EndSplineSet
EndChar

StartChar: uni0E08
Encoding: 3592 3592 131
Width: 1200
Flags: W
HStem: -10 200<666.505 851.977> 344 113<458.823 546.279> 625 124<476.355 658.5> 949 200<571.928 896.953>
VStem: 339 119<458.754 611.695> 517 224<121 370.875> 586 220<469.303 623.803> 964 232<583.766 883.457>
DStem2: 806.148 -10 1025.58 -10 0.207912 0.978148<200.272 788.941>
LayerCount: 2
Fore
SplineSet
339 481 m 0xfd
 339 583 422 749 614 749 c 0
 703 749 806 714 806 583 c 0xfb
 806 564 803 541 798 517 c 2
 744 263 l 2
 742 253 741 243 741 235 c 0
 741 205 756 190 788 190 c 0
 828 190 853 213 863 259 c 2
 956 695 l 2
 961 720 964 743 964 764 c 0
 964 910 843 949 748 949 c 0
 605 949 474 861 407 775 c 1
 301 929 l 1
 394 1046 592 1149 788 1149 c 0
 1027 1149 1196 1053 1196 842 c 0
 1196 810 1193 777 1185 740 c 2
 1087 279 l 2
 1046 85 932 -10 743 -10 c 0
 592 -10 517 56 517 186 c 0
 517 215 521 248 528 283 c 2
 547 373 l 1
 524 351 486 344 462 344 c 0
 408 344 339 390 339 481 c 0xfd
540 625 m 0
 474 625 458 540 458 508 c 0
 458 474 474 457 504 457 c 0
 570 457 586 542 586 574 c 0
 586 608 570 625 540 625 c 0
EndSplineSet
EndChar

StartChar: uni0E09
Encoding: 3593 3593 132
Width: 1395
Flags: W
HStem: -13 246<518 701.739> -10 166<1039 1207.59> 365 111<348.642 437.226> 644 122<366.583 553> 949 200<643.666 984.341>
VStem: 232 115<476.13 630.852> 391 243<73.5 323.148> 475 221<488.358 643.125> 1051 227<565.719 886.292> 1219 156<157.917 314.922>
AnchorPoint: "AboveBase" 1379 1227 basechar 0
LayerCount: 2
Fore
SplineSet
429 644 m 0x3d
 363 644 347 559 347 527 c 0
 347 493 363 476 393 476 c 0
 459 476 475 561 475 593 c 0
 475 627 459 644 429 644 c 0x3d
232 500 m 0
 232 654 365 766 488 766 c 0
 618 766 696 707 696 600 c 0xbd
 696 582 694 564 690 544 c 2
 650 357 l 2
 640 311 634 281 634 263 c 0
 634 239 644 233 672 233 c 0
 751 233 962 395 980 410 c 1
 1045 714 l 2
 1049 734 1051 753 1051 771 c 0
 1051 893 953 949 831 949 c 0
 648 949 519 826 489 788 c 1
 380 942 l 1
 472 1055 672 1149 869 1149 c 0
 1127 1149 1278 1040 1278 828 c 0xbe80
 1278 793 1274 754 1265 713 c 2
 1217 487 l 1
 1351 473 1375 373 1375 304 c 0
 1375 201 1305 -10 1091 -10 c 0x7c40
 987 -10 925 45 925 126 c 0
 925 138 926 151 929 164 c 1
 828 104 669 -13 547 -13 c 0
 489 -13 391 7 391 140 c 0xbe40
 391 163 394 189 400 218 c 2
 438 393 l 1
 414 374 387 365 354 365 c 0
 270 365 232 426 232 500 c 0
1169 156 m 0x7c40
 1209 156 1219 226 1219 247 c 0
 1219 287 1199 317 1163 317 c 1
 1143 222 l 2
 1140 208 1139 197 1139 188 c 0
 1139 162 1151 156 1169 156 c 0x7c40
EndSplineSet
EndChar

StartChar: uni0E0A
Encoding: 3594 3594 133
Width: 1390
Flags: W
HStem: 0 200<794 1034> 531 129<348.5 523.328> 953 196<600.933 790.96>
VStem: 243 173<661.785 812.183> 544 135<675.206 826.728> 1113 237<442.773 690.276> 1333 235<1065.23 1188>
DStem2: 531 0 751.489 0 0.207912 0.978148<250.31 703.33> 991.489 0 1211 0 0.207912 0.978148<204.468 611.462>
LayerCount: 2
Fore
SplineSet
460 660 m 0xf8
 507 660 544 719 544 767 c 0
 544 799 528 828 496 828 c 0
 449 828 416 767 416 718 c 0
 416 687 429 660 460 660 c 0xf8
1031 719 m 1
 959 678 880 606 867 545 c 2
 794 200 l 1
 1034 200 l 1
 1107 546 l 2
 1111 567 1113 585 1113 600 c 0xfc
 1113 668 1074 686 1031 719 c 1
243 705 m 0
 243 930 448 1149 714 1149 c 0
 928 1149 1012 1056 1037 924 c 1
 1171 942 1303 1020 1333 1163 c 1
 1339 1188 l 1
 1574 1188 l 1
 1568 1164 l 1xfa
 1536 1010 1392 865 1259 825 c 1
 1323 781 1350 732 1350 674 c 0
 1350 660 1348 645 1345 629 c 2
 1211 0 l 1
 531 0 l 1
 653 575 l 2
 663 622 711 682 822 771 c 1
 825 784 826 798 826 811 c 0
 826 885 783 953 696 953 c 0
 624 953 597 922 596 922 c 1
 596 921 596 920 595 920 c 1
 653 913 679 865 679 803 c 0
 679 670 570 531 415 531 c 0
 282 531 243 615 243 705 c 0
EndSplineSet
EndChar

StartChar: uni0E0B
Encoding: 3595 3595 134
Width: 1450
Flags: W
HStem: 0 200<866 1106> 457 129<316.5 491.531> 1129 20G<479 629.185 876.074 950>
VStem: 216 168<587.608 738.618> 512 135<602.34 752.794> 1186 236<564.127 690.078> 1405 235<1066.77 1188>
DStem2: 603 0 823.489 0 0.207912 0.978148<250.31 703.33> 1063.49 0 1283 0 0.207912 0.978148<204.468 616.514>
LayerCount: 2
Fore
SplineSet
429 586 m 0xf8
 476 586 512 645 512 693 c 0
 512 725 496 754 464 754 c 0
 417 754 384 694 384 645 c 0
 384 614 397 586 429 586 c 0xf8
647 724 m 0
 647 595 538 457 383 457 c 0
 250 457 216 553 216 637 c 0
 216 798 354 1054 604 1149 c 1
 740 1041 l 1
 907 1149 l 1
 993 1119 1085 1027 1109 924 c 1
 1243 942 1375 1020 1405 1163 c 1
 1411 1188 l 1
 1646 1188 l 1
 1640 1164 l 1xfa
 1608 1013 1469 868 1331 825 c 1
 1395 781 1422 732 1422 674 c 0xfc
 1422 660 1420 645 1417 629 c 2
 1283 0 l 1
 603 0 l 1
 725 575 l 2
 735 622 783 682 894 771 c 1
 896 779 897 789 897 798 c 0
 897 847 876 907 860 929 c 1
 694 821 l 1
 557 929 l 1
 528 897 509 869 507 862 c 1
 618 862 647 789 647 724 c 0
1103 719 m 1
 1031 678 952 606 939 545 c 2
 866 200 l 1
 1106 200 l 1
 1179 546 l 2
 1184 569 1186 589 1186 605 c 0xfc
 1186 674 1146 687 1103 719 c 1
EndSplineSet
EndChar

StartChar: uni0E0C
Encoding: 3596 3596 135
Width: 1750
Flags: W
HStem: -10 166<847.846 915.879> -10 120<352.591 538.736> 280 111<484.107 586> 317 170<874.048 942> 949 200<658.421 960.59>
VStem: 231 202<110.167 265.499> 559 130<123.976 278.63> 691 154<157.543 291.544> 1012 226<537.43 899.192>
DStem2: 872.494 -10 1077.02 -10 0.207912 0.978148<163.494 220.41 493.578 783.688> 1370.59 -10 1590.87 -10 0.207912 0.978148<261.719 1174.71>
LayerCount: 2
Fore
SplineSet
515 280 m 0x6f80
 468 280 433 219 433 170 c 0
 433 138 446 110 478 110 c 0
 526 110 559 173 559 222 c 0
 559 253 546 280 515 280 c 0x6f80
689 255 m 0
 689 137 591 -10 427 -10 c 0x6f80
 271 -10 231 67 231 161 c 0
 231 207 240 256 250 303 c 2
 264 366 l 1
 297 523 327 560 457 671 c 1
 421 726 364 767 284 792 c 1
 334 912 550 1149 866 1149 c 0
 1100 1149 1238 1033 1238 813 c 0
 1238 770 1233 723 1222 673 c 2
 1166 410 l 1
 1425 246 l 1
 1615 1139 l 1
 1835 1139 l 1
 1593 0 l 1
 1374 0 l 1
 1114 164 l 1
 1092 62 994 -10 878 -10 c 0
 725 -10 691 91 691 175 c 0
 691 349 823 475 964 487 c 1x9f80
 1000 657 l 2
 1008 696 1012 732 1012 763 c 0
 1012 885 950 949 824 949 c 0
 718 949 631 906 565 831 c 1
 631 795 671 739 685 663 c 1
 552 551 520 537 483 363 c 1
 504 382 529 391 560 391 c 0
 612 391 689 355 689 255 c 0
942 317 m 1x9f80
 884 317 845 243 845 187 c 0
 845 166 853 156 868 156 c 0
 900 156 913 179 922 222 c 2
 942 317 l 1x9f80
EndSplineSet
EndChar

StartChar: uni0E0D
Encoding: 3597 3597 136
Width: 1745
Flags: W
HStem: -417 180<996.568 1225.93> -130 108<999.625 1100.98> -10 120<412.924 595.249> 0 200<1178 1403> 280 111<538.994 645> 949 200<713.421 1016.24>
VStem: 288 201<111.55 266.136> 614 131<124.639 278.43> 881 113<-283.5 -135.407> 1067 227<542.023 897.461> 1101 121<-232.496 -131.259> 1437 167<-121.852 -46.7982>
DStem2: 826.364 -417 1046.85 -417 0.207912 0.978148<676.626 1202.82> 1271.85 -417 1491.36 -417 0.207912 0.978148<630.784 1590.64>
LayerCount: 2
Fore
SplineSet
745 255 m 0xdfd0
 745 140 652 -10 482 -10 c 0xefd0
 335 -10 288 57 288 165 c 0
 288 205 294 252 305 303 c 2
 319 366 l 1
 352 523 382 560 512 671 c 1
 477 726 419 767 339 792 c 1
 389 912 605 1149 921 1149 c 0
 1159 1149 1294 1028 1294 810 c 0
 1294 768 1288 722 1278 673 c 2
 1178 200 l 1
 1403 200 l 1
 1602 1139 l 1
 1822 1139 l 1
 1580 0 l 1
 915 0 l 1
 1055 657 l 2
 1063 696 1067 732 1067 763 c 0
 1067 885 1005 949 879 949 c 0
 773 949 686 906 620 831 c 1
 686 795 727 739 740 663 c 1
 601 541 574 534 538 363 c 1
 560 383 585 391 619 391 c 0
 671 391 745 353 745 255 c 0xdfd0
533 110 m 0
 582 110 614 173 614 222 c 0
 614 253 601 280 570 280 c 0
 522 280 489 216 489 174 c 0
 489 141 504 110 533 110 c 0
881 -243 m 0
 881 -141 959 -22 1089 -22 c 0
 1176 -22 1222 -69 1222 -139 c 0xcfb0
 1222 -220 1179 -254 1165 -265 c 1
 1331 -235 1411 -118 1437 -34 c 1
 1604 -48 l 1
 1553 -250 1353 -417 1125 -417 c 0
 931 -417 881 -324 881 -243 c 0
1036 -237 m 0
 1072 -237 1101 -203 1101 -171 c 0
 1101 -147 1084 -130 1058 -130 c 0
 1025 -130 994 -160 994 -195 c 0
 994 -219 1010 -237 1036 -237 c 0
EndSplineSet
Substitution2: "'ccmp' Pali-Sanskrit Descender Removal" uni0E0D.descless
Substitution2: "Thai Descender Removal Single Substitution" uni0E0D.descless
EndChar

StartChar: uni0E0E
Encoding: 3598 3598 137
Width: 1375
Flags: W
HStem: -430 157<334.003 552.832> -132 142<435.852 627.519> -10 120<262.707 366.623> 280 111<281.157 386.03> 949 200<804.421 1107.24>
VStem: 137 124<110.311 265.616> 206 193<-328 -168.926> 1158 227<540.219 897.779>
DStem2: 914.547 -430 1134.75 -430 0.207912 0.978148<281.144 1216.12>
AnchorPoint: "BelowBase" 1130 -453 basechar 0
LayerCount: 2
Fore
SplineSet
206 -289 m 0xbb
 206 -192 326 10 591 10 c 0xdb
 640 10 689 3 735 -12 c 1
 850 142 l 1
 975 88 l 1
 864 -67 l 1
 900 -82 945 -117 973 -155 c 1
 1146 657 l 2
 1154 696 1158 732 1158 763 c 0
 1158 885 1096 949 970 949 c 0
 864 949 777 906 711 831 c 1
 777 795 817 739 831 663 c 1
 702 550 666 536 632 376 c 1
 616 303 l 2
 583 148 528 -10 307 -10 c 0
 180 -10 137 75 137 156 c 0xbd
 137 280 233 391 343 391 c 0
 373 391 395 382 409 363 c 1
 414 384 l 1
 443 523 478 565 603 671 c 1
 567 726 510 767 430 792 c 1
 480 912 696 1149 1012 1149 c 0
 1250 1149 1385 1028 1385 811 c 0
 1385 769 1379 723 1369 673 c 2
 1139 -410 l 1
 919 -410 l 1
 877 -322 826 -259 765 -220 c 1
 686 -329 572 -430 401 -430 c 0
 269 -430 206 -367 206 -289 c 0xbb
343 280 m 0
 296 280 261 219 261 170 c 0
 261 138 274 110 306 110 c 0xbd
 354 110 387 173 387 222 c 0
 387 253 374 280 343 280 c 0
551 -132 m 0xdb
 448 -132 399 -207 399 -241 c 0
 399 -252 406 -273 441 -273 c 0
 509 -273 595 -207 628 -154 c 1
 614 -138 587 -132 551 -132 c 0xdb
EndSplineSet
EndChar

StartChar: uni0E0F
Encoding: 3599 3599 138
Width: 1375
Flags: W
HStem: -429 136<297.466 461.868> -152 153<326.014 530.621> -10 120<264.589 366.123> 280 111<280.935 386.019> 949 200<803.421 1106.05>
VStem: 135 161<-291.271 -182.67> 135 126<111.078 263.686> 1157 227<541.219 897.393>
DStem2: 623 -32 741 -90 0.586397 0.810024<6.68052 191.508> 913.779 -429 1133.96 -429 0.207912 0.978148<376.221 1214.12>
AnchorPoint: "BelowBase" 1129 -453 basechar 0
LayerCount: 2
Fore
SplineSet
343 280 m 0xbb
 296 280 261 219 261 170 c 0
 261 138 274 110 306 110 c 0
 354 110 387 173 387 222 c 0
 387 253 374 280 343 280 c 0xbb
135 -277 m 0xbd
 135 -125 301 1 482 1 c 0xdd
 541 1 585 -11 623 -32 c 1
 741 119 l 1
 859 73 l 1
 741 -90 l 1
 748 -97 754 -108 758 -122 c 1
 815 -48 869 -10 891 -10 c 0
 921 -10 954 -27 992 -61 c 1
 1145 657 l 2
 1153 696 1157 731 1157 762 c 0
 1157 885 1094 949 969 949 c 0
 863 949 776 906 710 831 c 1
 776 795 816 739 830 663 c 1
 701 550 665 536 631 376 c 1
 615 303 l 2
 582 148 527 -10 306 -10 c 0
 178 -10 135 72 135 154 c 0xbb
 135 296 246 391 342 391 c 0
 372 391 394 382 408 363 c 1
 413 384 l 1
 442 523 477 565 602 671 c 1
 566 726 509 767 429 792 c 1
 479 912 695 1149 1011 1149 c 0
 1249 1149 1384 1028 1384 810 c 0
 1384 768 1378 722 1368 673 c 2
 1138 -410 l 1
 921 -410 l 1
 921 -400 l 2
 921 -286 886 -245 841 -245 c 0
 787 -245 704 -368 682 -403 c 1
 643 -294 624 -286 615 -276 c 1
 534 -368 454 -429 319 -429 c 0
 171 -429 135 -346 135 -277 c 0xbd
446 -152 m 0
 348 -152 296 -212 296 -252 c 0
 296 -272 314 -293 349 -293 c 0
 412 -293 491 -243 531 -173 c 1
 519 -159 491 -152 446 -152 c 0
EndSplineSet
EndChar

StartChar: uni0E10
Encoding: 3600 3600 139
Width: 1130
Flags: W
HStem: -541 106<109.481 243.985> -450 168<501.762 628.923> -346 112<113.421 276.635> -276 71<647.46 688.632> -106 72<652.222 744.944> -10 200<545.005 730.93> 260 113<319.3 405.761> 541 123<337.399 518.5> 864 200<943.532 1130.04> 949 200<561.111 881.183>
VStem: -23 131<-475.5 -359.649> 200 119<374.855 527.902> 395 224<121.5 366.084> 447 219<323.412 539.656> 558 87<-203.949 -110.316> 745 152<-202.782 -106.734> 800 233<389.516 697.5>
DStem2: 570.565 -541 791.212 -541 0.207912 0.978148<743.748 1113.61>
LayerCount: 2
Fore
SplineSet
401 541 m 0x0f34
 335 541 319 456 319 424 c 0
 319 390 335 373 365 373 c 0
 431 373 447 458 447 490 c 0
 447 524 431 541 401 541 c 0x0f34
200 393 m 0
 200 464 254 664 474 664 c 0
 563 664 666 629 666 499 c 0x0f74
 666 480 663 457 658 433 c 2
 622 263 l 2
 620 253 619 243 619 235 c 0x0f78
 619 205 634 190 666 190 c 0
 706 190 731 213 741 259 c 2
 798 529 l 2
 800 536 800 543 800 549 c 0
 800 572 790 590 769 603 c 1
 697 636 l 1
 596 672 428 707 195 742 c 1
 292 976 457 1149 750 1149 c 0x0f7480
 949 1149 953 1064 1125 1064 c 0
 1152 1064 1178 1067 1202 1072 c 1
 1120 872 l 1
 1099 867 1072 864 1044 864 c 0x0fb480
 906 864 855 949 697 949 c 0
 624 949 573 929 547 892 c 1
 846 832 1033 775 1033 620 c 0
 1033 605 1031 590 1028 573 c 2
 965 279 l 2
 924 86 811 -10 624 -10 c 0
 471 -10 395 56 395 187 c 0x0f7880
 395 228 403 268 407 289 c 1
 383 267 346 260 322 260 c 0
 267 262 200 303 200 393 c 0
-23 -440 m 0
 -23 -367 50 -235 230 -234 c 0xaf33
 284 -234 316 -243 347 -258 c 1
 368 -236 389 -217 407 -192 c 1
 517 -239 l 1
 460 -306 l 1
 466 -309 477 -319 493 -336 c 1
 524 -300 562 -282 605 -282 c 0
 637 -282 662 -294 679 -319 c 1
 689 -273 l 1
 661 -276 l 1
 602 -275 558 -240 558 -189 c 0
 558 -110 649 -34 739 -34 c 0
 867 -34 897 -87 897 -149 c 0
 897 -173 893 -199 888 -223 c 2
 822 -530 l 1
 639 -530 l 1
 630 -479 607 -450 569 -450 c 0x5f33
 527 -450 482 -493 448 -529 c 1
 432 -495 405 -458 368 -418 c 1
 304 -483 214 -541 114 -541 c 0x8f33
 49 -541 -23 -511 -23 -440 c 0
687 -205 m 0x1f33
 722 -205 745 -173 745 -144 c 0
 745 -122 731 -106 708 -106 c 0
 669 -106 645 -137 645 -169 c 0
 645 -192 662 -205 687 -205 c 0x1f33
220 -346 m 0xaf30
 159 -346 108 -374 108 -407 c 0
 108 -424 128 -435 146 -435 c 0
 214 -435 277 -360 277 -360 c 1
 266 -351 247 -346 220 -346 c 0xaf30
EndSplineSet
Substitution2: "'ccmp' Pali-Sanskrit Descender Removal" uni0E10.descless
Substitution2: "Thai Descender Removal Single Substitution" uni0E10.descless
EndChar

StartChar: uni0E11
Encoding: 3601 3601 140
Width: 1700
Flags: W
HStem: 0 21G<645 932.123 1323 1547.25> 457 129<371.5 546.531> 788 361<1451.01 1653>
VStem: 271 168<587.608 738.618> 567 135<602.34 752.794> 953 211<741.783 925.518>
DStem2: 946 380 919 0 0.548602 0.836084<0 621.765> 1323 0 1543 0 0.207912 0.978148<45.7406 775.41>
LayerCount: 2
Fore
SplineSet
484 586 m 0
 531 586 567 645 567 693 c 0
 567 725 551 754 519 754 c 0
 472 754 439 694 439 645 c 0
 439 614 452 586 484 586 c 0
702 724 m 0
 702 595 593 457 438 457 c 0
 305 457 271 553 271 637 c 0
 271 798 409 1054 659 1149 c 1
 795 1041 l 1
 962 1149 l 1
 1081 1114 1164 987 1164 846 c 0
 1164 821 1161 796 1156 771 c 1
 1053 688 997 623 987 575 c 2
 946 380 l 1
 1354 1003 l 2
 1432 1122 1530 1149 1591 1149 c 0
 1715 1149 1746 1065 1746 989 c 0
 1746 965 1743 942 1739 923 c 2
 1543 0 l 1
 1323 0 l 1
 1468 682 l 2
 1475 716 1481 742 1481 760 c 0
 1481 779 1475 788 1459 788 c 0
 1429 788 1412 750 1356 666 c 2
 919 0 l 1
 645 0 l 1
 767 575 l 2
 778 628 835 691 950 771 c 1
 952 780 953 790 953 800 c 0
 953 846 936 902 915 929 c 1
 749 821 l 1
 612 929 l 1
 583 897 564 869 562 862 c 1
 673 862 702 789 702 724 c 0
EndSplineSet
EndChar

StartChar: uni0E12
Encoding: 3602 3602 141
Width: 1850
Flags: W
HStem: -10 166<939.04 1009.39> 317 170<965.75 1036> 624 120<625.386 794.5> 1129 10G<693 767.138 1046.03 1185.5 1704.74 1929>
VStem: 506 100<455.604 609.837> 732 178<470.185 623.612> 814 125<157.454 294.565> 1108 227<551.227 874.622>
DStem2: 966.494 -10 1171.02 -10 0.207912 0.978148<164.686 220.41 490.712 782.104> 1464.59 -10 1684.87 -10 0.207912 0.978148<261.719 1174.71>
LayerCount: 2
Fore
SplineSet
506 488 m 0xfb
 506 626 607 744 757 744 c 0
 832 744 910 711 910 592 c 0xfd
 910 570 907 544 901 515 c 0
 836 206 568 45 464 0 c 1
 224 0 l 1
 247 108 l 2
 271 223 251 512 292 706 c 0
 367 1060 643 1138 743 1149 c 1
 883 1033 l 1
 1080 1149 l 1
 1291 1099 1335 947 1335 825 c 0
 1335 762 1323 707 1317 677 c 2
 1260 410 l 1
 1519 246 l 1
 1709 1139 l 1
 1929 1139 l 1
 1687 0 l 1
 1468 0 l 1
 1208 164 l 1
 1187 65 1088 -10 990 -10 c 0
 872 -10 814 65 814 174 c 0
 814 350 943 469 1057 487 c 1
 1094 664 l 2
 1101 697 1108 729 1108 761 c 0
 1108 812 1090 861 1029 909 c 1
 832 793 l 1
 692 909 l 1
 558 855 480 733 480 464 c 0
 480 398 484 322 493 234 c 1
 551 256 611 318 629 349 c 1
 558 349 506 398 506 488 c 0xfb
1036 317 m 1
 978 317 939 243 939 187 c 0xfb
 939 166 947 156 962 156 c 0
 994 156 1007 179 1016 222 c 2
 1036 317 l 1
651 455 m 0
 698 455 732 516 732 565 c 0xfd
 732 596 719 624 687 624 c 0
 640 624 606 563 606 514 c 0
 606 483 620 455 651 455 c 0
EndSplineSet
EndChar

StartChar: uni0E13
Encoding: 3603 3603 142
Width: 1900
Flags: W
HStem: -10 166<1557.5 1706.19> -10 120<370.924 551.121> 280 111<496.97 599> 949 200<671.241 972.779>
VStem: 246 201<111.55 266.136> 572 130<124.123 278.63> 1024 227<541.82 898.875> 1714 164<158.786 315.724>
DStem2: 869.874 -10 1089.59 -10 0.207912 0.978148<307.4 786.727>
AnchorPoint: "AboveBase" 1872 1227 basechar 0
LayerCount: 2
Fore
SplineSet
702 255 m 0xbf
 702 150 615 -10 440 -10 c 0x7f
 293 -10 246 57 246 165 c 0
 246 205 252 252 263 303 c 2
 277 366 l 1
 310 523 340 560 470 671 c 1
 434 726 377 767 297 792 c 1
 347 912 563 1149 879 1149 c 0
 1111 1149 1251 1033 1251 812 c 0
 1251 770 1246 723 1235 673 c 2
 1144 246 l 1
 1473 410 l 1
 1628 1139 l 1
 1848 1139 l 1
 1710 487 l 1
 1821 475 1878 399 1878 302 c 0
 1878 221 1819 -10 1584 -10 c 0
 1481 -10 1417 44 1417 126 c 0
 1417 138 1418 151 1421 164 c 1
 1092 0 l 1
 872 0 l 1
 1012 657 l 2
 1020 696 1024 732 1024 763 c 0
 1024 885 962 949 836 949 c 0
 730 949 644 906 578 831 c 1
 644 795 684 739 698 663 c 1
 559 541 532 534 496 363 c 1
 517 382 542 391 573 391 c 0
 625 391 702 355 702 255 c 0xbf
1664 156 m 0xbf
 1704 156 1714 226 1714 247 c 0
 1714 287 1694 317 1658 317 c 1
 1638 222 l 2
 1635 208 1634 197 1634 188 c 0
 1634 162 1646 156 1664 156 c 0xbf
491 110 m 0x7f
 540 110 572 173 572 222 c 0
 572 253 559 280 528 280 c 0
 480 280 447 216 447 174 c 0
 447 141 462 110 491 110 c 0x7f
EndSplineSet
EndChar

StartChar: uni0E14
Encoding: 3604 3604 143
Width: 1330
Flags: W
HStem: 0 21G<222 614 951 1175.25> 624 120<637.298 793> 949 200<692.985 1012.69>
VStem: 504 113<454.769 609.356> 743 166<466.943 623.612> 1100 228<615.182 868.203>
DStem2: 951 0 1171 0 0.207912 0.978148<45.7406 749.885>
LayerCount: 2
Fore
SplineSet
698 624 m 0
 651 624 617 562 617 513 c 0
 617 482 631 454 662 454 c 0
 709 454 743 515 743 564 c 0
 743 596 730 624 698 624 c 0
504 487 m 0
 504 625 599 744 755 744 c 0
 831 744 909 711 909 592 c 0
 909 424 766 133 462 0 c 1
 222 0 l 1
 245 108 l 2
 269 221 244 491 285 680 c 0
 351 991 600 1149 896 1149 c 0
 1149 1149 1328 1031 1328 795 c 0
 1328 759 1324 719 1315 677 c 2
 1171 0 l 1
 951 0 l 1
 1092 664 l 2
 1098 690 1100 714 1100 736 c 0
 1100 893 970 949 858 949 c 0
 710 949 536 848 489 627 c 0
 481 587 477 531 477 468 c 0
 477 393 482 309 491 234 c 1
 549 256 609 318 627 349 c 1
 555 349 504 398 504 487 c 0
EndSplineSet
EndChar

StartChar: uni0E15
Encoding: 3605 3605 144
Width: 1330
Flags: W
HStem: 0 21G<222 615 951 1175.25> 624 120<635.571 793> 1129 20G<691 765.138 1044.03 1183.5>
VStem: 504 112<454.29 608.944> 742 166<467.991 623.984> 1106 227<549.969 874.561>
DStem2: 951 0 1171 0 0.207912 0.978148<45.7406 774.151>
LayerCount: 2
Fore
SplineSet
698 624 m 0
 651 624 616 562 616 513 c 0
 616 482 630 454 662 454 c 0
 709 454 742 516 742 565 c 0
 742 596 729 624 698 624 c 0
504 486 m 0
 504 627 605 744 755 744 c 0
 831 744 908 711 908 593 c 0
 908 427 768 135 462 0 c 1
 222 0 l 1
 245 108 l 2
 269 223 249 512 290 706 c 0
 365 1060 641 1138 741 1149 c 5
 881 1033 l 5
 1078 1149 l 1
 1289 1099 1333 947 1333 825 c 0
 1333 762 1321 707 1315 677 c 2
 1171 0 l 1
 951 0 l 1
 1092 664 l 2
 1099 697 1106 728 1106 760 c 0
 1106 811 1088 861 1027 909 c 1
 830 793 l 1
 690 909 l 1
 555 855 478 733 478 462 c 0
 478 397 482 321 491 234 c 1
 549 256 609 318 627 349 c 1
 555 349 504 397 504 486 c 0
EndSplineSet
EndChar

StartChar: uni0E16
Encoding: 3606 3606 145
Width: 1240
Flags: W
HStem: -10 120<359.924 540.121> 280 111<485.97 588> 949 200<660.421 963.24>
VStem: 235 201<111.55 266.136> 561 130<124.123 278.63> 1014 227<540.188 897.779>
DStem2: 859.874 -10 1079.87 -10 0.207912 0.978148<55.964 786.727>
LayerCount: 2
Fore
SplineSet
691 255 m 0
 691 150 604 -10 429 -10 c 0
 282 -10 235 57 235 165 c 0
 235 205 241 252 252 303 c 2
 266 366 l 1
 299 523 329 560 459 671 c 1
 421 726 366 767 286 792 c 1
 336 912 552 1149 868 1149 c 0
 1106 1149 1241 1028 1241 811 c 0
 1241 769 1235 723 1225 673 c 2
 1082 0 l 1
 862 0 l 1
 1002 657 l 2
 1010 696 1014 732 1014 763 c 0
 1014 885 952 949 826 949 c 0
 720 949 633 906 567 831 c 1
 633 795 671 739 687 663 c 1
 548 541 521 534 485 363 c 1
 506 382 531 391 562 391 c 0
 614 391 691 355 691 255 c 0
480 110 m 0
 529 110 561 173 561 222 c 0
 561 253 548 280 517 280 c 0
 469 280 436 216 436 174 c 0
 436 141 451 110 480 110 c 0
EndSplineSet
EndChar

StartChar: uni0E17
Encoding: 3607 3607 146
Width: 1350
Flags: W
HStem: 0 21G<318 605.176 996 1220.25> 752 105<405.5 501.309> 788 361<1124.23 1324> 1025 124<452.119 612>
VStem: 312 121<857.656 1012.37> 561 175<872.66 1022.65>
DStem2: 317.67 0 538.229 0 0.207912 0.978148<434.346 775.956> 619 380 592 0 0.550158 0.835061<0 622.646> 996 0 1216 0 0.207912 0.978148<45.7406 770.943>
LayerCount: 2
Fore
SplineSet
477 857 m 0xdc
 524 857 561 916 561 964 c 0
 561 996 545 1025 513 1025 c 0
 466 1025 433 964 433 915 c 0
 433 884 446 857 477 857 c 0xdc
312 875 m 0
 312 978 397 1149 578 1149 c 0xdc
 646 1149 736 1119 736 978 c 0
 736 950 733 918 725 881 c 2
 619 380 l 1
 1027 1003 l 2
 1105 1122 1203 1149 1264 1149 c 0
 1384 1149 1418 1060 1418 981 c 0
 1418 961 1416 941 1412 923 c 2
 1216 0 l 1
 996 0 l 1
 1138 669 l 2
 1146 704 1152 735 1152 756 c 0
 1152 776 1146 788 1132 788 c 0xac
 1121 788 1106 780 1096 765 c 2
 592 0 l 1
 318 0 l 1
 479 759 l 1
 471 754 454 752 428 752 c 0
 383 752 312 782 312 875 c 0
EndSplineSet
EndChar

StartChar: uni0E18
Encoding: 3608 3608 147
Width: 1250
Flags: W
HStem: 0 200<513 847> 864 200<1061.96 1247.71> 949 200<679.65 998.664>
VStem: 918 231<379.094 686.5>
DStem2: 250 0 470.489 0 0.207912 0.978148<250.31 664.488> 804.489 0 1024 0 0.207912 0.978148<204.468 560.328>
LayerCount: 2
Fore
SplineSet
652 882 m 1xb0
 953 822 1149 765 1149 608 c 0
 1149 594 1147 579 1144 563 c 2
 1024 0 l 1
 250 0 l 1
 388 650 l 1
 608 650 l 1
 513 200 l 1
 847 200 l 1
 916 529 l 2
 918 536 918 543 918 549 c 0
 918 572 908 590 887 603 c 1
 815 636 l 1
 716 671 548 707 313 742 c 1
 410 976 576 1149 868 1149 c 0xb0
 1067 1149 1071 1064 1243 1064 c 0
 1268 1064 1294 1067 1320 1072 c 1
 1238 872 l 1
 1220 868 1201 864 1178 864 c 0xd0
 1010 864 979 949 815 949 c 0
 742 949 679 916 652 882 c 1xb0
EndSplineSet
EndChar

StartChar: uni0E19
Encoding: 3609 3609 148
Width: 1400
Flags: W
HStem: -10 166<1089.5 1237.92> 748 109<437.034 523.873> 1025 124<453.358 633.791>
VStem: 320 116<858.264 1011.01> 564 219<814.449 1022.88> 1247 155<157.746 315.291>
DStem2: 357.874 -10 577.586 -10 0.207912 0.978148<307.4 803.571>
AnchorPoint: "AboveBase" 1405 1227 basechar 0
LayerCount: 2
Fore
SplineSet
480 857 m 0
 527 857 564 916 564 964 c 0
 564 996 548 1025 516 1025 c 0
 469 1025 436 964 436 915 c 0
 436 884 449 857 480 857 c 0
320 883 m 0
 320 1043 458 1149 575 1149 c 0
 705 1149 783 1090 783 983 c 0
 783 965 781 947 777 927 c 2
 632 246 l 1
 1006 410 l 1
 1161 1139 l 1
 1381 1139 l 1
 1243 487 l 1
 1376 473 1402 378 1402 308 c 0
 1402 198 1329 -10 1117 -10 c 0
 1012 -10 951 48 951 127 c 0
 951 139 952 151 955 164 c 1
 580 0 l 1
 360 0 l 1
 525 776 l 1
 502 757 474 748 441 748 c 0
 357 748 320 810 320 883 c 0
1197 156 m 0
 1237 156 1247 226 1247 247 c 0
 1247 287 1227 317 1191 317 c 1
 1171 222 l 2
 1168 208 1167 197 1167 188 c 0
 1167 162 1179 156 1197 156 c 0
EndSplineSet
EndChar

StartChar: uni0E1A
Encoding: 3610 3610 149
Width: 1300
Flags: W
HStem: 0 200<590 976> 749 109<410.48 487.062> 1026 125<428.317 613.791>
VStem: 289 119<858.446 1011.49> 536 211<877.08 1024.38>
DStem2: 327 0 547.489 0 0.207912 0.978148<250.31 775.888> 933.489 0 1153 0 0.207912 0.978148<204.468 1164.32>
LayerCount: 2
Fore
SplineSet
452 858 m 0
 499 858 536 917 536 965 c 0
 536 997 520 1026 488 1026 c 0
 441 1026 408 965 408 916 c 0
 408 885 421 858 452 858 c 0
289 885 m 0
 289 990 374 1151 556 1151 c 0
 693 1151 747 1092 747 985 c 0
 747 954 742 919 734 881 c 2
 590 200 l 1
 976 200 l 1
 1175 1139 l 1
 1395 1139 l 1
 1153 0 l 1
 327 0 l 1
 488 759 l 1
 473 754 454 749 432 749 c 0
 344 749 289 802 289 885 c 0
EndSplineSet
EndChar

StartChar: uni0E1B
Encoding: 3611 3611 150
Width: 1300
Flags: W
HStem: 0 200<590 976> 749 109<410.48 487.062> 1026 125<428.317 624.5> 1460 20G<1243.75 1468>
VStem: 289 119<858.446 1011.49> 536 211<877.08 1024.38>
DStem2: 327 0 547.489 0 0.207912 0.978148<250.31 775.888> 933.489 0 1153 0 0.207912 0.978148<204.468 1513.05>
AnchorPoint: "AboveBase" 1122 1227 basechar 0
LayerCount: 2
Fore
SplineSet
452 858 m 0
 499 858 536 917 536 965 c 0
 536 997 520 1026 488 1026 c 0
 441 1026 408 965 408 916 c 0
 408 885 421 858 452 858 c 0
289 885 m 0
 289 990 374 1151 556 1151 c 0
 693 1151 747 1092 747 985 c 0
 747 954 742 919 734 881 c 2
 590 200 l 1
 976 200 l 1
 1248 1480 l 1
 1468 1480 l 1
 1153 0 l 1
 327 0 l 1
 488 759 l 1
 473 754 454 749 432 749 c 0
 344 749 289 802 289 885 c 0
EndSplineSet
EndChar

StartChar: uni0E1C
Encoding: 3612 3612 151
Width: 1200
Flags: W
HStem: 0 21G<133 371.192 814.638 1047.25> 749 111<546.223 653.447> 1028 123<564.882 669.972>
VStem: 672 116<874.37 1026.78>
DStem2: 133 0 352.856 0 0.207912 0.978148<383.083 821.628> 822.856 0 1043 0 0.207912 0.978148<337.372 1164.45>
LayerCount: 2
Fore
SplineSet
589 860 m 0
 635 860 672 918 672 966 c 0
 672 999 658 1028 625 1028 c 0
 577 1028 545 966 545 917 c 0
 545 887 558 860 589 860 c 0
788 995 m 0
 788 862 700 749 567 749 c 0
 534 749 519 757 514 759 c 1
 423 330 l 1
 725 698 l 1
 767 698 l 1
 893 330 l 1
 1065 1139 l 1
 1285 1139 l 1
 1043 0 l 1
 823 0 l 1
 675 354 l 1
 353 0 l 1
 133 0 l 1
 310 835 l 2
 351 1026 409 1151 601 1151 c 0
 704 1151 788 1111 788 995 c 0
EndSplineSet
EndChar

StartChar: uni0E1D
Encoding: 3613 3613 152
Width: 1200
Flags: W
HStem: 0 21G<133 371.192 814.638 1047.26> 749 111<546.223 653.447> 1028 123<564.882 669.972> 1460 20G<1133.74 1358>
VStem: 672 116<874.37 1026.78>
DStem2: 133 0 352.856 0 0.207912 0.978148<383.083 821.628> 822.856 0 1043 0 0.207912 0.978148<337.372 1513.18>
AnchorPoint: "AboveBase" 1012 1227 basechar 0
LayerCount: 2
Fore
SplineSet
589 860 m 0
 635 860 672 918 672 966 c 0
 672 999 658 1028 625 1028 c 0
 577 1028 545 966 545 917 c 0
 545 887 558 860 589 860 c 0
788 995 m 0
 788 862 700 749 567 749 c 0
 534 749 519 757 514 759 c 1
 423 330 l 1
 725 698 l 1
 767 698 l 1
 893 330 l 1
 1138 1480 l 1
 1358 1480 l 1
 1043 0 l 1
 823 0 l 1
 675 354 l 1
 353 0 l 1
 133 0 l 1
 310 835 l 2
 351 1026 409 1151 601 1151 c 0
 704 1151 788 1111 788 995 c 0
EndSplineSet
EndChar

StartChar: uni0E1E
Encoding: 3614 3614 153
Width: 1350
Flags: W
HStem: 0 21G<297 529.2 983.533 1211.25> 749 111<380.788 457.26> 1028 123<398.819 588.745>
VStem: 259 120<860.871 1014.79> 506 214<875.982 1027.3>
DStem2: 986.722 0 1207 0 0.207912 0.978148<511.17 1164.48>
LayerCount: 2
Fore
SplineSet
423 860 m 0
 469 860 506 918 506 966 c 0
 506 999 492 1028 459 1028 c 0
 411 1028 379 966 379 917 c 0
 379 887 392 860 423 860 c 0
259 884 m 0
 259 989 342 1151 526 1151 c 0
 673 1151 720 1082 720 989 c 0
 720 964 716 937 710 909 c 2
 623 500 l 1
 942 1039 l 1
 999 1039 l 1
 1093 500 l 1
 1229 1139 l 1
 1449 1139 l 1
 1207 0 l 1
 987 0 l 1
 883 600 l 1
 517 0 l 1
 297 0 l 1
 458 759 l 1
 443 754 424 749 402 749 c 0
 313 749 259 802 259 884 c 0
EndSplineSet
EndChar

StartChar: uni0E1F
Encoding: 3615 3615 154
Width: 1350
Flags: W
HStem: 0 21G<297 529.2 983.533 1211.26> 749 111<380.788 457.26> 1028 123<398.819 599.5> 1460 20G<1297.73 1522>
VStem: 259 120<860.871 1014.79> 506 214<875.982 1027.3>
DStem2: 986.722 0 1207 0 0.207912 0.978148<511.17 1513.21>
AnchorPoint: "AboveBase" 1176 1227 basechar 0
LayerCount: 2
Fore
SplineSet
423 860 m 0
 469 860 506 918 506 966 c 0
 506 999 492 1028 459 1028 c 0
 411 1028 379 966 379 917 c 0
 379 887 392 860 423 860 c 0
259 884 m 0
 259 989 342 1151 526 1151 c 0
 673 1151 720 1082 720 989 c 0
 720 964 716 937 710 909 c 2
 623 500 l 1
 942 1039 l 1
 999 1039 l 1
 1093 500 l 1
 1302 1480 l 1
 1522 1480 l 1
 1207 0 l 1
 987 0 l 1
 883 600 l 1
 517 0 l 1
 297 0 l 1
 458 759 l 1
 443 754 424 749 402 749 c 0
 313 749 259 802 259 884 c 0
EndSplineSet
EndChar

StartChar: uni0E20
Encoding: 3616 3616 155
Width: 1350
Flags: W
HStem: -10 120<248.707 352.623> 280 111<267.157 372.03> 949 200<790.421 1093.24>
VStem: 123 124<110.311 265.616> 1144 227<540.188 897.779>
DStem2: 989.874 -10 1209.87 -10 0.207912 0.978148<55.964 786.727>
LayerCount: 2
Fore
SplineSet
329 280 m 0
 282 280 247 219 247 170 c 0
 247 138 260 110 292 110 c 0
 340 110 373 173 373 222 c 0
 373 253 360 280 329 280 c 0
123 156 m 0
 123 280 219 391 329 391 c 0
 359 391 381 382 395 363 c 1
 400 384 l 1
 429 523 464 565 589 671 c 1
 553 726 496 767 416 792 c 1
 466 912 682 1149 998 1149 c 0
 1236 1149 1371 1028 1371 811 c 0
 1371 769 1365 723 1355 673 c 2
 1212 0 l 1
 992 0 l 1
 1132 657 l 2
 1140 696 1144 732 1144 763 c 0
 1144 885 1082 949 956 949 c 0
 850 949 763 906 697 831 c 1
 763 795 803 739 817 663 c 1
 689 551 652 536 618 376 c 1
 602 303 l 2
 569 148 514 -10 293 -10 c 0
 166 -10 123 75 123 156 c 0
EndSplineSet
EndChar

StartChar: uni0E21
Encoding: 3617 3617 156
Width: 1350
Flags: W
HStem: -10 166<359.232 429.525> 317 170<385.75 456> 748 110<420.091 537.844> 1028 121<469.931 647.514>
VStem: 204 155<156.616 292.585> 333 118<858.808 1012.9> 577 220<874.884 1026.62>
DStem2: 386.494 -10 592.015 -10 0.207912 0.978148<164.028 220.617 494.587 800.532> 930.586 -10 1150.87 -10 0.207912 0.978148<261.719 1174.71>
LayerCount: 2
Fore
SplineSet
533 1028 m 0xf6
 486 1028 451 967 451 918 c 0
 451 886 464 858 496 858 c 0
 544 858 577 921 577 970 c 0
 577 1001 564 1028 533 1028 c 0xf6
333 879 m 0
 333 1025 456 1149 589 1149 c 0
 719 1149 797 1090 797 983 c 0
 797 965 795 947 791 927 c 2
 681 410 l 1
 985 246 l 1
 1175 1139 l 1
 1395 1139 l 1
 1153 0 l 1
 933 0 l 1
 629 164 l 1
 607 63 507 -10 392 -10 c 0
 291 -10 204 41 204 169 c 0xfa
 204 329 315 471 478 487 c 1
 539 776 l 1
 516 757 488 748 455 748 c 0
 388 748 333 793 333 879 c 0
456 317 m 1
 398 317 359 243 359 187 c 0
 359 166 367 156 382 156 c 0
 406 156 424 167 436 222 c 2
 456 317 l 1
EndSplineSet
EndChar

StartChar: uni0E22
Encoding: 3618 3618 157
Width: 1200
Flags: W
HStem: 0 200<464 850> 495 133<604.708 729> 752 106<587.215 691.95> 1028 121<604.181 711.104>
VStem: 344 242<645.58 755.216> 712 136<873.241 1027.9>
DStem2: 807.489 0 1027 0 0.207912 0.978148<204.468 1164.32>
LayerCount: 2
Fore
SplineSet
668 1028 m 0
 621 1028 586 967 586 918 c 0
 586 886 599 858 631 858 c 0
 679 858 712 921 712 970 c 0
 712 1001 699 1028 668 1028 c 0
848 984 m 0
 848 860 749 752 623 752 c 0
 610 752 596 753 582 756 c 1
 581 751 580 745 580 739 c 0
 580 691 619 628 685 628 c 2
 757 628 l 1
 729 495 l 1
 657 495 l 2
 571 495 513 432 495 347 c 2
 464 200 l 1
 850 200 l 1
 1049 1139 l 1
 1269 1139 l 1
 1027 0 l 1
 201 0 l 1
 288 410 l 2
 298 457 356 520 429 562 c 1
 371 597 344 634 344 707 c 0
 344 740 350 780 361 831 c 0
 388 960 405 1024 493 1093 c 0
 552 1138 617 1149 643 1149 c 0
 807 1149 848 1061 848 984 c 0
EndSplineSet
EndChar

StartChar: uni0E23
Encoding: 3619 3619 158
Width: 1100
Flags: W
HStem: -10 120<644.388 746.801> 280 121<660.392 766.702> 864 200<1010.97 1196.71> 949 200<620.666 947.386>
VStem: 524 118<111.646 263.879> 838 230<395.938 618.05>
LayerCount: 2
Fore
SplineSet
724 280 m 0xcc
 677 280 642 219 642 170 c 0
 642 138 655 110 687 110 c 0
 735 110 768 173 768 222 c 0
 768 253 755 280 724 280 c 0xcc
524 148 m 0
 524 285 629 401 755 401 c 0
 775 401 797 400 808 393 c 1
 836 529 l 2
 837 536 838 542 838 548 c 0
 838 664 585 683 262 742 c 1
 359 976 525 1149 817 1149 c 0xdc
 1016 1149 1021 1064 1192 1064 c 0
 1217 1064 1243 1067 1269 1072 c 1
 1187 872 l 1
 1169 868 1149 864 1127 864 c 0xec
 959 864 926 949 764 949 c 0xdc
 691 949 618 919 589 872 c 1
 851 819 1068 785 1068 609 c 0
 1068 592 1066 573 1062 553 c 2
 1008 303 l 2
 968 114 914 -10 736 -10 c 0
 561 -10 524 75 524 148 c 0
EndSplineSet
EndChar

StartChar: uni0E24
Encoding: 3620 3620 159
Width: 1240
Flags: W
HStem: -10 120<355.5 540.121> 280 111<485.97 588> 949 200<660.699 963.24>
VStem: 235 201<111.55 266.136> 561 130<124.123 278.63> 1014 227<542.477 897.779>
DStem2: 781 -380 1001 -380 0.207912 0.978148<45.7406 1165.04>
LayerCount: 2
Fore
SplineSet
691 255 m 0
 691 150 604 -10 429 -10 c 0
 282 -10 235 57 235 165 c 0
 235 205 241 252 252 303 c 2
 266 366 l 1
 299 523 329 560 459 671 c 1
 421 726 366 767 286 792 c 1
 337 912 552 1149 868 1149 c 0
 1106 1149 1241 1028 1241 811 c 0
 1241 769 1235 723 1225 673 c 2
 1001 -380 l 1
 781 -380 l 1
 1002 657 l 2
 1010 696 1014 732 1014 763 c 0
 1014 885 952 949 826 949 c 0
 720 949 634 906 567 831 c 1
 633 795 671 739 687 663 c 1
 548 541 521 534 485 363 c 1
 506 382 531 391 562 391 c 0
 614 391 691 355 691 255 c 0
480 110 m 0
 529 110 561 173 561 222 c 0
 561 253 548 280 517 280 c 0
 469 280 436 216 436 174 c 0
 436 141 451 110 480 110 c 0
EndSplineSet
EndChar

StartChar: uni0E25
Encoding: 3621 3621 160
Width: 1250
Flags: W
HStem: -10 120<361.424 553.996> 280 111<487.609 572.006> 540 200<551.956 864.418> 949 200<591.301 924.103>
VStem: 235 213<110.993 266.781> 573 121<124.587 279.413> 991 227<663.656 885.449>
DStem2: 830.874 -10 1050.87 -10 0.207912 0.978148<55.964 399.513 682.952 797.421>
LayerCount: 2
Fore
SplineSet
492 110 m 0
 541 110 573 173 573 222 c 0
 573 253 560 280 529 280 c 0
 481 280 448 216 448 174 c 0
 448 141 463 110 492 110 c 0
694 257 m 0
 694 151 609 -10 431 -10 c 0
 273 -10 235 70 235 162 c 0
 235 209 245 259 254 303 c 2
 283 438 l 2
 325 634 509 740 723 740 c 0
 874 740 954 694 973 658 c 1
 985 714 l 2
 989 735 991 755 991 772 c 0
 991 908 873 949 772 949 c 0
 636 949 507 875 431 775 c 1
 323 929 l 1
 437 1071 654 1149 811 1149 c 0
 1032 1149 1218 1065 1218 831 c 0
 1218 795 1214 756 1205 713 c 2
 1053 0 l 1
 833 0 l 1
 893 283 l 2
 901 322 905 356 905 384 c 0
 905 523 810 540 685 540 c 0
 620 540 519 512 496 403 c 1
 487 363 l 1
 508 382 533 391 564 391 c 0
 620 391 694 355 694 257 c 0
EndSplineSet
EndChar

StartChar: uni0E26
Encoding: 3622 3622 161
Width: 1350
Flags: W
HStem: -10 120<248.707 352.623> 280 111<267.157 372.03> 949 200<790.977 1093.24>
VStem: 123 124<110.311 265.616> 1144 227<542.477 897.779>
DStem2: 911 -380 1131 -380 0.207912 0.978148<45.7406 1165.04>
LayerCount: 2
Fore
SplineSet
329 280 m 0
 282 280 247 219 247 170 c 0
 247 138 260 110 292 110 c 0
 340 110 373 173 373 222 c 0
 373 253 360 280 329 280 c 0
123 156 m 0
 123 280 219 391 329 391 c 0
 359 391 381 382 395 363 c 1
 400 384 l 1
 429 523 464 565 589 671 c 1
 553 726 496 767 416 792 c 1
 468 912 682 1149 998 1149 c 0
 1236 1149 1371 1028 1371 811 c 0
 1371 769 1365 723 1355 673 c 2
 1131 -380 l 1
 911 -380 l 1
 1132 657 l 2
 1140 696 1144 732 1144 763 c 0
 1144 885 1082 949 956 949 c 0
 850 949 765 906 697 831 c 1
 763 795 803 739 817 663 c 1
 689 551 652 536 618 376 c 1
 602 303 l 2
 569 148 514 -10 293 -10 c 0
 166 -10 123 75 123 156 c 0
EndSplineSet
EndChar

StartChar: uni0E27
Encoding: 3623 3623 162
Width: 1150
Flags: W
HStem: -11 121<733.049 833.135> 280 115<749.877 854.31> 949 200<529.596 898.425>
VStem: 616 114<111.529 264.29> 970 227<566.43 883.461>
DStem2: 809.528 -11 1029.26 -11 0.207912 0.978148<396.668 796.516>
LayerCount: 2
Fore
SplineSet
812 280 m 0
 765 280 730 219 730 170 c 0
 730 138 743 110 775 110 c 0
 823 110 856 173 856 222 c 0
 856 253 843 280 812 280 c 0
616 154 m 0
 616 297 725 395 818 395 c 0
 880 395 890 379 892 377 c 1
 964 714 l 2
 968 734 970 753 970 770 c 0
 970 907 842 949 714 949 c 0
 535 949 414 835 373 775 c 1
 265 929 l 1
 429 1078 559 1149 754 1149 c 0
 978 1149 1197 1079 1197 828 c 0
 1197 794 1193 756 1184 714 c 2
 1096 303 l 2
 1063 148 1020 -11 799 -11 c 0
 684 -11 616 51 616 154 c 0
EndSplineSet
EndChar

StartChar: uni0E28
Encoding: 3624 3624 163
Width: 1300
Flags: W
HStem: 0 21G<186 426 914 1138.24> 305 111<691.424 813.688> 574 142<707.605 830.321> 949 200<644.618 974.203>
VStem: 833 125<433.54 571.518> 1063 228<529.031 864.683>
DStem2: 914 0 1134 0 0.207912 0.978148<45.7406 747.974>
LayerCount: 2
Fore
SplineSet
744 416 m 0
 789 416 833 465 833 513 c 0
 833 546 812 574 778 574 c 0
 734 574 689 525 689 478 c 0
 689 445 710 416 744 416 c 0
958 550 m 0
 958 432 830 305 700 305 c 0
 655 305 620 325 618 338 c 1
 581 304 433 52 419 0 c 1
 186 0 l 1
 209 108 l 2
 240 252 206 485 247 676 c 0
 327 1052 688 1149 861 1149 c 0
 994 1149 1081 1119 1164 1061 c 1
 1219 1094 1271 1148 1322 1224 c 1
 1540 1224 l 1
 1479 1108 1387 1012 1268 937 c 1
 1283 902 1291 858 1291 807 c 0
 1291 761 1285 709 1272 651 c 2
 1134 0 l 1
 914 0 l 1
 1055 664 l 2
 1060 689 1063 713 1063 734 c 0
 1063 894 923 949 815 949 c 0
 713 949 506 890 455 647 c 0
 438 567 438 434 431 384 c 1
 536 592 658 716 800 716 c 0
 893 716 958 636 958 550 c 0
EndSplineSet
EndChar

StartChar: uni0E29
Encoding: 3625 3625 164
Width: 1350
Flags: W
HStem: 0 200<559 945> 417 190<842.752 931.617> 697 87<844.394 930.798> 749 109<379.48 456.062> 1026 125<397.317 582.791>
VStem: 258 119<858.446 1011.49> 505 211<877.08 1024.38> 734 107<528.5 696.037> 932 95<607.937 696.542> 1325 133<668.369 771>
DStem2: 296 0 516.489 0 0.207912 0.978148<250.31 775.888> 902.489 0 1122 0 0.207912 0.978148<204.468 430.203 701.886 1164.32>
AnchorPoint: "AboveBase" 1388 1227 basechar 0
LayerCount: 2
Fore
SplineSet
421 858 m 0xdfc0
 468 858 505 917 505 965 c 0
 505 997 489 1026 457 1026 c 0
 410 1026 377 965 377 916 c 0
 377 885 390 858 421 858 c 0xdfc0
258 885 m 0
 258 990 343 1151 525 1151 c 0
 662 1151 716 1092 716 985 c 0
 716 954 711 919 703 881 c 2
 559 200 l 1
 945 200 l 1
 991 421 l 1
 978 418 954 417 929 417 c 0
 831 417 734 475 734 582 c 0
 734 696 822 784 912 784 c 0xefc0
 976 784 1027 760 1027 693 c 0
 1027 622 994 594 969 575 c 1
 971 568 982 564 1003 564 c 0
 1010 564 1017 564 1022 566 c 1
 1144 1139 l 1
 1364 1139 l 1
 1258 642 l 1
 1290 668 1312 711 1325 771 c 1
 1458 771 l 1
 1423 606 1359 528 1220 463 c 1
 1122 0 l 1
 296 0 l 1
 457 759 l 1
 442 754 423 749 401 749 c 0
 313 749 258 802 258 885 c 0
896 697 m 0
 863 697 841 670 841 640 c 0
 841 620 854 607 877 607 c 0
 916 607 932 644 932 653 c 0
 932 662 922 697 896 697 c 0
EndSplineSet
EndChar

StartChar: uni0E2A
Encoding: 3626 3626 165
Width: 1250
Flags: W
HStem: -10 120<361.424 553.996> 280 111<487.609 572.006> 540 200<551.956 853.576> 949 200<597.96 931.801>
VStem: 235 213<110.993 266.781> 573 121<124.587 279.413> 992 228<663.656 889.834>
DStem2: 830.874 -10 1050.87 -10 0.207912 0.978148<55.964 381.963 682.952 799.541>
LayerCount: 2
Fore
SplineSet
492 110 m 0
 541 110 573 173 573 222 c 0
 573 253 560 280 529 280 c 0
 481 280 448 216 448 174 c 0
 448 141 463 110 492 110 c 0
694 257 m 0
 694 151 609 -10 431 -10 c 0
 273 -10 235 70 235 162 c 0
 235 209 245 259 254 303 c 2
 283 438 l 2
 325 634 509 740 723 740 c 0
 874 740 954 694 973 658 c 1
 985 714 l 2
 990 736 992 756 992 774 c 0
 992 910 873 949 772 949 c 0
 636 949 505 865 431 775 c 1
 323 929 l 1
 437 1071 654 1149 811 1149 c 0
 946 1149 1045 1119 1105 1059 c 1
 1164 1094 1215 1144 1259 1209 c 1
 1527 1209 l 1
 1508 1119 1326 980 1214 915 c 1
 1218 894 1220 871 1220 846 c 0
 1220 807 1215 763 1205 713 c 2
 1053 0 l 1
 833 0 l 1
 889 263 l 2
 897 303 901 337 901 367 c 0
 901 510 809 540 685 540 c 0
 620 540 519 512 496 403 c 1
 487 363 l 1
 508 382 533 391 564 391 c 0
 620 391 694 355 694 257 c 0
EndSplineSet
EndChar

StartChar: uni0E2B
Encoding: 3627 3627 166
Width: 1350
Flags: W
HStem: 0 21G<332 673 978 1202.26> 745 112<370.986 491.852> 1025 124<427.894 628 1132.89 1248.66>
VStem: 291 118<857.461 1011.19> 537 216<875.637 1024.72> 962 146<863.167 999.596> 1095 236<492.656 667.5> 1253 147<874.879 1010.74>
DStem2: 331.67 0 552.166 0 0.207912 0.978148<439.445 775.956> 978 0 1198 0 0.207912 0.978148<45.7406 576.567>
LayerCount: 2
Fore
SplineSet
453 857 m 0xf8
 500 857 537 916 537 964 c 0
 537 996 521 1025 489 1025 c 0
 442 1025 409 964 409 915 c 0
 409 884 422 857 453 857 c 0xf8
291 879 m 0
 291 1021 401 1149 567 1149 c 0
 689 1149 753 1064 753 968 c 0
 753 953 751 937 748 921 c 2
 634 385 l 1
 730 510 l 1
 851 654 944 732 1004 776 c 1
 976 813 962 854 962 898 c 0
 962 1044 1097 1149 1223 1149 c 0
 1331 1149 1400 1088 1400 993 c 0xfd
 1400 962 1388 832 1269 764 c 1
 1306 741 1331 693 1331 642 c 0
 1331 631 1330 621 1328 610 c 2
 1198 0 l 1
 978 0 l 1
 1092 538 l 2
 1094 548 1095 556 1095 565 c 0xfa
 1095 581 1091 595 1084 606 c 1
 955 532 740 245 606 0 c 1
 332 0 l 1
 493 759 l 1
 476 750 449 745 413 745 c 0
 332 745 291 802 291 879 c 0
1196 1012 m 0
 1140 1012 1108 963 1108 916 c 0
 1108 883 1126 862 1164 862 c 0
 1235 862 1253 930 1253 959 c 0
 1253 992 1233 1012 1196 1012 c 0
EndSplineSet
EndChar

StartChar: uni0E2C
Encoding: 3628 3628 167
Width: 1400
Flags: W
HStem: 0 21G<311 543.2 997.533 1225.25> 749 111<394.788 471.26> 1028 123<412.819 613.5> 1158 144<1499 1604.08> 1428 129<1245.83 1365.81>
VStem: 273 120<860.871 1014.79> 520 214<875.982 1027.3> 1111 126<1303.06 1416.99> 1367 147<1310.77 1427.4> 1675 134<1385.29 1487>
DStem2: 1000.72 0 1221 0 0.207912 0.978148<511.17 1183.9>
AnchorPoint: "AboveBase" 1053 1227 basechar 0
LayerCount: 2
Fore
SplineSet
437 860 m 0
 483 860 520 918 520 966 c 0
 520 999 506 1028 473 1028 c 0
 425 1028 393 966 393 917 c 0
 393 887 406 860 437 860 c 0
273 884 m 0
 273 989 356 1151 540 1151 c 0
 687 1151 734 1082 734 989 c 0
 734 964 730 937 724 909 c 2
 637 500 l 1
 956 1039 l 1
 1013 1039 l 1
 1107 500 l 1
 1247 1158 l 1
 1161 1173 1111 1230 1111 1311 c 0
 1111 1428 1200 1557 1356 1557 c 0
 1452 1557 1514 1499 1514 1411 c 0
 1514 1387 1511 1358 1504 1325 c 2
 1499 1301 l 1
 1585 1301 1651 1375 1675 1487 c 1
 1809 1487 l 1
 1752 1218 1553 1154 1466 1154 c 1
 1221 0 l 1
 1001 0 l 1
 897 600 l 1
 531 0 l 1
 311 0 l 1
 472 759 l 1
 457 754 438 749 416 749 c 0
 327 749 273 802 273 884 c 0
1316 1428 m 0
 1271 1428 1237 1387 1237 1351 c 0
 1237 1312 1273 1302 1289 1302 c 0
 1326 1302 1367 1336 1367 1378 c 0
 1367 1409 1342 1428 1316 1428 c 0
EndSplineSet
EndChar

StartChar: uni0E2D
Encoding: 3629 3629 168
Width: 1230
Flags: W
HStem: 0 200<486 873> 354 101<519 622.807> 625 123<535.74 640.279> 949 200<583.365 922.344>
VStem: 642 114<468.022 624.254> 988 232<590.508 886.521>
DStem2: 830.489 0 1050 0 0.207912 0.978148<204.468 788.03>
LayerCount: 2
Fore
SplineSet
561 455 m 0
 609 455 642 518 642 565 c 0
 642 597 629 625 597 625 c 0
 549 625 517 561 517 518 c 0
 517 485 532 455 561 455 c 0
756 583 m 0
 756 443 642 354 553 354 c 0
 540 354 528 355 519 358 c 1
 486 200 l 1
 873 200 l 1
 982 715 l 2
 986 736 988 755 988 773 c 0
 988 908 869 949 770 949 c 0
 628 949 510 881 428 775 c 1
 315 936 l 1
 447 1078 612 1149 809 1149 c 0
 1034 1149 1220 1047 1220 838 c 0
 1220 811 1217 782 1210 751 c 2
 1050 0 l 1
 223 0 l 1
 315 434 l 2
 353 612 414 748 590 748 c 0
 721 748 756 661 756 583 c 0
EndSplineSet
EndChar

StartChar: uni0E2E
Encoding: 3630 3630 169
Width: 1250
Flags: W
HStem: 0 200<493 880> 354 101<526 629.807> 625 123<542.74 647.279> 746 148<675.664 934.169> 972 177<675.804 933.699>
VStem: 649 114<468.022 624.254> 1005 226<614.203 808>
DStem2: 837.489 0 1057 0 0.207912 0.978148<204.468 824.477>
LayerCount: 2
Fore
SplineSet
568 455 m 0xee
 616 455 649 518 649 565 c 0
 649 597 636 625 604 625 c 0
 556 625 524 561 524 518 c 0
 524 485 539 455 568 455 c 0xee
763 583 m 0
 763 443 649 354 560 354 c 0
 547 354 535 355 526 358 c 1
 493 200 l 1
 880 200 l 1
 995 741 l 2
 1001 770 1005 793 1005 808 c 1
 923 767 832 746 731 746 c 0xde
 571 746 398 801 398 917 c 0
 398 1057 632 1149 829 1149 c 0
 946 1149 1045 1121 1124 1064 c 1
 1159 1099 1183 1131 1196 1158 c 1
 1309 1116 l 1
 1275 1061 1239 1014 1201 975 c 1
 1221 934 1231 891 1231 848 c 0
 1231 827 1228 807 1224 786 c 2
 1057 0 l 1
 230 0 l 1
 322 434 l 2
 360 612 421 748 597 748 c 0
 728 748 763 661 763 583 c 0
802 972 m 0
 757 972 673 955 673 929 c 0
 673 901 744 894 772 894 c 0
 874 894 929 930 935 935 c 1
 915 957 872 972 802 972 c 0
EndSplineSet
EndChar

StartChar: uni0E2F
Encoding: 3631 3631 170
Width: 1150
Flags: W
HStem: 0 21G<805 1029.25> 657 200<696 852.508> 1023 124<472.092 599.589>
VStem: 318 143<814 1011.85> 601 158<899.328 1021.55>
DStem2: 805 0 1025 0 0.207912 0.978148<45.7406 793.348 1000.2 1174.62>
LayerCount: 2
Fore
SplineSet
759 1008 m 0
 759 966 734 889 696 857 c 1
 731 857 l 2
 905 857 1024 1032 1049 1149 c 1
 1269 1149 l 1
 1025 0 l 1
 805 0 l 1
 970 776 l 1
 879 683 723 657 627 657 c 0
 391 657 318 759 318 869 c 0
 318 1017 427 1147 591 1147 c 0
 670 1147 759 1103 759 1008 c 0
517 889 m 0
 565 889 601 928 601 973 c 0
 601 1003 579 1023 545 1023 c 0
 499 1023 461 986 461 940 c 0
 461 909 482 889 517 889 c 0
EndSplineSet
EndChar

StartChar: uni0E30
Encoding: 3632 3632 171
Width: 1100
Flags: W
HStem: 79 154<561 700.336> 388 110<364.476 482.727> 603 154<672 811.336> 912 110<475.665 593.772>
VStem: 233 123<268.339 380.83> 345 122<792.339 905.26> 484 129<273.722 387.359> 595 130<798.908 911.275>
LayerCount: 2
Fore
SplineSet
613 367 m 0xfa
 613 328 589 263 561 233 c 1
 670 233 827 334 858 480 c 1
 1024 480 l 1
 973 241 748 79 509 79 c 0
 304 79 233 187 233 277 c 0
 233 340 281 498 472 498 c 0
 575 498 613 427 613 367 c 0xfa
407 268 m 0
 469 268 484 318 484 345 c 0
 484 374 466 388 432 388 c 0
 364 388 356 329 356 309 c 0
 356 282 374 268 407 268 c 0
725 891 m 0xf5
 725 852 700 786 672 757 c 1
 781 757 938 858 969 1004 c 1
 1135 1004 l 1
 1085 765 859 603 620 603 c 0
 415 603 345 711 345 801 c 0
 345 866 393 1022 583 1022 c 0
 687 1022 725 950 725 891 c 0xf5
518 792 m 0
 584 792 595 848 595 871 c 0
 595 898 577 912 544 912 c 0
 482 912 467 862 467 834 c 0
 467 806 484 792 518 792 c 0
EndSplineSet
EndChar

StartChar: uni0E31
Encoding: 3633 3633 172
Width: 0
Flags: W
HStem: 1233 154<-99 40.3358> 1542 110<-295.335 -177.228>
VStem: -426 122<1422.34 1535.26> -176 130<1428.91 1541.28> 198 166<1537.98 1634>
AnchorPoint: "AboveMark" 108 1740 basemark 0
AnchorPoint: "AboveBase" 81 1227 mark 0
LayerCount: 2
Fore
SplineSet
-46 1521 m 0
 -46 1482 -71 1416 -99 1387 c 1
 10 1387 167 1488 198 1634 c 1
 364 1634 l 1
 314 1395 88 1233 -151 1233 c 0
 -356 1233 -426 1341 -426 1431 c 0
 -426 1496 -378 1652 -188 1652 c 0
 -84 1652 -46 1580 -46 1521 c 0
-253 1422 m 0
 -187 1422 -176 1478 -176 1501 c 0
 -176 1528 -194 1542 -227 1542 c 0
 -289 1542 -304 1492 -304 1464 c 0
 -304 1436 -287 1422 -253 1422 c 0
EndSplineSet
EndChar

StartChar: uni0E32
Encoding: 3634 3634 173
Width: 1150
Flags: W
HStem: 0 21G<736 960.25> 949 200<604.668 857.827>
VStem: 899 229<690.238 907.361>
DStem2: 736 0 956 0 0.207912 0.978148<45.7406 811.531>
LayerCount: 2
Fore
SplineSet
300 846 m 1
 393 999 584 1149 766 1149 c 0
 990 1149 1128 1047 1128 856 c 0
 1128 824 1124 790 1116 753 c 2
 956 0 l 1
 736 0 l 1
 891 729 l 2
 896 753 899 775 899 796 c 0
 899 891 844 949 735 949 c 0
 606 949 508 820 480 764 c 1
 300 846 l 1
EndSplineSet
EndChar

StartChar: uni0E34
Encoding: 3636 3636 175
Width: 0
Flags: W
HStem: 1520 159<-524.331 -184.31>
AnchorPoint: "AboveMark" 80 1740 basemark 0
AnchorPoint: "AboveBase" 98 1227 mark 0
LayerCount: 2
Fore
SplineSet
98 1228 m 1
 -115 1277 -636 1331 -881 1331 c 1
 -753 1545 -544 1679 -316 1679 c 0
 -37 1679 98 1503 98 1242 c 2
 98 1228 l 1
-122 1392 m 1
 -153 1481 -230 1520 -371 1520 c 0
 -449 1520 -520 1490 -571 1441 c 1
 -449 1441 -242 1423 -122 1392 c 1
EndSplineSet
EndChar

StartChar: uni0E35
Encoding: 3637 3637 176
Width: 0
Flags: W
HStem: 1499 143<-490.742 -171.033>
AnchorPoint: "AboveMark" 108 1740 basemark 0
AnchorPoint: "AboveBase" 98 1227 mark 0
LayerCount: 2
Fore
SplineSet
-293 1642 m 0
 -191 1642 -92 1620 -24 1546 c 1
 16 1735 l 1
 198 1735 l 1
 97 1260 l 1
 97 1228 l 1
 -97 1272 -593 1323 -827 1323 c 1
 -748 1476 -541 1642 -293 1642 c 0
-117 1387 m 1
 -144 1455 -216 1499 -346 1499 c 0
 -414 1499 -478 1470 -523 1429 c 1
 -411 1429 -236 1413 -117 1387 c 1
EndSplineSet
EndChar

StartChar: uni0E36
Encoding: 3638 3638 177
Width: 0
Flags: W
HStem: 1321 116<78.7497 177.429> 1500 140<-482.674 -197.578> 1559 122<61.4455 185.582>
VStem: 186 122<1446.21 1557.55>
AnchorPoint: "AboveMark" 173 1740 basemark 0
AnchorPoint: "AboveBase" 171 1227 mark 0
LayerCount: 2
Fore
SplineSet
-287 1640 m 0xd0
 -143 1640 -76 1595 -50 1562 c 1
 -9 1637 76 1681 151 1681 c 0xb0
 247 1681 308 1619 308 1538 c 0
 308 1403 182 1321 78 1321 c 1
 79 1310 80 1290 80 1262 c 2
 80 1228 l 1
 -114 1272 -610 1323 -844 1323 c 1
 -771 1469 -562 1640 -287 1640 c 0xd0
107 1437 m 0
 144 1437 186 1467 186 1510 c 0
 186 1539 164 1559 133 1559 c 0
 96 1559 54 1529 54 1486 c 0
 54 1457 76 1437 107 1437 c 0
-140 1376 m 1
 -162 1436 -221 1500 -335 1500 c 0xd0
 -419 1500 -515 1444 -537 1419 c 1
 -405 1419 -215 1395 -140 1376 c 1
EndSplineSet
EndChar

StartChar: uni0E37
Encoding: 3639 3639 178
Width: 0
Flags: W
HStem: 1506 128<-485.353 -213.091>
AnchorPoint: "AboveMark" 6 1740 basemark 0
AnchorPoint: "AboveBase" 98 1227 mark 0
LayerCount: 2
Fore
SplineSet
-808 1323 m 1
 -720 1482 -524 1634 -284 1634 c 0
 -262 1634 -246 1632 -218 1625 c 1
 -197 1723 l 1
 -21 1723 l 1
 -50 1587 l 1
 -35 1583 -22 1571 -11 1551 c 1
 25 1722 l 1
 195 1722 l 1
 102 1285 l 1
 92 1228 l 1
 -106 1273 -603 1323 -808 1323 c 1
-92 1370 m 1
 -122 1487 -239 1506 -280 1506 c 0
 -421 1506 -474 1482 -543 1414 c 1
 -393 1414 -125 1380 -92 1370 c 1
EndSplineSet
EndChar

StartChar: uni0E38
Encoding: 3640 3640 179
Width: 0
Flags: W
HStem: -378 82<-487.05 -440.431> -176 91<-481.421 -310.5>
VStem: -580 92<-294.456 -180.224> -388 171<-291.825 -176.3>
AnchorPoint: "BelowBase" -179 -85 mark 0
LayerCount: 2
Fore
SplineSet
-580 -275 m 0
 -580 -196 -522 -85 -370 -85 c 0
 -251 -85 -217 -147 -217 -225 c 0
 -217 -253 -221 -283 -228 -313 c 2
 -275 -534 l 1
 -475 -534 l 1
 -440 -370 l 1
 -453 -375 -465 -378 -477 -378 c 0
 -514 -378 -580 -356 -580 -275 c 0
-425 -176 m 0
 -453 -176 -488 -207 -488 -253 c 0
 -488 -283 -468 -296 -451 -296 c 0
 -423 -296 -388 -265 -388 -219 c 0
 -388 -189 -408 -176 -425 -176 c 0
EndSplineSet
Substitution2: "Thai Sara U Mai Ek Reordering" uni0E48.low
Substitution2: "Thai Sara U Mai Tho Reordering" uni0E49.low
Substitution2: "Thai Sara U Mai Tri Reordering" uni0E4A.low
Substitution2: "Thai Sara U Mai Chattawa Reordering" uni0E4B.low
Substitution2: "Thai Sara U Thanthakhat Reordering" uni0E4C.low
Substitution2: "Thai Sara U Nikhahit Reordering" uni0E4D
EndChar

StartChar: uni0E39
Encoding: 3641 3641 180
Width: 0
Flags: W
HStem: -504 129<-556 -440> -351 73<-810.669 -747.775> -158 83<-803.305 -712.895>
VStem: -900 88<-277.315 -162.699> -712 185<-273.276 -158.49>
DStem2: -467.42 -504 -267 -504 0.207912 0.978148<131.882 415.096>
AnchorPoint: "BelowBase" -179 -85 mark 0
LayerCount: 2
Fore
SplineSet
-750 -158 m 0
 -778 -158 -812 -191 -812 -235 c 0
 -812 -265 -792 -278 -775 -278 c 0
 -747 -278 -712 -246 -712 -201 c 0
 -712 -171 -733 -158 -750 -158 c 0
-900 -255 m 0
 -900 -175 -820 -75 -721 -75 c 0
 -564 -75 -527 -135 -527 -207 c 0
 -527 -234 -532 -262 -538 -290 c 2
 -556 -375 l 1
 -440 -375 l 1
 -381 -98 l 1
 -181 -98 l 1
 -267 -504 l 1
 -783 -504 l 1
 -747 -335 l 1
 -759 -345 -779 -351 -800 -351 c 0
 -852 -351 -900 -316 -900 -255 c 0
EndSplineSet
Substitution2: "Thai Sara UU Mai Ek Reordering" uni0E48.low
Substitution2: "Thai Sara UU Mai Tho Reordering" uni0E49.low
Substitution2: "Thai Sara UU Mai Tri Reordering" uni0E4A.low
Substitution2: "Thai Sara UU Mai Chattawa Reordering" uni0E4B.low
Substitution2: "Thai Sara UU Thanthakhat Reordering" uni0E4C.low
Substitution2: "Thai Sara UU Nikhahit Reordering" uni0E4D
EndChar

StartChar: uni0E3A
Encoding: 3642 3642 181
Width: 0
Flags: W
HStem: -330 270<-365.763 -209.651>
VStem: -424 275<-270.494 -118.247>
AnchorPoint: "BelowBase" -172 -65 mark 0
LayerCount: 2
Fore
SplineSet
-424 -222 m 0
 -424 -149 -352 -60 -259 -60 c 4
 -185 -60 -149 -116 -149 -170 c 0
 -149 -248 -231 -330 -316 -330 c 0
 -377 -330 -424 -284 -424 -222 c 0
EndSplineSet
Substitution2: "Thai Phinthu Maitaikhu Reordering" uni0E47
Substitution2: "Thai Phinthu Mai Ek Reordering" uni0E48.low
Substitution2: "Thai Phinthu Mai Tho Reordering" uni0E49.low
Substitution2: "Thai Phinthu Mai Tri Reordering" uni0E4A.low
Substitution2: "Thai Phinthu Mai Chattawa Reordering" uni0E4B.low
Substitution2: "Thai Phinthu Thanthakhat Reordering" uni0E4C.low
Substitution2: "Thai Phinthu Nikhahit Reordering" uni0E4D
EndChar

StartChar: uni0E3F
Encoding: 3647 3647 182
Width: 1250
Flags: W
HStem: 0 190<408 541 743 898.565> 689 227<563 687 897 1008.81> 1291 198<642 815 1018 1107.45>
VStem: 1057 253<361.447 639.178> 1130 253<1015.02 1266.46>
DStem2: 103.73 -133 339.344 -133 0.207912 0.978148<379.203 889.337 1121.56 1504.79> 513 -133 674 -133 0.207912 0.978148<33.4738 135.915 367.674 840.214 1105.92 1455.67 1691.55 1766.54>
LayerCount: 2
Fore
SplineSet
1310 572 m 0xf0
 1310 266 1049 0 702 0 c 1
 674 -133 l 1
 513 -133 l 1
 541 0 l 1
 132 0 l 1
 448 1489 l 1
 857 1489 l 1
 880 1595 l 1
 1041 1595 l 1
 1018 1489 l 1
 1315 1489 1383 1354 1383 1229 c 0xe8
 1383 1026 1282 870 1140 836 c 1
 1138 827 l 1
 1249 794 1310 705 1310 572 c 0xf0
736 916 m 1
 815 1291 l 1
 642 1291 l 1
 563 916 l 1
 736 916 l 1
897 916 m 1
 1040 916 1130 1014 1130 1178 c 0
 1130 1269 1063 1291 976 1291 c 1
 897 916 l 1
581 190 m 1
 687 689 l 1
 514 689 l 1
 408 190 l 1
 581 190 l 1
743 194 m 1
 961 194 1057 380 1057 525 c 0xf0
 1057 654 962 687 848 687 c 1
 743 194 l 1
EndSplineSet
EndChar

StartChar: uni0E40
Encoding: 3648 3648 183
Width: 700
Flags: W
HStem: -10 120<311.5 496.905> 280 111<441.541 545.5> 1126 20G<383.73 608>
VStem: 191 202<111.089 266.373> 517 130<124.096 279.021>
DStem2: 141.47 -10 361.504 -10 0.207912 0.978148<428.103 1182>
LayerCount: 2
Fore
SplineSet
647 256 m 0
 647 137 549 -10 385 -10 c 0
 238 -10 191 56 191 164 c 0
 191 205 197 252 208 303 c 2
 388 1146 l 1
 608 1146 l 1
 441 364 l 1
 462 383 487 391 518 391 c 0
 573 391 647 355 647 256 c 0
436 110 m 0
 485 110 517 173 517 221 c 0
 517 252 504 280 473 280 c 0
 427 280 393 219 393 173 c 0
 393 140 408 110 436 110 c 0
EndSplineSet
EndChar

StartChar: uni0E41
Encoding: 3649 3649 184
Width: 1320
Flags: W
HStem: -10 120<343.5 528.905 936.5 1121.9> 280 111<473.541 577.5 1066.54 1170.5> 1126 20G<415.73 640 1008.73 1233>
VStem: 223 202<111.089 266.373> 549 130<124.096 279.021> 816 202<111.089 266.373> 1142 130<124.096 279.021>
DStem2: 173.47 -10 393.504 -10 0.207912 0.978148<428.103 1182> 766.47 -10 986.504 -10 0.207912 0.978148<428.103 1182>
LayerCount: 2
Fore
SplineSet
1272 256 m 0
 1272 137 1174 -10 1010 -10 c 0
 863 -10 816 56 816 164 c 0
 816 205 822 252 833 303 c 2
 1013 1146 l 1
 1233 1146 l 1
 1066 364 l 1
 1087 383 1112 391 1143 391 c 0
 1198 391 1272 355 1272 256 c 0
1061 110 m 0
 1110 110 1142 173 1142 221 c 0
 1142 252 1129 280 1098 280 c 0
 1052 280 1018 219 1018 173 c 0
 1018 140 1033 110 1061 110 c 0
679 256 m 0
 679 137 581 -10 417 -10 c 0
 270 -10 223 56 223 164 c 0
 223 205 229 252 240 303 c 2
 420 1146 l 1
 640 1146 l 1
 473 364 l 1
 494 383 519 391 550 391 c 0
 605 391 679 355 679 256 c 0
468 110 m 0
 517 110 549 173 549 221 c 0
 549 252 536 280 505 280 c 0
 459 280 425 219 425 173 c 0
 425 140 440 110 468 110 c 0
EndSplineSet
EndChar

StartChar: uni0E42
Encoding: 3650 3650 185
Width: 1100
Flags: W
HStem: -10 120<708.5 894.194> 280 111<838.97 942.5> 1263 200<990.692 1248> 1364 200<653.912 884.805>
VStem: 588 201<111.55 266.136> 736 228<749.062 1059.74> 914 131<124.549 279.021>
DStem2: 538.47 -10 758.504 -10 0.207912 0.978148<428.103 984.534>
LayerCount: 2
Fore
SplineSet
1045 256 m 0xd2
 1045 139 947 -10 782 -10 c 0
 635 -10 588 57 588 165 c 0xda
 588 205 594 252 605 303 c 2
 722 850 l 2
 731 890 736 925 736 956 c 0
 736 1076 646 1129 271 1175 c 1
 380 1400 564 1564 755 1564 c 0xd4
 896 1564 1051 1463 1183 1463 c 0
 1261 1463 1326 1483 1380 1524 c 1
 1286 1325 l 1
 1223 1295 1154 1263 1086 1263 c 0xe4
 946 1263 852 1364 735 1364 c 0
 682 1364 654 1327 633 1295 c 1
 877 1246 964 1143 964 999 c 0xd4
 964 968 960 936 953 902 c 2
 838 364 l 1
 859 383 884 391 915 391 c 0
 970 391 1045 355 1045 256 c 0xd2
833 110 m 0
 882 110 914 173 914 222 c 0
 914 253 901 280 870 280 c 0
 822 280 789 216 789 174 c 0
 789 141 804 110 833 110 c 0
EndSplineSet
EndChar

StartChar: uni0E43
Encoding: 3651 3651 186
Width: 1000
Flags: W
HStem: -10 120<661.5 846.905> 280 111<792.383 895.5> 942 161<513.873 663.607> 1350 211<819.726 944.033>
VStem: 317 192<1107.19 1248.07> 541 201<111.089 265.696> 687 185<1125.12 1263.9> 867 130<124.096 279.021> 976 213<1079.85 1314.51>
DStem2: 491.47 -10 711.504 -10 0.207912 0.978148<428.103 897.868>
LayerCount: 2
Fore
SplineSet
317 1149 m 0xfa80
 317 1396 549 1561 833 1561 c 0
 1068 1561 1189 1463 1189 1279 c 0xfa80
 1189 938 916 952 860 685 c 1
 791 364 l 1
 812 383 837 391 868 391 c 0
 923 391 997 355 997 256 c 0
 997 137 899 -10 735 -10 c 0
 588 -10 541 56 541 164 c 0xfd
 541 205 548 252 558 303 c 2
 629 633 l 1
 667 820 729 881 824 962 c 1
 915 1047 976 1116 976 1218 c 0
 976 1287 939 1345 815 1350 c 1
 853 1345 872 1289 872 1231 c 0
 872 1058 725 942 536 942 c 0
 385 942 317 1034 317 1149 c 0xfa80
786 110 m 0
 835 110 867 173 867 221 c 0
 867 252 854 280 823 280 c 0
 777 280 742 219 742 173 c 0xfd
 742 140 758 110 786 110 c 0
580 1103 m 0
 642 1103 687 1157 687 1202 c 0xfa
 687 1237 663 1269 616 1269 c 0
 554 1269 509 1215 509 1170 c 0
 509 1135 533 1103 580 1103 c 0
EndSplineSet
EndChar

StartChar: uni0E44
Encoding: 3652 3652 187
Width: 1140
Flags: W
HStem: -10 120<796.5 982.194> 280 111<926.97 1030.5> 1082 200<503.5 674.382> 1291 281<833.854 1032>
VStem: 346 197<1292.36 1521> 676 201<111.55 266.136> 894 246<1214.56 1439.5> 1002 131<124.549 279.021>
DStem2: 626.47 -10 846.504 -10 0.207912 0.978148<428.103 1295.55>
LayerCount: 2
Fore
SplineSet
921 110 m 0xfd
 970 110 1002 173 1002 222 c 0
 1002 253 989 280 958 280 c 0
 910 280 877 216 877 174 c 0
 877 141 892 110 921 110 c 0xfd
1133 256 m 0
 1133 139 1035 -10 870 -10 c 0
 723 -10 676 57 676 165 c 0
 676 205 682 252 693 303 c 2
 890 1229 l 2
 892 1240 894 1250 894 1258 c 0
 894 1280 885 1291 868 1291 c 0
 853 1291 835 1277 817 1250 c 1
 767 1183 l 1
 713 1116 643 1082 556 1082 c 0
 451 1082 374 1152 354 1366 c 1
 346 1521 l 1
 543 1521 l 1
 552 1405 564 1282 608 1282 c 0
 631 1282 658 1302 687 1343 c 2
 764 1454 l 1
 831 1542 890 1572 958 1572 c 0
 1106 1572 1140 1479 1140 1400 c 0xfe
 1140 1379 1138 1358 1134 1341 c 2
 926 364 l 1
 947 383 972 391 1003 391 c 0
 1058 391 1133 355 1133 256 c 0
EndSplineSet
EndChar

StartChar: uni0E45
Encoding: 3653 3653 188
Width: 1000
Flags: W
HStem: 949 200<532.668 786.789>
VStem: 827 230<707.924 905.847>
DStem2: 583 -380 803 -380 0.207912 0.978148<45.7406 1200.07>
LayerCount: 2
Fore
SplineSet
694 1149 m 0
 924 1149 1057 1034 1057 858 c 0
 1057 831 1054 803 1048 773 c 2
 803 -380 l 1
 583 -380 l 1
 819 729 l 2
 824 753 827 775 827 796 c 0
 827 891 772 949 663 949 c 0
 534 949 436 820 408 764 c 1
 228 846 l 1
 321 999 512 1149 694 1149 c 0
EndSplineSet
EndChar

StartChar: uni0E46
Encoding: 3654 3654 189
Width: 1100
Flags: W
HStem: 457 129<348.5 523.531> 1129 20G<511 661.185 908.074 1002.5>
VStem: 248 168<587.608 738.618> 544 135<602.34 752.794> 930 223<705.26 927.989>
DStem2: 682 -380 902 -380 0.207912 0.978148<45.7406 1206.3>
LayerCount: 2
Fore
SplineSet
461 586 m 0
 508 586 544 645 544 693 c 0
 544 725 528 754 496 754 c 0
 449 754 416 694 416 645 c 0
 416 614 429 586 461 586 c 0
679 724 m 0
 679 595 570 457 415 457 c 0
 282 457 248 553 248 637 c 0
 248 798 386 1054 636 1149 c 1
 772 1041 l 1
 939 1149 l 1
 1066 1113 1153 970 1153 833 c 0
 1153 812 1151 791 1147 771 c 2
 902 -380 l 1
 682 -380 l 1
 927 771 l 2
 929 780 930 791 930 801 c 0
 930 850 912 908 892 929 c 1
 726 821 l 1
 589 929 l 1
 560 897 541 869 539 862 c 1
 650 862 679 789 679 724 c 0
EndSplineSet
EndChar

StartChar: uni0E47
Encoding: 3655 3655 190
Width: 0
Flags: W
HStem: 1284 143<-323.208 -222> 1372 167<-505.266 -369.485> 1562 74<-166.314 -89.1577>
VStem: -720 181<1397.76 1582.66> -255 86<1486.49 1560.62> -87 114<1487.52 1561.52>
AnchorPoint: "AboveBase" -49 1227 mark 0
LayerCount: 2
Fore
SplineSet
-136 1486 m 0x3c
 -107 1486 -87 1512 -87 1531 c 0
 -87 1547 -99 1562 -120 1562 c 0
 -149 1562 -169 1536 -169 1517 c 0
 -169 1501 -157 1486 -136 1486 c 0x3c
-196 1284 m 0xbc
 -380 1284 -387 1372 -463 1372 c 0x7c
 -508 1372 -509 1288 -523 1284 c 1xbc
 -680 1284 -720 1377 -720 1458 c 0
 -720 1585 -614 1718 -478 1751 c 0
 -289 1796 -88 1741 -5 1894 c 1
 177 1894 l 1
 144 1792 4 1682 -91 1660 c 0
 -245 1625 -539 1651 -539 1509 c 0
 -539 1500 -537 1494 -534 1486 c 1
 -509 1521 -479 1539 -446 1539 c 0x7c
 -364 1539 -306 1427 -248 1427 c 0
 -230 1427 -223 1434 -222 1434 c 1
 -244 1450 -255 1471 -255 1498 c 0
 -255 1565 -187 1636 -101 1636 c 0
 5 1636 27 1575 27 1525 c 0
 27 1417 -58 1284 -196 1284 c 0xbc
EndSplineSet
Substitution2: "Thai Mark High Variant" uni0E47.high
Substitution2: "Thai Phinthu Maitaikhu Reordering" uni0E3A
EndChar

StartChar: uni0E48
Encoding: 3656 3656 191
Width: 0
Flags: W
HStem: 1826 280<70 241>
VStem: 10 291
AnchorPoint: "AboveMark" 108 1740 mark 0
LayerCount: 2
Fore
SplineSet
70 2106 m 1
 301 2106 l 1
 241 1826 l 1
 10 1826 l 1
 70 2106 l 1
EndSplineSet
MultipleSubs2: "Thai Tone Nikhahit Attachment" uni0E4D uni0E48
Substitution2: "Thai Tone Low Variant" uni0E48.low
Substitution2: "Thai Sara U Mai Ek Reordering" uni0E38
Substitution2: "Thai Sara UU Mai Ek Reordering" uni0E39
Substitution2: "Thai Phinthu Mai Ek Reordering" uni0E3A
EndChar

StartChar: uni0E49
Encoding: 3657 3657 192
Width: 0
Flags: W
HStem: 1878 89<-154.185 -99.3992> 2073 97<-150.862 -44.1654>
VStem: -253 98<1967.58 2068.59> -44 124<1971.1 2071.84>
AnchorPoint: "AboveMark" 84 1740 mark 0
LayerCount: 2
Fore
SplineSet
-253 1992 m 0
 -253 2097 -157 2170 -79 2170 c 0
 18 2170 80 2106 80 2035 c 0
 80 1999 59 1941 43 1915 c 1
 104 1927 246 1982 342 2156 c 1
 524 2156 l 1
 420 1930 169 1761 -120 1716 c 0
 -148 1712 -184 1708 -230 1703 c 1
 -207 1810 l 1
 -185 1815 -121 1832 -99 1885 c 1
 -113 1880 -129 1878 -144 1878 c 0
 -212 1878 -253 1926 -253 1992 c 0
-88 2073 m 0
 -125 2073 -155 2044 -155 2007 c 0
 -155 1982 -138 1967 -111 1967 c 0
 -74 1967 -44 1996 -44 2033 c 0
 -44 2058 -61 2073 -88 2073 c 0
EndSplineSet
MultipleSubs2: "Thai Tone Nikhahit Attachment" uni0E4D uni0E49
Substitution2: "Thai Tone Low Variant" uni0E49.low
Substitution2: "Thai Sara U Mai Tho Reordering" uni0E38
Substitution2: "Thai Sara UU Mai Tho Reordering" uni0E39
Substitution2: "Thai Phinthu Mai Tho Reordering" uni0E3A
EndChar

StartChar: uni0E4A
Encoding: 3658 3658 193
Width: 0
Flags: W
HStem: 1668 89<-383.5 -217.197> 1837 77<-296.38 -216.896>
VStem: -478 180<1757.84 1899.62> -216 76<1758.53 1836.22> 102 159<1820 1973.36>
DStem2: 255 1918 385 1832 0.512245 0.858839<0 292.918>
AnchorPoint: "AboveMark" -88 1740 mark 0
LayerCount: 2
Fore
SplineSet
-249 1837 m 0
 -288 1837 -298 1803 -298 1786 c 0
 -298 1768 -287 1757 -266 1757 c 0
 -226 1757 -216 1792 -216 1804 c 0
 -216 1820 -227 1837 -249 1837 c 0
-140 1828 m 0
 -140 1732 -217 1668 -322 1668 c 0
 -445 1668 -478 1750 -478 1825 c 0
 -478 2022 -276 2125 -189 2154 c 1
 -74 2036 l 1
 93 2154 l 1
 185 2116 261 2046 261 1961 c 0
 261 1942 258 1930 255 1918 c 1
 406 2169 l 1
 586 2169 l 1
 385 1832 l 2
 296 1683 89 1672 30 1672 c 1
 70 1718 102 1783 102 1857 c 0
 102 1923 73 1962 55 1976 c 1
 -112 1858 l 1
 -227 1976 l 1
 -258 1965 -303 1930 -312 1886 c 1
 -287 1905 -259 1914 -228 1914 c 0
 -172 1914 -140 1882 -140 1828 c 0
EndSplineSet
MultipleSubs2: "Thai Tone Nikhahit Attachment" uni0E4D uni0E4A
Substitution2: "Thai Tone Low Variant" uni0E4A.low
Substitution2: "Thai Sara U Mai Tri Reordering" uni0E38
Substitution2: "Thai Sara UU Mai Tri Reordering" uni0E39
Substitution2: "Thai Phinthu Mai Tri Reordering" uni0E3A
EndChar

StartChar: uni0E4B
Encoding: 3659 3659 194
Width: 0
Flags: W
HStem: 1793 174<-172 -78 131 217>
VStem: -209 463
AnchorPoint: "AboveMark" -24 1640 mark 0
LayerCount: 2
Fore
SplineSet
217 1793 m 1
 94 1793 l 1
 68 1670 l 1
 -104 1670 l 1
 -78 1793 l 1
 -209 1793 l 1
 -172 1967 l 1
 -41 1967 l 1
 -13 2096 l 1
 159 2096 l 1
 131 1967 l 1
 254 1967 l 1
 217 1793 l 1
EndSplineSet
MultipleSubs2: "Thai Tone Nikhahit Attachment" uni0E4D uni0E4B
Substitution2: "Thai Tone Low Variant" uni0E4B.low
Substitution2: "Thai Sara U Mai Chattawa Reordering" uni0E38
Substitution2: "Thai Sara UU Mai Chattawa Reordering" uni0E39
Substitution2: "Thai Phinthu Mai Chattawa Reordering" uni0E3A
EndChar

StartChar: uni0E4C
Encoding: 3660 3660 195
Width: 0
Flags: W
HStem: 1621 112<-99.4453 31.4141>
VStem: -238 136<1735.77 1846.54> 41 133<1744.22 1855.61>
AnchorPoint: "AboveMark" -45 1740 mark 0
LayerCount: 2
Fore
SplineSet
174 1825 m 0
 174 1724 74 1621 -45 1621 c 0
 -163 1621 -238 1681 -238 1769 c 0
 -238 1780 -237 1792 -234 1805 c 0
 -168 2118 186 1976 333 2169 c 1
 513 2169 l 1
 428 2022 216 1918 128 1918 c 1
 155 1902 174 1868 174 1825 c 0
-44 1733 m 0
 7 1733 41 1773 41 1807 c 0
 41 1836 18 1857 -17 1857 c 0
 -58 1857 -102 1827 -102 1782 c 0
 -102 1753 -79 1733 -44 1733 c 0
EndSplineSet
MultipleSubs2: "Thai Tone Nikhahit Attachment" uni0E4D uni0E4C
Substitution2: "Thai Tone Low Variant" uni0E4C.low
Substitution2: "Thai Sara U Thanthakhat Reordering" uni0E38
Substitution2: "Thai Sara UU Thanthakhat Reordering" uni0E39
Substitution2: "Thai Phinthu Thanthakhat Reordering" uni0E3A
EndChar

StartChar: uni0E4D
Encoding: 3661 3661 196
Width: 0
Flags: W
HStem: 1212 153<-71.313 72.582> 1515 153<-56.371 87.6851>
VStem: -227 152<1369.83 1494.73> 91 152<1385.27 1510.17>
AnchorPoint: "AboveBase" 156 1227 mark 0
AnchorPoint: "AboveMark" 109 1740 basemark 0
LayerCount: 2
Fore
SplineSet
-227 1390 m 0
 -227 1532 -100 1668 57 1668 c 0
 169 1668 243 1594 243 1490 c 0
 243 1348 116 1212 -40 1212 c 0
 -153 1212 -227 1286 -227 1390 c 0
24 1515 m 0
 -18 1515 -75 1475 -75 1428 c 0
 -75 1393 -44 1365 -8 1365 c 0
 34 1365 91 1405 91 1452 c 0
 91 1487 60 1515 24 1515 c 0
EndSplineSet
Substitution2: "Thai Mark High Variant" uni0E4D.high
Substitution2: "Thai Sara U Nikhahit Reordering" uni0E38
Substitution2: "Thai Sara UU Nikhahit Reordering" uni0E39
Substitution2: "Thai Phinthu Nikhahit Reordering" uni0E3A
EndChar

StartChar: uni0E4E
Encoding: 3662 3662 197
Width: 0
Flags: W
HStem: 1444 122<-13.3228 172> 1675 129<49.9219 188> 1909 127<51.3684 304.185>
VStem: -202 184<1579.03 1660.39> -123 171<1810.39 1904.38>
AnchorPoint: "AboveBase" 126 1227 mark 0
LayerCount: 2
Fore
SplineSet
-123 1837 m 0xe8
 -123 1996 47 2036 154 2036 c 0
 209 2036 266 2028 326 2013 c 1
 299 1885 l 1
 243 1900 190 1909 136 1909 c 0
 92 1909 48 1904 48 1855 c 0xe8
 48 1821 88 1804 145 1804 c 2
 215 1804 l 1
 188 1675 l 1
 123 1675 l 2
 2 1675 -18 1633 -18 1612 c 0
 -18 1568 113 1566 120 1566 c 2
 198 1566 l 1
 172 1444 l 1
 88 1444 l 2
 -60 1444 -202 1498 -202 1594 c 0xf0
 -202 1654 -147 1715 -79 1744 c 1
 -108 1768 -123 1796 -123 1837 c 0xe8
EndSplineSet
EndChar

StartChar: uni0E4F
Encoding: 3663 3663 198
Width: 1250
Flags: W
HStem: -21 184<499.986 818.268> 258 148<634.328 792.895> 609 154<656.92 818.437> 852 188<630.899 949.547>
VStem: 192 188<284.274 602.275> 465 160<414.19 577.863> 826 159<440.264 601.784> 1070 188<413.673 732.137>
LayerCount: 2
Fore
SplineSet
652 163 m 0
 856 163 1070 361 1070 577 c 0
 1070 731 959 852 798 852 c 0
 594 852 380 653 380 437 c 0
 380 284 491 163 652 163 c 0
746 609 m 0
 678 609 625 545 625 485 c 0
 625 440 655 406 703 406 c 0
 765 406 826 464 826 530 c 0
 826 575 795 609 746 609 c 0
1258 626 m 0
 1258 298 958 -21 612 -21 c 0
 357 -21 192 154 192 392 c 0
 192 719 489 1040 837 1040 c 0
 1092 1040 1258 864 1258 626 c 0
985 570 m 0
 985 402 841 258 671 258 c 0
 545 258 465 337 465 452 c 0
 465 603 592 763 778 763 c 0
 905 763 985 685 985 570 c 0
EndSplineSet
EndChar

StartChar: uni0E50
Encoding: 3664 3664 199
Width: 1250
Flags: W
HStem: -10 240<551.993 817.946> 686 238<627.997 893.33>
VStem: 236 258<285.279 549.503> 956 264<368.985 627.411>
LayerCount: 2
Fore
SplineSet
770 686 m 0
 619 686 494 547 494 405 c 0
 494 302 563 230 673 230 c 0
 823 230 956 365 956 509 c 0
 956 618 873 686 770 686 c 0
1220 555 m 0
 1220 264 933 -10 620 -10 c 0
 383 -10 236 141 236 353 c 0
 236 666 523 924 818 924 c 0
 1079 924 1220 756 1220 555 c 0
EndSplineSet
EndChar

StartChar: uni0E51
Encoding: 3665 3665 200
Width: 1300
Flags: W
HStem: -9 187<436.515 793.402> 203 211<564.54 645.777> 603 84<707.409 824.076> 722 203<646.079 928.601>
VStem: 322 233<420.406 633.721> 601 98<486.079 595.677> 826 133<494.359 602.545> 990 226<367.609 658.321>
LayerCount: 2
Fore
SplineSet
1216 584 m 0
 1216 381 1087 -9 572 -9 c 0
 338 -9 245 79 209 115 c 1
 344 292 l 1
 428 215 494 178 624 178 c 0
 849 178 990 363 990 528 c 0
 990 617 950 722 786 722 c 0
 614 722 555 582 555 511 c 0
 555 463 574 414 618 414 c 0
 627 414 638 417 648 422 c 1
 619 439 601 467 601 509 c 0
 601 602 669 687 799 687 c 0
 930 687 959 599 959 526 c 0
 959 371 825 203 615 203 c 0
 430 203 322 317 322 473 c 0
 322 684 514 925 824 925 c 0
 982 925 1216 854 1216 584 c 0
750 485 m 0
 789 485 826 516 826 557 c 0
 826 585 806 603 775 603 c 0
 736 603 699 572 699 531 c 0
 699 503 720 485 750 485 c 0
EndSplineSet
EndChar

StartChar: uni0E52
Encoding: 3666 3666 201
Width: 1350
Flags: W
HStem: 0 200<550.285 1047> 343 118<709.368 814.103>
VStem: 295 233<224.879 626.781> 348 223<352.837 1129.57> 569 139<462.903 558.951> 818 121<464.78 562.899> 1120 214<354.391 700.075>
DStem2: 1004.49 0 1214 0 0.207912 0.978148<204.468 597.882>
LayerCount: 2
Fore
SplineSet
752 461 m 0xce
 789 461 818 491 818 523 c 0
 818 547 800 563 774 563 c 0
 743 563 708 538 708 500 c 0
 708 477 726 461 752 461 c 0xce
939 546 m 0
 939 460 859 343 732 343 c 0
 614 343 569 392 569 486 c 0
 569 660 665 828 914 924 c 1
 914 923 946 892 1009 831 c 1
 1132 924 l 1
 1255 872 1334 772 1334 618 c 0
 1334 583 1330 546 1322 506 c 2
 1214 0 l 1
 545 0 l 2
 328 0 295 170 295 266 c 0xee
 295 282 296 296 297 307 c 2
 338 611 l 1
 345 679 348 745 348 809 c 0
 348 924 337 1032 316 1134 c 1
 550 1134 l 1
 565 1047 571 958 571 871 c 0xd6
 571 625 528 415 528 322 c 0xe6
 528 220 599 200 670 200 c 2
 1047 200 l 1
 1112 506 l 2
 1117 531 1120 560 1120 588 c 0
 1120 638 1110 685 1085 702 c 1
 1085 701 1045 678 966 632 c 1
 867 702 l 1
 860 696 853 687 846 674 c 1
 885 665 939 620 939 546 c 0
EndSplineSet
EndChar

StartChar: uni0E53
Encoding: 3667 3667 202
Width: 1400
Flags: W
HStem: -10 114<317.507 459.121> 724 200<498.789 685.489 1007.35 1251.16>
VStem: 185 166<104.419 479.5> 461 129<108.044 240> 1176 247<394.508 711.81>
LayerCount: 2
Fore
SplineSet
396 104 m 0
 426 104 461 126 461 161 c 0
 461 183 442 198 416 198 c 0
 386 198 351 176 351 141 c 0
 351 119 370 104 396 104 c 0
590 724 m 0
 455 724 422 522 422 403 c 0
 422 380 423 355 426 328 c 1
 439 331 452 333 463 333 c 0
 525 333 590 281 590 199 c 0
 590 125 545 -10 339 -10 c 0
 284 -10 234 33 216 96 c 0
 215 103 185 212 185 359 c 0
 185 600 267 924 599 924 c 0
 787 924 843 849 873 792 c 1
 935 877 1048 924 1163 924 c 0
 1336 924 1423 834 1423 655 c 0
 1423 524 1374 315 1229 0 c 1
 1000 0 l 1
 1105 240 1176 518 1176 618 c 0
 1176 683 1155 716 1112 716 c 0
 974 716 928 589 891 414 c 2
 868 304 l 1
 665 304 l 1
 685 398 710 499 710 579 c 0
 710 664 682 724 590 724 c 0
EndSplineSet
EndChar

StartChar: uni0E54
Encoding: 3668 3668 203
Width: 1550
Flags: W
HStem: -6 200<529.781 844.821> 313 110<1155 1200.74> 557 135<1081.4 1208.92> 724 200<630.485 1316.22>
VStem: 215 249<265.112 569.128> 909 163<424.929 546.145> 1211 140<434.86 555.252> 1546 232<1164.74 1262>
LayerCount: 2
Fore
SplineSet
1351 545 m 0
 1351 440 1268 313 1155 313 c 1
 1268 243 1298 301 1429 156 c 1
 1253 -2 l 1
 1192 68 1124 76 1046 76 c 0
 922 76 751 -6 579 -6 c 0
 364 -6 215 144 215 360 c 0
 215 774 580 924 868 924 c 2
 1114 924 l 2
 1326 924 1470 1037 1546 1262 c 1
 1778 1262 l 1
 1735 1083 1582 901 1486 830 c 0
 1383 753 1241 724 1078 724 c 2
 818 724 l 2
 598 724 464 598 464 409 c 0
 464 295 538 194 626 194 c 0
 675 194 781 215 942 258 c 1
 999 278 l 1
 928 317 909 396 909 439 c 0
 909 498 977 692 1183 692 c 0
 1319 692 1351 611 1351 545 c 0
1155 557 m 0
 1107 557 1072 516 1072 478 c 0
 1072 447 1094 423 1127 423 c 0
 1162 423 1211 455 1211 505 c 0
 1211 532 1194 557 1155 557 c 0
EndSplineSet
EndChar

StartChar: uni0E55
Encoding: 3669 3669 204
Width: 1550
Flags: W
HStem: -6 200<529.781 844.821> 313 110<1155 1200.74> 557 135<1081.4 1208.92> 724 213<940.144 1060.48> 724 198<623.183 814> 1057 129<948.45 1066.47>
VStem: 215 249<265.112 568.479> 810 130<937.646 1047> 909 163<424.929 546.145> 1067 132<945.08 1056.17> 1211 140<434.86 555.252> 1546 232<1158.93 1262>
LayerCount: 2
Fore
SplineSet
1351 545 m 0xeeb0
 1351 440 1268 313 1155 313 c 1
 1268 243 1298 301 1429 156 c 1
 1253 -2 l 1
 1193 68 1124 76 1046 76 c 0
 922 76 751 -6 579 -6 c 0
 364 -6 215 144 215 360 c 0
 215 640 449 922 814 922 c 1
 811 934 810 946 810 958 c 0
 810 1070 919 1186 1045 1186 c 0
 1137 1186 1199 1121 1199 1036 c 0xef70
 1199 1003 1190 963 1166 926 c 1
 1351 945 1478 1057 1546 1262 c 1
 1778 1262 l 1
 1735 1083 1650 956 1486 830 c 24
 1349 724 1241 724 1078 724 c 2
 818 724 l 2
 576 724 464 580 464 409 c 0
 464 295 538 194 626 194 c 0
 675 194 781 215 942 258 c 1
 999 278 l 1
 928 317 909 396 909 439 c 0
 909 498 977 692 1183 692 c 0
 1319 692 1351 611 1351 545 c 0xeeb0
1155 557 m 0
 1107 557 1072 516 1072 478 c 0xe6b0
 1072 447 1094 423 1127 423 c 0
 1162 423 1211 455 1211 505 c 0
 1211 532 1194 557 1155 557 c 0
1018 1057 m 0
 981 1057 940 1024 940 985 c 0
 940 958 962 937 992 937 c 0
 1023 937 1067 965 1067 1010 c 0xf770
 1067 1040 1044 1057 1018 1057 c 0
EndSplineSet
EndChar

StartChar: uni0E56
Encoding: 3670 3670 205
Width: 1300
Flags: W
HStem: -16 222<704.884 940.081> 465 129<581.333 702.929> 708 220<668.427 993.513>
VStem: 393 181<193.5 436.82> 704 127<353.475 463.872> 1075 226<340.685 631.688>
LayerCount: 2
Fore
SplineSet
831 444 m 0
 831 367 781 286 703 244 c 1
 706 209 760 206 776 206 c 0
 959 206 1075 337 1075 505 c 0
 1075 646 970 708 803 708 c 0
 690 708 584 689 486 650 c 1
 416 1001 340 1186 280 1262 c 1
 583 1262 l 1
 637 1135 666 1015 668 900 c 1
 777 927 815 928 850 928 c 0
 1127 928 1301 782 1301 549 c 0
 1301 260 1065 -16 716 -16 c 0
 514 -16 393 115 393 272 c 0
 393 425 510 594 677 594 c 0
 770 594 831 528 831 444 c 0
652 465 m 0
 619 465 574 433 574 394 c 0
 574 366 597 343 626 343 c 0
 659 343 704 375 704 414 c 0
 704 442 680 465 652 465 c 0
EndSplineSet
EndChar

StartChar: uni0E57
Encoding: 3671 3671 206
Width: 1540
Flags: W
HStem: -16 125<368.39 482.701> 0 216<1123 1218.98> 234 132<423.586 490.599> 720 203<497.246 672 882.84 1044.77>
VStem: 197 170<111.146 269> 492 133<118.312 233.179> 591 216<467 619.93> 1002 214<395.599 715.583>
DStem2: 1181.76 -16 1413.61 -16 0.207912 0.978148<243.322 1171.53>
LayerCount: 2
Fore
SplineSet
625 212 m 0x7d
 625 102 520 -16 390 -16 c 0xbd
 305 -16 197 32 197 242 c 0
 197 296 204 360 220 436 c 0
 304 832 465 923 629 923 c 0
 715 923 758 888 777 825 c 1
 816 894 891 924 995 924 c 0
 1092 924 1216 873 1216 642 c 0
 1216 577 1196 369 1123 216 c 1
 1138 216 l 2
 1196 216 1241 263 1257 338 c 2
 1425 1130 l 1
 1657 1130 l 1
 1488 334 l 2
 1441 111 1297 0 1057 0 c 2
 771 0 l 1
 966 312 1002 539 1002 632 c 0
 1002 691 985 720 952 720 c 0
 876 720 835 599 807 467 c 1
 591 467 l 1x7b
 599 540 613 604 613 650 c 0
 613 694 600 720 559 720 c 0
 486 720 465 609 444 508 c 0
 436 474 423 391 423 363 c 2
 423 358 l 1
 441 365 457 366 478 366 c 0
 559 366 625 302 625 212 c 0x7d
443 234 m 0
 399 234 367 196 367 156 c 0
 367 126 388 109 416 109 c 0
 463 109 492 154 492 186 c 0
 492 221 461 234 443 234 c 0
EndSplineSet
EndChar

StartChar: uni0E58
Encoding: 3672 3672 207
Width: 1580
Flags: W
HStem: -12 223<1081.62 1261.11> 283 200<760.184 852.105> 309 114<1234.19 1274> 575 113<1249.87 1385.01> 739 178<656.799 1283.88>
VStem: 214 263<304.068 574.525> 1116 116<425.461 558.902> 1388 161<438.62 571.582>
LayerCount: 2
Fore
SplineSet
1549 471 m 0xbf
 1549 304 1426 -12 1152 -12 c 0
 933 -12 869 283 803 283 c 0xdf
 774 283 750 236 730 141 c 2
 700 0 l 1
 575 0 l 2
 357 0 214 141 214 354 c 0
 214 527 303 881 808 917 c 1
 1171 935 1468 895 1546 1263 c 1
 1786 1263 l 1
 1770 1195 l 1
 1707 984 1600 893 1532 844 c 1
 1460 790 1310 751 1144 739 c 0
 959 726 786 752 606 676 c 1
 536 648 477 513 477 423 c 0xbf
 477 339 523 283 574 273 c 1
 612 450 750 483 820 483 c 0xdf
 926 483 984 402 1035 321 c 1
 1092 234 l 1
 1106 216 1124 211 1144 211 c 0
 1203 211 1259 216 1273 280 c 0
 1274 283 1274 286 1274 289 c 0
 1274 297 1272 304 1268 309 c 1
 1173 309 1116 376 1116 460 c 0
 1116 575 1228 688 1350 688 c 0
 1475 688 1549 603 1549 471 c 0xbf
1326 575 m 0
 1274 575 1232 527 1232 483 c 0xdf
 1232 449 1257 423 1294 423 c 0xbf
 1346 423 1388 471 1388 515 c 0
 1388 549 1363 575 1326 575 c 0
EndSplineSet
EndChar

StartChar: uni0E59
Encoding: 3673 3673 208
Width: 1500
Flags: W
HStem: -16 123<368.04 482.124> 0 21G<799.304 1022> 236 126<422.718 490.861> 538 200<1227.26 1321.56> 724 200<521.973 693.849 1010.9 1177>
VStem: 197 169<110.115 332> 492 133<117.389 235.071>
DStem2: 952 595 723 586 0.116841 -0.993151<-49.5811 573.398>
LayerCount: 2
Fore
SplineSet
197 242 m 0xae
 197 422 288 924 663 924 c 0
 792 924 885 875 917 776 c 1
 981 875 1028 924 1100 924 c 0xae
 1254 924 1196 738 1265 738 c 0
 1340 738 1387 939 1442 1130 c 1
 1654 1130 l 1
 1607 906 1550 836 1499 742 c 1
 1431 626 1338 538 1260 538 c 0x36
 1072 538 1113 724 1063 724 c 0
 1040 724 1003 673 952 595 c 1
 1022 0 l 1
 802 0 l 1x6e
 723 586 l 1
 705 674 691 724 618 724 c 0
 541 724 474 646 453 544 c 0
 446 514 422 384 422 356 c 1
 431 361 463 362 472 362 c 0
 571 362 625 293 625 212 c 0
 625 100 519 -16 390 -16 c 0
 305 -16 197 32 197 242 c 0xae
442 236 m 256
 400 236 366 197 366 158 c 0
 366 128 386 107 415 107 c 0
 455 107 492 147 492 185 c 0
 492 212 475 236 442 236 c 256
EndSplineSet
EndChar

StartChar: uni0E5A
Encoding: 3674 3674 209
Width: 1400
Flags: W
HStem: 0 21G<805 1029.25 1065 1289.25> 657 200<696 852.508> 1023 124<472.092 599.589>
VStem: 318 143<814 1011.85> 601 158<899.328 1021.55>
DStem2: 805 0 1025 0 0.207912 0.978148<45.7406 793.348 1000.2 1174.62> 1065 0 1285 0 0.207912 0.978148<45.7406 1174.62>
LayerCount: 2
Fore
SplineSet
759 1008 m 0
 759 966 734 889 696 857 c 1
 731 857 l 2
 905 857 1024 1032 1049 1149 c 1
 1269 1149 l 1
 1025 0 l 1
 805 0 l 1
 970 776 l 1
 879 683 723 657 627 657 c 0
 391 657 318 759 318 869 c 0
 318 1017 427 1147 591 1147 c 0
 670 1147 759 1103 759 1008 c 0
517 889 m 0
 565 889 601 928 601 973 c 0
 601 1003 579 1023 545 1023 c 0
 499 1023 461 986 461 940 c 0
 461 909 482 889 517 889 c 0
1285 0 m 1
 1065 0 l 1
 1309 1149 l 1
 1529 1149 l 1
 1285 0 l 1
EndSplineSet
EndChar

StartChar: uni0E5B
Encoding: 3675 3675 210
Width: 2370
Flags: W
HStem: -11 233<500.074 853.449> 198 166<1961.71 2400> 272 170<641.832 834.798> 300 315<1142.41 1281.2 1492.64 1623.99> 300 207<1791.15 1879.73> 463 98<663.03 747.679> 643 93<664.224 748.95> 786 200<599.791 864.963>
VStem: 224 199<296.749 589.751> 749 96<562.842 642.283> 909 194<519.168 740.551>
LayerCount: 2
Fore
SplineSet
715 442 m 0xa7e0
 851 442 909 563 909 642 c 0
 909 730 838 786 729 786 c 0
 506 786 423 509 423 424 c 0
 423 346 461 222 657 222 c 0
 1045 222 1103 615 1282 615 c 0
 1354 615 1365 561 1365 508 c 0
 1365 486 1363 464 1363 447 c 0
 1363 425 1366 410 1379 410 c 0
 1457 410 1439 615 1588 615 c 0x93e0
 1701 615 1627 384 1700 384 c 0
 1756 384 1768 507 1868 507 c 0x0be0
 1956 507 1914 364 2056 364 c 2
 2435 364 l 1
 2400 198 l 1
 2015 198 l 2x43e0
 1886 198 1860 300 1840 300 c 0x0be0
 1790 300 1729 94 1620 94 c 0
 1527 94 1573 304 1517 304 c 0
 1472 304 1417 88 1311 88 c 0
 1167 88 1228 300 1198 300 c 0x13e0
 1168 300 1040 -11 638 -11 c 0
 349 -11 224 173 224 374 c 0
 224 410 228 447 236 483 c 0
 321 885 654 986 788 986 c 0
 1041 986 1103 839 1103 708 c 0
 1103 429 856 272 667 272 c 0
 538 272 482 352 482 447 c 0
 482 592 608 736 726 736 c 0
 779 736 845 703 845 628 c 0
 845 529 753 463 679 463 c 0
 665 463 652 465 640 471 c 1
 640 470 l 2
 640 460 668 442 715 442 c 0xa7e0
715 643 m 0
 691 643 663 622 663 594 c 0
 663 577 675 561 699 561 c 0x07e0
 725 561 749 585 749 612 c 0
 749 633 734 643 715 643 c 0
EndSplineSet
EndChar

StartChar: zerowidthjoiner
Encoding: 8205 8205 212
Width: 0
Flags: W
LayerCount: 2
Back
SplineSet
-22 -275 m 1
 -94 -275 l 1
 201 1114 l 1
 38 978 l 1
 -1 1027 l 1
 206 1196 l 1
 71 1364 l 1
 130 1413 l 1
 264 1242 l 1
 470 1413 l 1
 509 1364 l 1
 302 1196 l 1
 437 1027 l 1
 378 978 l 1
 273 1114 l 1
 -22 -275 l 1
EndSplineSet
EndChar

StartChar: afii299
Encoding: 8206 8206 213
Width: 0
Flags: W
LayerCount: 2
Back
SplineSet
685 1198 m 1
 422 984 l 1
 384 1033 l 1
 548 1163 l 1
 282 1163 l 1
 -23 -275 l 1
 -94 -275 l 1
 226 1234 l 1
 563 1234 l 1
 454 1364 l 1
 513 1413 l 1
 685 1198 l 1
EndSplineSet
EndChar

StartChar: afii300
Encoding: 8207 8207 214
Width: 0
Flags: W
LayerCount: 2
Back
SplineSet
-23 -275 m 1
 -94 -275 l 1
 211 1163 l 1
 -55 1163 l 1
 55 1033 l 1
 -5 984 l 1
 -176 1198 l 1
 86 1413 l 1
 125 1364 l 1
 -40 1234 l 1
 297 1234 l 1
 -23 -275 l 1
EndSplineSet
EndChar

StartChar: uni2010
Encoding: 8208 8208 215
Width: 973
Flags: W
HStem: 548 220<353 931>
VStem: 306 672
LayerCount: 2
Fore
SplineSet
353 768 m 1
 978 768 l 1
 931 548 l 1
 306 548 l 1
 353 768 l 1
EndSplineSet
EndChar

StartChar: endash
Encoding: 8211 8211 216
Width: 1125
Flags: W
HStem: 530 220<159 1239>
LayerCount: 2
Fore
SplineSet
1239 530 m 1
 113 530 l 1
 159 750 l 1
 1285 750 l 1
 1239 530 l 1
EndSplineSet
EndChar

StartChar: emdash
Encoding: 8212 8212 217
Width: 1886
Flags: W
HStem: 530 220<159 1983>
LayerCount: 2
Fore
SplineSet
1983 530 m 1
 113 530 l 1
 159 750 l 1
 2029 750 l 1
 1983 530 l 1
EndSplineSet
EndChar

StartChar: horizontalbar
Encoding: 8213 8213 218
Width: 1862
Flags: W
HStem: 577 220<279 1875>
LayerCount: 2
Fore
SplineSet
1875 577 m 1
 233 577 l 1
 279 797 l 1
 1921 797 l 1
 1875 577 l 1
EndSplineSet
EndChar

StartChar: underscoredbl
Encoding: 8215 8215 219
Width: 1118
Flags: W
HStem: -423 130<-78 1044> -212 130<-33 1089>
LayerCount: 2
Fore
SplineSet
1089 -212 m 1
 -61 -212 l 1
 -33 -82 l 1
 1117 -82 l 1
 1089 -212 l 1
1044 -423 m 1
 -106 -423 l 1
 -78 -293 l 1
 1072 -293 l 1
 1044 -423 l 1
EndSplineSet
EndChar

StartChar: quoteleft
Encoding: 8216 8216 220
Width: 450
Flags: W
HStem: 997 559<409 553>
VStem: 267 324
LayerCount: 2
Fore
SplineSet
591 997 m 1
 409 997 l 1
 267 1556 l 1
 553 1556 l 1
 591 997 l 1
EndSplineSet
EndChar

StartChar: quoteright
Encoding: 8217 8217 221
Width: 580
Flags: W
HStem: 997 559
VStem: 264 563
LayerCount: 2
Fore
SplineSet
827 1556 m 1
 447 997 l 1
 264 997 l 1
 540 1556 l 1
 827 1556 l 1
EndSplineSet
EndChar

StartChar: quotesinglbase
Encoding: 8218 8218 222
Width: 432
Flags: W
HStem: -276 559
VStem: -72 563
LayerCount: 2
Fore
SplineSet
491 283 m 1
 111 -276 l 1
 -72 -276 l 1
 204 283 l 1
 491 283 l 1
EndSplineSet
EndChar

StartChar: quotereversed
Encoding: 8219 8219 223
Width: 432
Flags: W
HStem: 997 559
VStem: 148 563
LayerCount: 2
Fore
SplineSet
711 1556 m 1
 435 997 l 1
 148 997 l 1
 528 1556 l 1
 711 1556 l 1
EndSplineSet
EndChar

StartChar: quotedblleft
Encoding: 8220 8220 224
Width: 850
Flags: W
HStem: 997 559<409 550 758 899>
VStem: 267 670
LayerCount: 2
Fore
SplineSet
937 997 m 1
 758 997 l 1
 616 1556 l 1
 899 1556 l 1
 937 997 l 1
588 997 m 1
 409 997 l 1
 267 1556 l 1
 550 1556 l 1
 588 997 l 1
EndSplineSet
EndChar

StartChar: quotedblright
Encoding: 8221 8221 225
Width: 1000
Flags: W
HStem: 997 559
LayerCount: 2
Fore
SplineSet
1227 1556 m 1
 847 997 l 1
 668 997 l 1
 944 1556 l 1
 1227 1556 l 1
878 1556 m 1
 498 997 l 1
 319 997 l 1
 595 1556 l 1
 878 1556 l 1
EndSplineSet
EndChar

StartChar: quotedblbase
Encoding: 8222 8222 226
Width: 814
Flags: W
HStem: -276 559
LayerCount: 2
Fore
SplineSet
886 283 m 1
 506 -276 l 1
 327 -276 l 1
 603 283 l 1
 886 283 l 1
492 283 m 1
 112 -276 l 1
 -67 -276 l 1
 209 283 l 1
 492 283 l 1
EndSplineSet
EndChar

StartChar: dagger
Encoding: 8224 8224 227
Width: 1118
Flags: W
HStem: 998 200<374 667 918 1211>
DStem2: 474 119 694 119 0.207912 0.978148<45.7406 904.809 1142.84 1485.49>
LayerCount: 2
Fore
SplineSet
1211 998 m 1
 877 1003 l 1
 694 119 l 1
 474 119 l 1
 667 1003 l 1
 331 998 l 1
 374 1198 l 1
 708 1193 l 1
 783 1572 l 1
 1003 1572 l 1
 918 1193 l 1
 1254 1198 l 1
 1211 998 l 1
EndSplineSet
EndChar

StartChar: daggerdbl
Encoding: 8225 8225 228
Width: 1118
Flags: W
HStem: 471 200<262 550 811 1099> 1008 200<377 663 926 1212>
DStem2: 467 108 697 108 0.207912 0.978148<47.8197 377.215 617.328 921.084 1171.39 1496.67>
LayerCount: 2
Fore
SplineSet
1099 471 m 1
 770 476 l 1
 697 108 l 1
 467 108 l 1
 550 476 l 1
 219 471 l 1
 262 671 l 1
 591 666 l 1
 663 1008 l 1
 332 1003 l 1
 377 1213 l 1
 706 1208 l 1
 778 1572 l 1
 1008 1572 l 1
 926 1208 l 1
 1257 1213 l 1
 1212 1003 l 1
 883 1008 l 1
 811 666 l 1
 1142 671 l 1
 1099 471 l 1
EndSplineSet
EndChar

StartChar: bullet
Encoding: 8226 8226 229
Width: 950
Flags: W
HStem: 295 734<500.134 714.045>
VStem: 230 752<554.221 768.954>
LayerCount: 2
Fore
SplineSet
684 1029 m 3
 868 1029 982 901 982 739 c 3
 982 489 754 295 528 295 c 3
 352 295 230 416 230 583 c 3
 230 837 463 1029 684 1029 c 3
EndSplineSet
EndChar

StartChar: ellipsis
Encoding: 8230 8230 230
Width: 1650
Flags: W
HStem: -16 255<212 394 770 952 1328 1510>
LayerCount: 2
Fore
SplineSet
1510 -16 m 1
 1274 -16 l 1
 1328 239 l 1
 1564 239 l 1
 1510 -16 l 1
952 -16 m 1
 716 -16 l 1
 770 239 l 1
 1006 239 l 1
 952 -16 l 1
394 -16 m 1
 158 -16 l 1
 212 239 l 1
 448 239 l 1
 394 -16 l 1
EndSplineSet
EndChar

StartChar: perthousand
Encoding: 8240 8240 231
Width: 2848
Flags: W
HStem: -29 200<1488.89 1677.69 2332.89 2521.69> 0 21G<510 725.721> 602 200<532.887 721.687> 686 200<1594.42 1782.64 2438.42 2626.64> 1317 200<638.419 826.645>
VStem: 292 222<819.277 1147.36> 845 223<965.537 1300.23> 1248 222<188.277 516.362> 1801 223<334.537 669.235> 2092 222<188.277 516.362> 2645 223<334.537 669.235>
DStem2: 510 0 711 0 0.592793 0.805355<119.151 1848.87>
LayerCount: 2
Fore
SplineSet
2577 886 m 3x9fe0
 2755 886 2868 801 2868 596 c 3
 2868 203 2636 -29 2383 -29 c 3
 2204 -29 2092 57 2092 262 c 3
 2092 657 2324 886 2577 886 c 3x9fe0
2425 171 m 3
 2528 171 2645 331 2645 561 c 3
 2645 664 2597 686 2535 686 c 3
 2433 686 2314 527 2314 297 c 3
 2314 193 2363 171 2425 171 c 3
1733 886 m 3
 1911 886 2024 801 2024 596 c 3
 2024 203 1792 -29 1539 -29 c 3
 1360 -29 1248 57 1248 262 c 3
 1248 657 1480 886 1733 886 c 3
1581 171 m 3
 1684 171 1801 331 1801 561 c 3
 1801 664 1753 686 1691 686 c 3
 1589 686 1470 527 1470 297 c 3
 1470 193 1519 171 1581 171 c 3
777 1517 m 3
 955 1517 1068 1432 1068 1227 c 3
 1068 834 836 602 583 602 c 3x2fe0
 404 602 292 688 292 893 c 3
 292 1288 524 1517 777 1517 c 3
1807 1489 m 1
 711 0 l 1
 510 0 l 1x4fe0
 1606 1489 l 1
 1807 1489 l 1
625 802 m 3x2fe0
 728 802 845 962 845 1192 c 3
 845 1295 797 1317 735 1317 c 3
 633 1317 514 1158 514 928 c 3
 514 824 563 802 625 802 c 3x2fe0
EndSplineSet
EndChar

StartChar: minute
Encoding: 8242 8242 232
Width: 602
Flags: W
HStem: 870 619
VStem: 277 610
LayerCount: 2
Fore
SplineSet
887 1489 m 1
 458 870 l 1
 277 870 l 1
 602 1489 l 1
 887 1489 l 1
EndSplineSet
EndChar

StartChar: second
Encoding: 8243 8243 233
Width: 972
Flags: W
HStem: 870 619
LayerCount: 2
Fore
SplineSet
883 1489 m 1
 454 870 l 1
 277 870 l 1
 602 1489 l 1
 883 1489 l 1
1277 1489 m 1
 848 870 l 1
 671 870 l 1
 996 1489 l 1
 1277 1489 l 1
EndSplineSet
EndChar

StartChar: guilsinglleft
Encoding: 8249 8249 234
Width: 784
Flags: W
VStem: 235 662
DStem2: 466 652 235 601 0.69055 -0.723285<0 379.795> 257 704 466 652 0.810212 0.586137<138.855 607.337>
LayerCount: 2
Fore
SplineSet
678 137 m 1
 235 601 l 1
 257 704 l 1
 897 1167 l 1
 846 926 l 1
 466 652 l 1
 729 378 l 1
 678 137 l 1
EndSplineSet
EndChar

StartChar: guilsinglright
Encoding: 8250 8250 235
Width: 784
Flags: W
VStem: 164 663
DStem2: 215 378 164 137 0.810046 0.586367<0 469.292> 383 1167 332 926 0.692142 -0.721761<138.645 519.133>
LayerCount: 2
Fore
SplineSet
805 601 m 1
 164 137 l 1
 215 378 l 1
 596 652 l 1
 332 926 l 1
 383 1167 l 1
 827 704 l 1
 805 601 l 1
EndSplineSet
EndChar

StartChar: uni203E
Encoding: 8254 8254 237
Width: 1118
Flags: W
HStem: 1642 163<336 1467>
LayerCount: 2
Fore
SplineSet
1467 1642 m 1
 301 1642 l 1
 336 1805 l 1
 1502 1805 l 1
 1467 1642 l 1
EndSplineSet
EndChar

StartChar: fraction
Encoding: 8260 8260 238
Width: 886
Flags: W
HStem: 0 21G<-47 168.735>
DStem2: -47 0 154 0 0.593144 0.805097<119.222 1849.47>
LayerCount: 2
Fore
SplineSet
1251 1489 m 1
 154 0 l 1
 -47 0 l 1
 1050 1489 l 1
 1251 1489 l 1
EndSplineSet
EndChar

StartChar: uni207F
Encoding: 8319 8319 239
Width: 1010
Flags: W
HStem: 1319 200<733.958 924.878>
VStem: 937 227<1005.25 1303.36>
DStem2: 229 566 449 566 0.207912 0.978148<45.7406 752.666 904.601 942.603> 806 566 1026 566 0.207912 0.978148<45.7406 667.149>
LayerCount: 2
Fore
SplineSet
909 1519 m 3
 1007 1519 1164 1485 1164 1271 c 0
 1164 1235 1160 1194 1150 1147 c 2
 1026 566 l 1
 806 566 l 1
 914 1072 l 2
 927 1134 937 1184 937 1222 c 0
 937 1288 908 1319 821 1319 c 3
 776 1319 712 1310 587 1213 c 1
 449 566 l 1
 229 566 l 1
 425 1488 l 1
 645 1488 l 1
 628 1406 l 1
 769 1514 852 1519 909 1519 c 3
EndSplineSet
EndChar

StartChar: dottedcircle
Encoding: 9676 9676 240
Width: 1247
Flags: W
HStem: -9 153<562.756 689.793> 52 153<868.793 995.607> 82 153<317.28 443.236> 218 153<1069.79 1196.61> 233 153<205.79 333.717> 429 153<126.756 252.509 1193.9 1320.36> 663 153<190.79 318.717 1225.79 1352.51> 852 153<336.793 463.607> 875 153<1164.76 1291.79> 995 153<557.28 683.236> 1018 153<1007.28 1133.47> 1063 153<796.79 923.509>
VStem: 111 157<445.203 566> 176 157<679.084 800.232> 191 157<249.084 370.232> 302 157<98.2029 219.232> 322 157<867.778 989.222> 547 157<6.80477 128.232 1015.15 1135.63> 782 157<1079.2 1200.23> 854 157<67.7781 189.222> 992 157<1034.14 1155.23> 1055 157<233.778 355.222> 1149 157<890.805 1012.23> 1174 157<438.203 559.232> 1211 157<679.203 800.232>
LayerCount: 2
Fore
SplineSet
479 946 m 0x0700c0
 479 891 430 852 384 852 c 0
 346 852 322 877 322 911 c 0
 322 964 369 1005 417 1005 c 0
 456 1005 479 980 479 946 c 0x0700c0
699 1089 m 0
 699 1033 648 995 603 995 c 0
 565 995 542 1020 542 1054 c 0
 542 1107 589 1148 636 1148 c 0x064040
 672 1148 699 1125 699 1089 c 0
939 1157 m 0x061060
 939 1101 889 1063 844 1063 c 0
 806 1063 782 1088 782 1122 c 0
 782 1175 829 1216 876 1216 c 0
 912 1216 939 1193 939 1157 c 0x061060
268 523 m 0x060840
 268 467 218 429 173 429 c 0
 135 429 111 454 111 488 c 0
 111 541 159 582 206 582 c 0
 242 582 268 559 268 523 c 0x060840
348 325 m 0x0e0240
 348 271 298 233 253 233 c 0
 215 233 191 258 191 292 c 0
 191 345 238 386 285 386 c 0
 323 386 348 359 348 325 c 0x0e0240
459 176 m 0x260140
 459 120 408 82 363 82 c 0
 325 82 302 107 302 141 c 0
 302 194 348 235 396 235 c 0
 432 235 459 212 459 176 c 0x260140
704 83 m 0
 704 28 654 -9 609 -9 c 0
 571 -9 547 16 547 50 c 0
 547 103 595 144 642 144 c 0x860040
 680 144 704 117 704 83 c 0
1011 146 m 0x460050
 1011 91 962 52 916 52 c 0
 878 52 854 77 854 111 c 0
 854 164 901 205 949 205 c 0
 988 205 1011 180 1011 146 c 0x460050
1212 312 m 0x160044
 1212 257 1163 218 1117 218 c 0
 1079 218 1055 243 1055 277 c 0
 1055 330 1102 371 1150 371 c 0
 1189 371 1212 346 1212 312 c 0x160044
1331 516 m 0x060041
 1331 460 1281 422 1236 422 c 0
 1198 422 1174 447 1174 481 c 0
 1174 534 1220 575 1268 575 c 0
 1304 575 1331 552 1331 516 c 0x060041
1368 757 m 0x06004080
 1368 701 1318 663 1273 663 c 0
 1235 663 1211 688 1211 722 c 0
 1211 775 1258 816 1305 816 c 0
 1341 816 1368 793 1368 757 c 0x06004080
1306 967 m 0x068042
 1306 912 1256 875 1211 875 c 0x06804080
 1173 875 1149 900 1149 934 c 0
 1149 987 1197 1028 1244 1028 c 0
 1282 1028 1306 1001 1306 967 c 0x068042
1149 1111 m 0x062048
 1149 1056 1099 1018 1053 1018 c 0
 1015 1018 992 1043 992 1077 c 0
 992 1130 1038 1171 1086 1171 c 0
 1126 1171 1149 1145 1149 1111 c 0x062048
333 755 m 0x060440
 333 701 283 663 238 663 c 0
 200 663 176 688 176 722 c 0
 176 775 223 816 270 816 c 0
 308 816 333 789 333 755 c 0x060440
EndSplineSet
EndChar

StartChar: uni0E10.descless
Encoding: 63232 63232 241
Width: 1130
Flags: W
HStem: -10 200<545.005 730.93> 260 113<319.3 405.761> 541 123<337.399 518.5> 864 200<943.532 1130.04> 949 200<561.111 881.183>
VStem: 200 119<374.855 527.902> 395 224<121.5 366.084> 447 219<323.412 539.656> 800 233<389.516 697.5>
DStem2: 683.432 -10 904.08 -10 0.207912 0.978148<200.886 570.745>
LayerCount: 2
Fore
SplineSet
401 541 m 0xe580
 335 541 319 456 319 424 c 0
 319 390 335 373 365 373 c 0
 431 373 447 458 447 490 c 0
 447 524 431 541 401 541 c 0xe580
200 393 m 0
 200 464 254 664 474 664 c 0
 563 664 666 629 666 499 c 0xed80
 666 480 663 457 658 433 c 2
 622 263 l 2
 620 253 619 243 619 235 c 0xee80
 619 205 634 190 666 190 c 0
 706 190 731 213 741 259 c 2
 798 529 l 2
 800 536 800 543 800 549 c 0
 800 572 790 590 769 603 c 1
 697 636 l 1
 596 672 428 707 195 742 c 1
 292 976 457 1149 750 1149 c 0xed80
 949 1149 953 1064 1125 1064 c 0
 1152 1064 1178 1067 1202 1072 c 1
 1120 872 l 1
 1099 867 1072 864 1044 864 c 0xf580
 906 864 855 949 697 949 c 0
 624 949 573 929 547 892 c 1
 846 832 1033 775 1033 620 c 0
 1033 605 1031 590 1028 573 c 2
 965 279 l 2
 924 86 811 -10 624 -10 c 0
 471 -10 395 56 395 187 c 0xee80
 395 228 403 268 407 289 c 1
 383 267 346 260 322 260 c 0
 267 262 200 303 200 393 c 0
EndSplineSet
EndChar

StartChar: uni0E48.low
Encoding: 63242 63242 251
Width: 0
Flags: W
HStem: 1309 280<-12 159>
VStem: -72 291
AnchorPoint: "AboveBase" 142 1227 mark 0
LayerCount: 2
Fore
SplineSet
-12 1589 m 1
 219 1589 l 1
 159 1309 l 1
 -72 1309 l 1
 -12 1589 l 1
EndSplineSet
EndChar

StartChar: uni0E49.low
Encoding: 63243 63243 252
Width: 0
Flags: W
HStem: 1420 88<-387.813 -334.108> 1615 97<-384.95 -278.457>
VStem: -486 97<1508.75 1612> -277 124<1512.2 1614.85>
AnchorPoint: "AboveBase" 21 1227 mark 0
LayerCount: 2
Fore
SplineSet
-486 1533 m 0
 -486 1635 -402 1712 -312 1712 c 0
 -209 1712 -153 1645 -153 1577 c 0
 -153 1547 -172 1488 -190 1457 c 1
 -124 1470 17 1530 109 1698 c 1
 291 1698 l 1
 188 1473 -64 1303 -354 1258 c 0
 -386 1253 -422 1249 -463 1245 c 1
 -441 1352 l 1
 -381 1366 -345 1394 -333 1427 c 1
 -348 1422 -362 1420 -377 1420 c 0
 -447 1420 -486 1468 -486 1533 c 0
-322 1615 m 0
 -375 1615 -389 1571 -389 1547 c 0
 -389 1522 -373 1508 -344 1508 c 0
 -291 1508 -277 1556 -277 1577 c 0
 -277 1602 -293 1615 -322 1615 c 0
EndSplineSet
EndChar

StartChar: uni0E4A.low
Encoding: 63244 63244 253
Width: 0
Flags: W
HStem: 1247 89<-419.5 -252.977> 1416 77<-331.163 -254.425>
VStem: -514 180<1336.45 1478.42> -252 76<1337.74 1415.22> 67 159<1415 1552.36>
AnchorPoint: "AboveBase" 261 1227 mark 0
LayerCount: 2
Fore
SplineSet
-284 1416 m 0
 -324 1416 -334 1380 -334 1365 c 0
 -334 1347 -322 1336 -301 1336 c 0
 -262 1336 -252 1371 -252 1383 c 0
 -252 1399 -262 1416 -284 1416 c 0
-176 1407 m 0
 -176 1312 -252 1247 -358 1247 c 0
 -481 1247 -514 1328 -514 1403 c 0
 -514 1601 -312 1704 -225 1733 c 1
 -110 1615 l 1
 57 1733 l 1
 150 1695 226 1625 226 1540 c 0
 226 1514 220 1501 219 1497 c 1
 371 1748 l 1
 551 1748 l 2
 550 1748 483 1636 350 1411 c 1
 260 1262 54 1251 -5 1251 c 1
 56 1322 67 1394 67 1436 c 0
 67 1502 38 1541 20 1555 c 1
 -148 1437 l 1
 -262 1555 l 1
 -294 1544 -335 1511 -348 1465 c 1
 -323 1484 -295 1493 -264 1493 c 2
 -262 1493 l 2
 -207 1493 -176 1461 -176 1407 c 0
EndSplineSet
EndChar

StartChar: uni0E4B.low
Encoding: 63245 63245 254
Width: 0
Flags: W
HStem: 1348 174<-146 -52 157 243>
VStem: -183 463
AnchorPoint: "AboveBase" 201 1227 mark 0
LayerCount: 2
Fore
SplineSet
243 1348 m 1
 120 1348 l 1
 93 1225 l 1
 -79 1225 l 1
 -52 1348 l 1
 -183 1348 l 1
 -146 1522 l 1
 -15 1522 l 1
 12 1651 l 1
 184 1651 l 1
 157 1522 l 1
 280 1522 l 1
 243 1348 l 1
EndSplineSet
EndChar

StartChar: uni0E4C.low
Encoding: 63246 63246 255
Width: 0
Flags: W
HStem: 1250 112<-268.554 -137.631>
VStem: -407 136<1364.79 1475.68> -128 133<1373.62 1484.61>
AnchorPoint: "AboveBase" -39 1227 mark 0
LayerCount: 2
Fore
SplineSet
5 1454 m 0
 5 1354 -95 1250 -214 1250 c 0
 -333 1250 -407 1310 -407 1398 c 0
 -407 1410 -406 1422 -403 1434 c 0
 -337 1747 17 1606 164 1798 c 1
 344 1798 l 1
 259 1651 47 1550 -41 1547 c 1
 -14 1531 5 1497 5 1454 c 0
-212 1362 m 0
 -174 1362 -128 1391 -128 1436 c 0
 -128 1465 -151 1486 -186 1486 c 0
 -225 1486 -271 1457 -271 1412 c 0
 -271 1383 -248 1362 -212 1362 c 0
EndSplineSet
EndChar

StartChar: uni0E0D.descless
Encoding: 63247 63247 256
Width: 1745
Flags: W
HStem: -10 120<412.924 595.249> 0 200<1178 1403> 280 111<538.994 645> 949 200<713.421 1016.24>
VStem: 288 201<111.55 266.136> 614 131<124.639 278.43> 1067 227<542.023 897.461>
DStem2: 912.874 -10 1133.36 -10 0.207912 0.978148<260.534 786.727> 1358.36 -10 1577.87 -10 0.207912 0.978148<214.692 1174.55>
LayerCount: 2
Fore
SplineSet
745 255 m 0x7e
 745 140 652 -10 482 -10 c 0xbe
 335 -10 288 57 288 165 c 0
 288 205 294 252 305 303 c 2
 319 366 l 1
 352 523 382 560 512 671 c 1
 477 726 419 767 339 792 c 1
 389 912 605 1149 921 1149 c 0
 1159 1149 1294 1028 1294 810 c 0
 1294 768 1288 722 1278 673 c 2
 1178 200 l 1
 1403 200 l 1
 1602 1139 l 1
 1822 1139 l 1
 1580 0 l 1
 915 0 l 1
 1055 657 l 2
 1063 696 1067 732 1067 763 c 0
 1067 885 1005 949 879 949 c 0
 773 949 686 906 620 831 c 1
 686 795 727 739 740 663 c 1
 601 541 574 534 538 363 c 1
 560 383 585 391 619 391 c 0
 671 391 745 353 745 255 c 0x7e
533 110 m 0
 582 110 614 173 614 222 c 0
 614 253 601 280 570 280 c 0
 522 280 489 216 489 174 c 0
 489 141 504 110 533 110 c 0
EndSplineSet
EndChar

StartChar: uniF71B
Encoding: 63259 63259 268
Width: 1000
Flags: W
HStem: 1065 20G<441.742 1061>
DStem2: 228 61 843 61 0.207912 0.978148<127.866 1046.95>
LayerCount: 2
Fore
SplineSet
1061 1085 m 1
 843 61 l 1
 228 61 l 1
 446 1085 l 1
 1061 1085 l 1
EndSplineSet
EndChar

StartChar: uniF71C
Encoding: 63260 63260 269
Width: 700
Flags: W
HStem: -423 269
VStem: 7 491
LayerCount: 2
Fore
SplineSet
7 -423 m 1
 201 -154 l 1
 498 -154 l 1
 200 -423 l 1
 7 -423 l 1
EndSplineSet
EndChar

StartChar: uniF71D
Encoding: 63261 63261 270
Width: 800
Flags: W
HStem: -236 211<177 244 476 566> -150 125<262 476>
VStem: 132 479
LayerCount: 2
Fore
SplineSet
566 -236 m 1xa0
 458 -236 l 1xa0
 476 -150 l 1
 262 -150 l 1x60
 244 -236 l 1
 132 -236 l 1
 177 -25 l 1xa0
 611 -25 l 1x60
 566 -236 l 1xa0
EndSplineSet
EndChar

StartChar: zerowidthnonjoiner
Encoding: 8204 8204 271
Width: 0
Flags: W
LayerCount: 2
Back
SplineSet
310 1289 m 1
 -22 -275 l 1
 -94 -275 l 1
 238 1289 l 1
 310 1289 l 1
EndSplineSet
EndChar

StartChar: ff
Encoding: 64256 64256 274
Width: 1024
Flags: W
HStem: 0 21G<157 381.246 726 950.246> 862 200<245 340 603 909 1172 1288> 1315 200<699.686 1019.26 1253.43 1488.91>
DStem2: 157 0 377 0 0.207912 0.978148<45.7406 881.211 1131.52 1340.33> 726 0 946 0 0.207912 0.978148<45.7406 881.211 1131.52 1337.54>
LayerCount: 2
Fore
SplineSet
618 1132 m 2
 603 1062 l 1
 952 1062 l 1
 976 1175 l 2
 987 1226 1002 1270 1021 1307 c 1
 982 1314 949 1315 934 1315 c 3
 718 1315 648 1271 618 1132 c 2
1173 1470 m 1
 1234 1503 1298 1515 1353 1515 c 3
 1420 1515 1478 1506 1525 1488 c 1
 1483 1288 l 1
 1427 1307 1408 1315 1373 1315 c 3
 1287 1315 1217 1271 1187 1132 c 2
 1172 1062 l 1
 1331 1062 l 1
 1288 862 l 1
 1129 862 l 1
 946 0 l 1
 726 0 l 1
 909 862 l 1
 560 862 l 1
 377 0 l 1
 157 0 l 1
 340 862 l 1
 202 862 l 1
 245 1062 l 1
 383 1062 l 1
 407 1175 l 2
 465 1447 652 1515 914 1515 c 3
 970 1515 1101 1509 1173 1470 c 1
EndSplineSet
LCarets2: 1 0 
Ligature2: "'liga' Standard Ligatures lookup 0" f f
EndChar

StartChar: fi
Encoding: 64257 64257 275
Width: 1024
Flags: W
HStem: 0 21G<157 381.246 685 909.256> 862 200<245 340 603 868> 1315 200<699.686 1129.64>
DStem2: 157 0 377 0 0.207912 0.978148<45.7406 881.211 1131.52 1340.33> 685 0 905 0 0.207912 0.978148<45.7406 881.211>
LayerCount: 2
Fore
SplineSet
934 1315 m 3
 718 1315 648 1271 618 1132 c 2
 603 1062 l 1
 1131 1062 l 1
 905 0 l 1
 685 0 l 1
 868 862 l 1
 560 862 l 1
 377 0 l 1
 157 0 l 1
 340 862 l 1
 202 862 l 1
 245 1062 l 1
 383 1062 l 1
 407 1175 l 2
 465 1447 652 1515 914 1515 c 3
 981 1515 1157 1506 1208 1443 c 1
 1165 1243 l 1
 1106 1307 969 1315 934 1315 c 3
EndSplineSet
LCarets2: 1 0 
Ligature2: "'liga' Standard Ligatures lookup 0" f i
EndChar

StartChar: fl
Encoding: 64258 64258 276
Width: 1024
Flags: W
HStem: 0 21G<157 381.246 681 905.256> 862 200<245 340 603 719> 1315 200<703.208 957.951>
DStem2: 157 0 377 0 0.207912 0.978148<45.7406 881.211 1131.52 1340.33> 681 0 901 0 0.207912 0.978148<45.7406 1341.34>
LayerCount: 2
Fore
SplineSet
618 1132 m 2
 603 1062 l 1
 762 1062 l 1
 719 862 l 1
 560 862 l 1
 377 0 l 1
 157 0 l 1
 340 862 l 1
 202 862 l 1
 245 1062 l 1
 383 1062 l 1
 407 1175 l 2
 465 1447 652 1515 914 1515 c 3
 981 1515 1158 1506 1213 1466 c 1
 901 0 l 1
 681 0 l 1
 960 1312 l 1
 934 1314 912 1315 890 1315 c 3
 721 1315 644 1254 618 1132 c 2
EndSplineSet
LCarets2: 1 0 
Ligature2: "'liga' Standard Ligatures lookup 0" f l
EndChar

StartChar: ffi
Encoding: 64259 64259 277
Width: 1593
Flags: W
HStem: 0 21G<157 381.246 726 950.246 1254 1478.26> 862 200<245 340 603 909 1172 1437> 1315 200<699.686 1018.01 1266.4 1698.64>
DStem2: 157 0 377 0 0.207912 0.978148<45.7406 881.211 1131.52 1340.33> 726 0 946 0 0.207912 0.978148<45.7406 881.211 1131.52 1337.89> 1254 0 1474 0 0.207912 0.978148<45.7406 881.211>
LayerCount: 2
Fore
SplineSet
618 1132 m 2
 603 1062 l 1
 952 1062 l 1
 976 1175 l 2
 987 1226 1002 1270 1021 1307 c 1
 982 1314 949 1315 934 1315 c 3
 718 1315 648 1271 618 1132 c 2
1184 1464 m 1
 1266 1502 1367 1515 1483 1515 c 3
 1550 1515 1726 1506 1777 1443 c 1
 1734 1243 l 1
 1675 1307 1538 1315 1503 1315 c 3
 1287 1315 1217 1271 1187 1132 c 2
 1172 1062 l 1
 1700 1062 l 1
 1474 0 l 1
 1254 0 l 1
 1437 862 l 1
 1129 862 l 1
 946 0 l 1
 726 0 l 1
 909 862 l 1
 560 862 l 1
 377 0 l 1
 157 0 l 1
 340 862 l 1
 202 862 l 1
 245 1062 l 1
 383 1062 l 1
 407 1175 l 2
 465 1447 652 1515 914 1515 c 3
 973 1515 1116 1509 1184 1464 c 1
EndSplineSet
LCarets2: 2 0 0 
Ligature2: "'liga' Standard Ligatures lookup 0" ff i
Ligature2: "'liga' Standard Ligatures lookup 0" f f i
EndChar

StartChar: ffl
Encoding: 64260 64260 278
Width: 1593
Flags: W
HStem: 0 21G<157 381.246 726 950.246 1250 1474.26> 862 200<245 340 603 909 1172 1288> 1315 200<699.686 1018.01 1272.12 1526.95>
DStem2: 157 0 377 0 0.207912 0.978148<45.7406 881.211 1131.52 1340.33> 726 0 946 0 0.207912 0.978148<45.7406 881.211 1131.52 1337.89> 1250 0 1470 0 0.207912 0.978148<45.7406 1341.34>
LayerCount: 2
Fore
SplineSet
1187 1132 m 2
 1172 1062 l 1
 1331 1062 l 1
 1288 862 l 1
 1129 862 l 1
 946 0 l 1
 726 0 l 1
 909 862 l 1
 560 862 l 1
 377 0 l 1
 157 0 l 1
 340 862 l 1
 202 862 l 1
 245 1062 l 1
 383 1062 l 1
 407 1175 l 2
 465 1447 652 1515 914 1515 c 3
 973 1515 1116 1509 1184 1464 c 1
 1266 1502 1367 1515 1483 1515 c 3
 1550 1515 1727 1506 1782 1466 c 1
 1470 0 l 1
 1250 0 l 1
 1529 1312 l 1
 1503 1314 1481 1315 1459 1315 c 3
 1290 1315 1213 1254 1187 1132 c 2
1021 1307 m 1
 982 1314 949 1315 934 1315 c 3
 718 1315 648 1271 618 1132 c 2
 603 1062 l 1
 952 1062 l 1
 976 1175 l 2
 987 1226 1002 1270 1021 1307 c 1
EndSplineSet
LCarets2: 2 0 0 
Ligature2: "'liga' Standard Ligatures lookup 0" ff l
Ligature2: "'liga' Standard Ligatures lookup 0" f f l
EndChar

StartChar: dotlessi
Encoding: 305 305 279
Width: 455
Flags: W
HStem: 0 21G<116 340.256> 1042 20G<337.744 562>
VStem: 116 446
DStem2: 116 0 336 0 0.207912 0.978148<45.7406 1085.78>
LayerCount: 2
Fore
SplineSet
116 0 m 1
 342 1062 l 1
 562 1062 l 1
 336 0 l 1
 116 0 l 1
EndSplineSet
EndChar

StartChar: dotlessj
Encoding: 567 567 280
Width: 455
Flags: W
HStem: -428 200<-144.924 40.7304> 1042 20G<341.749 566>
DStem2: 29.2769 -428 249.354 -428 0.207912 0.978148<240.904 1523.29>
LayerCount: 2
Fore
SplineSet
328 -58 m 2
 269 -336 139 -428 -26 -428 c 3
 -83 -428 -135 -423 -182 -412 c 1
 -141 -220 l 1
 -107 -225 -78 -228 -69 -228 c 3
 16 -228 83 -176 116 -20 c 2
 346 1062 l 1
 566 1062 l 1
 328 -58 l 2
EndSplineSet
EndChar

StartChar: ae
Encoding: 230 230 281
Width: 1839
Flags: W
HStem: -13 200<380.555 700.257 1175.53 1500.85> 475 200<1150 1674> 895 200<584.596 899.139 1293.21 1616.04>
VStem: 128 229<216.354 378.814> 1674 215<676.056 841.117>
LayerCount: 2
Fore
SplineSet
1672 675 m 1
 1674 689 1674 702 1674 715 c 3
 1674 832 1607 895 1462 895 c 3
 1305 895 1184 795 1150 675 c 1
 1672 675 l 1
1889 708 m 3
 1889 636 1873 542 1854 475 c 1
 1102 475 l 1
 1099 455 1098 436 1098 417 c 3
 1098 284 1170 187 1322 187 c 3
 1515 187 1574 293 1591 333 c 1
 1819 333 l 1
 1731 118 1536 -13 1278 -13 c 3
 1097 -13 977 46 915 155 c 1
 793 49 622 -13 434 -13 c 3
 194 -13 128 110 128 223 c 3
 128 469 350 599 627 633 c 0
 738 646 837 666 924 695 c 1
 928 717 930 737 930 755 c 3
 930 853 874 895 748 895 c 3
 612 895 516 818 475 738 c 1
 268 768 l 1
 362 991 537 1095 817 1095 c 3
 987 1095 1096 1067 1140 972 c 1
 1239 1051 1362 1095 1504 1095 c 3
 1755 1095 1889 948 1889 708 c 3
357 286 m 3
 357 208 458 187 527 187 c 3
 715 187 830 262 869 444 c 2
 880 495 l 1
 648 416 357 469 357 286 c 3
EndSplineSet
EndChar

StartChar: oe
Encoding: 339 339 282
Width: 1890
Flags: W
HStem: -13 200<457.187 771.802 1243.97 1568.85> 475 200<1218 1742> 895 200<590.488 906.557 1359.77 1684.04>
VStem: 163 223<255.151 648.457> 1742 215<676.056 841.117>
LayerCount: 2
Fore
SplineSet
756 895 m 3
 498 895 386 652 386 404 c 3
 386 281 439 187 606 187 c 3
 864 187 975 431 975 679 c 3
 975 801 923 895 756 895 c 3
1957 708 m 3
 1957 636 1941 542 1922 475 c 1
 1170 475 l 1
 1167 455 1166 436 1166 417 c 3
 1166 284 1238 187 1390 187 c 3
 1583 187 1642 293 1659 333 c 1
 1887 333 l 1
 1799 118 1604 -13 1346 -13 c 3
 1167 -13 1046 45 984 152 c 1
 877 44 735 -13 563 -13 c 3
 300 -13 163 120 163 363 c 3
 163 809 439 1095 799 1095 c 3
 975 1095 1094 1035 1154 923 c 1
 1261 1032 1403 1095 1572 1095 c 3
 1823 1095 1957 948 1957 708 c 3
1740 675 m 1
 1742 689 1742 702 1742 715 c 3
 1742 832 1675 895 1530 895 c 3
 1373 895 1252 795 1218 675 c 1
 1740 675 l 1
EndSplineSet
EndChar

StartChar: OE
Encoding: 338 338 283
Width: 2158
Flags: W
HStem: -13 220<608.027 936.263 1371 2014> 626 220<1504 1971> 1230 220<1585 2275> 1262 220<813.156 1129.94>
VStem: 235 242<349.702 823.394>
LayerCount: 2
Fore
SplineSet
985 1262 m 3xd8
 682 1262 477 906 477 553 c 3
 477 336 591 207 758 207 c 3
 1076 207 1259 581 1259 910 c 3
 1259 1129 1153 1262 985 1262 c 3xd8
711 -13 m 3
 427 -13 235 198 235 520 c 3
 235 1085 643 1482 1030 1482 c 3xd8
 1171 1482 1288 1433 1370 1344 c 1
 1392 1450 l 1
 2322 1450 l 1
 2275 1230 l 1
 1585 1230 l 1xe8
 1504 846 l 1
 2018 846 l 1
 1971 626 l 1
 1457 626 l 1
 1371 219 l 1
 2061 219 l 1
 2014 0 l 1
 1084 0 l 1
 1110 124 l 1
 990 36 854 -13 711 -13 c 3
EndSplineSet
EndChar

StartChar: AE
Encoding: 198 198 284
Width: 1951
Flags: W
HStem: 0 220<1164 1807> 443 220<716 971> 626 220<1297 1764> 1230 220<1100 1138 1378 2068>
DStem2: -2 0 273 0 0.556022 0.831167<152.906 687.364 950.288 1635.07> 877 0 1117.24 0 0.207912 0.978148<274.863 452.863 677.827 689.871 914.836 1257.39>
LayerCount: 2
Fore
SplineSet
968 1450 m 1xd0
 2115 1450 l 1
 2068 1230 l 1
 1378 1230 l 1
 1297 846 l 1
 1811 846 l 1
 1764 626 l 1
 1250 626 l 1xb0
 1164 220 l 1
 1854 220 l 1
 1807 0 l 1
 877 0 l 1
 971 443 l 1
 572 443 l 1
 273 0 l 1
 -2 0 l 1
 968 1450 l 1xd0
1138 1230 m 1
 1100 1230 l 1
 716 663 l 1
 1018 663 l 1xd0
 1138 1230 l 1
EndSplineSet
EndChar

StartChar: questiondown
Encoding: 191 191 285
Width: 1139
Flags: W
HStem: 0 220<466.198 734.972> 1123 20G<672.5 936> 1269 235<751 975>
VStem: 169 244<272.056 512.787>
DStem2: 696 1143 936 1143 0.150617 0.988592<-181.785 0 166.585 356.569>
LayerCount: 2
Fore
SplineSet
561 0 m 3
 325 0 169 125 169 327 c 3
 169 460 195 552 384 722 c 0
 503 828 649 924 696 1143 c 1
 936 1143 l 1
 882 889 760 790 645 701 c 0
 447 547 413 455 413 373 c 3
 413 253 538 220 605 220 c 3
 732 220 875 371 893 458 c 1
 1133 458 l 1
 1079 204 833 0 561 0 c 3
1025 1504 m 1
 975 1269 l 1
 701 1269 l 1
 751 1504 l 1
 1025 1504 l 1
EndSplineSet
EndChar

StartChar: guillemotright
Encoding: 187 187 286
Width: 1174
Flags: W
HStem: 1128 20G<326.739 350.058>
DStem2: 169 386 120 156 0.808907 0.587937<0 451.642> 331 1148 282 918 0.689858 -0.723945<132.704 499.118> 595 365 544 127 0.80493 0.59337<0 479.39> 767 1177 717 939 0.682758 -0.730644<139.755 528.333>
LayerCount: 2
Fore
SplineSet
120 156 m 1
 169 386 l 1
 534 652 l 1
 282 918 l 1
 331 1148 l 1
 756 702 l 1
 735 603 l 1
 120 156 l 1
544 127 m 1
 595 365 l 1
 979 652 l 1
 717 939 l 1
 767 1177 l 1
 1209 704 l 1
 1187 601 l 1
 544 127 l 1
EndSplineSet
EndChar

StartChar: trademark
Encoding: 8482 8482 287
Width: 1820
Flags: W
HStem: 1250 200<356 554 774 1015>
DStem2: 417 605 637 605 0.207912 0.978148<45.7406 659.389> 975 605 1195 605 0.207912 0.978148<45.7406 335.031>
LayerCount: 2
Fore
SplineSet
1460 605 m 1
 1308 605 l 1
 1255 888 l 1
 1195 605 l 1
 975 605 l 1
 1154 1450 l 1
 1359 1450 l 1
 1453 930 l 1
 1767 1450 l 1
 1972 1450 l 1
 1793 605 l 1
 1573 605 l 1
 1633 888 l 1
 1460 605 l 1
417 605 m 1
 554 1250 l 1
 314 1250 l 1
 356 1450 l 1
 1057 1450 l 1
 1015 1250 l 1
 774 1250 l 1
 637 605 l 1
 417 605 l 1
EndSplineSet
EndChar

StartChar: Thorn
Encoding: 222 222 288
Width: 1366
Flags: W
HStem: 0 21G<158 402.276> 290 220<506 1047.01> 940 220<650 1125.09> 1430 20G<461.752 711>
VStem: 1198 249<637.603 881.995>
DStem2: 158 0 398 0 0.207912 0.978148<49.8988 346.452 571.209 1010.94 1236.94 1482.35>
LayerCount: 2
Fore
SplineSet
790 290 m 2
 460 290 l 1
 398 0 l 1
 158 0 l 1
 466 1450 l 1
 711 1450 l 1
 650 1160 l 1
 958 1160 l 2
 1322 1160 1447 1042 1447 855 c 3
 1447 411 1089 290 790 290 c 2
1198 781 m 3
 1198 906 1076 940 887 940 c 2
 598 940 l 1
 506 510 l 1
 799 510 l 2
 1080 510 1198 624 1198 781 c 3
EndSplineSet
EndChar

StartChar: thorn
Encoding: 254 254 289
Width: 1139
Flags: W
HStem: -13 200<504.521 737.85> 895 200<641.912 882.357> 1446 20G<427.744 652>
VStem: 951 223<441.406 825.297>
DStem2: 37 -390 257 -390 0.207912 0.978148<45.7406 532.338 1465.72 1897.57>
LayerCount: 2
Fore
SplineSet
588 -13 m 3
 501 -13 422 22 358 86 c 1
 257 -390 l 1
 37 -390 l 1
 432 1466 l 1
 652 1466 l 1
 552 999 l 1
 622 1048 710 1095 815 1095 c 3
 1056 1095 1174 942 1174 711 c 3
 1174 303 914 -13 588 -13 c 3
757 895 m 3
 662 895 441 746 441 423 c 3
 441 285 503 187 614 187 c 3
 723 187 951 333 951 669 c 3
 951 811 884 895 757 895 c 3
EndSplineSet
EndChar

StartChar: Eth
Encoding: 208 208 290
Width: 1479
Flags: W
HStem: 0 220<455 935.28> 616 220<196 299 586 849> 1230 220<669 1145.97>
VStem: 1313 252<650.187 1073.39>
DStem2: 168 0 408.238 0 0.207912 0.978148<274.863 629.775 904.639 1307.29>
LayerCount: 2
Fore
SplineSet
722 220 m 2
 1144 220 1313 607 1313 886 c 3
 1313 1108 1180 1230 931 1230 c 2
 669 1230 l 1
 586 836 l 1
 896 836 l 1
 849 616 l 1
 539 616 l 1
 455 220 l 1
 722 220 l 2
697 0 m 2
 168 0 l 1
 299 616 l 1
 149 616 l 1
 196 836 l 1
 346 836 l 1
 476 1450 l 1
 981 1450 l 2
 1424 1450 1565 1251 1565 976 c 3
 1565 515 1312 0 697 0 c 2
EndSplineSet
EndChar

StartChar: eth
Encoding: 240 240 291
Width: 1238
Flags: W
HStem: -13 200<520.396 819.745> 895 200<651.432 921.815> 1082 21G<598.624 648.762> 1434 20G<638 948.682 1173.55 1223.29>
VStem: 218 223<267.454 646.026> 1034 239<484.1 795.188>
DStem2: 579 1175 604 1082 0.916682 0.399616<0 265.113 509.28 678.258>
LayerCount: 2
Fore
SplineSet
1273 768 m 3xbc
 1273 313 969 -13 616 -13 c 3
 380 -13 218 151 218 403 c 3
 218 769 510 1095 777 1095 c 3xdc
 870 1095 934 1057 993 983 c 1
 955 1072 985 1015 886 1208 c 1
 604 1082 l 1
 579 1175 l 1
 822 1281 l 1
 770 1340 705 1397 638 1454 c 1
 928 1454 l 1
 1019 1366 l 1
 1219 1454 l 1
 1240 1356 l 1
 1084 1291 l 1
 1217 1118 1273 947 1273 768 c 3xbc
809 895 m 0
 592 895 441 665 441 430 c 3
 441 311 487 187 663 187 c 3
 870 187 1034 395 1034 623 c 3
 1034 764 965 895 809 895 c 0
EndSplineSet
EndChar

StartChar: germandbls
Encoding: 223 223 292
Width: 1238
Flags: W
HStem: -13 220<696.972 946.622> 1262 220<703.232 950.873>
VStem: 961 249<1086.72 1327.75> 977 247<238.856 430.605>
DStem2: 153.237 -13 393.237 -13 0.207912 0.978148<63.1892 1313.24>
LayerCount: 2
Fore
SplineSet
838 1262 m 3xe0
 699 1262 649 1191 599 957 c 2
 396 0 l 1
 156 0 l 1
 359 957 l 2
 432 1300 569 1482 888 1482 c 3
 1074 1482 1210 1405 1210 1247 c 3xe0
 1210 1038 1000 926 1000 830 c 3
 1000 729 1224 582 1224 382 c 3
 1224 128 1011 -13 815 -13 c 3
 669 -13 573 33 529 161 c 1
 752 290 l 1
 769 237 797 207 838 207 c 3
 922 207 977 255 977 328 c 3xd0
 977 437 745 611 745 756 c 3
 745 896 961 1053 961 1186 c 3
 961 1237 923 1262 838 1262 c 3xe0
EndSplineSet
EndChar

StartChar: Oslash
Encoding: 216 216 293
Width: 1593
Flags: W
HStem: -13 220<638.919 1061.61> 1262 220<855.912 1275.11>
VStem: 235 243<421.815 823.053> 1431 244<642.746 1025.29>
DStem2: 80 41 194 -81 0.740881 0.671636<2.5209 297.225 562.826 1652.05 1938.09 2209.53>
LayerCount: 2
Fore
SplineSet
1071 1262 m 3
 672 1262 478 898 478 556 c 3
 478 505 484 460 497 419 c 1
 1332 1176 l 1
 1273 1232 1186 1262 1071 1262 c 3
407 112 m 1
 194 -81 l 1
 80 41 l 1
 301 241 l 1
 257 321 235 417 235 525 c 3
 235 1082 642 1482 1116 1482 c 3
 1290 1482 1425 1434 1520 1347 c 1
 1717 1525 l 1
 1831 1403 l 1
 1619 1211 l 1
 1656 1135 1675 1044 1675 942 c 3
 1675 394 1282 -13 797 -13 c 3
 633 -13 502 32 407 112 c 1
592 280 m 1
 652 233 736 207 844 207 c 3
 1253 207 1431 598 1431 901 c 3
 1431 947 1426 989 1416 1027 c 1
 592 280 l 1
EndSplineSet
EndChar

StartChar: oslash
Encoding: 248 248 294
Width: 1139
Flags: W
HStem: -13 200<456.539 771.496> 895 200<590.953 908.34>
VStem: 163 224<349.217 650.494> 974 224<433.545 752.5>
DStem2: 40 22 130 -71 0.73337 0.67983<2.77908 218.429 479.037 1152.64 1432.13 1601.31>
LayerCount: 2
Fore
SplineSet
756 895 m 3
 498 895 387 654 387 406 c 3
 387 386 388 366 391 348 c 1
 922 840 l 1
 888 875 834 895 756 895 c 3
281 69 m 1
 130 -71 l 1
 40 22 l 1
 202 172 l 1
 176 226 163 292 163 367 c 3
 163 811 441 1095 799 1095 c 3
 929 1095 1028 1062 1095 1000 c 1
 1214 1111 l 1
 1308 1021 l 1
 1169 892 l 1
 1189 843 1198 785 1198 720 c 3
 1198 273 924 -13 563 -13 c 3
 442 -13 348 15 281 69 c 1
454 230 m 1
 488 203 538 187 606 187 c 3
 864 187 974 429 974 678 c 3
 974 689 974 700 973 711 c 1
 454 230 l 1
EndSplineSet
EndChar

StartChar: multiply
Encoding: 215 215 295
Width: 1184
Flags: W
DStem2: 203 410 337 240 0.771274 0.636504<0 476.829 750.18 1226.24> 540 1194 333 1023 0.618441 -0.785831<6.35982 390.913 613.735 997.67>
LayerCount: 2
Fore
SplineSet
333 1023 m 1
 540 1194 l 1
 782 887 l 1
 1153 1194 l 1
 1287 1023 l 1
 915 717 l 1
 1157 410 l 1
 950 240 l 1
 709 546 l 1
 337 240 l 1
 203 410 l 1
 574 717 l 1
 333 1023 l 1
EndSplineSet
EndChar

StartChar: divide
Encoding: 247 247 296
Width: 1113
Flags: W
HStem: 201 244<531 719> 618 200<225 1195> 991 243<698 887>
DStem2: 479 201 719 201 0.207912 0.978148<49.8988 249.479 857.565 1055.96>
LayerCount: 2
Fore
SplineSet
647 991 m 1
 698 1234 l 1
 938 1234 l 1
 887 991 l 1
 647 991 l 1
182 618 m 1
 225 818 l 1
 1238 818 l 1
 1195 618 l 1
 182 618 l 1
479 201 m 1
 531 445 l 1
 771 445 l 1
 719 201 l 1
 479 201 l 1
EndSplineSet
EndChar

StartChar: circumflex
Encoding: 710 710 303
Width: 674
Flags: W
HStem: 1186 296<445 526>
VStem: 256 672
LayerCount: 2
Fore
SplineSet
256 1186 m 1
 526 1482 l 1
 784 1482 l 1
 928 1186 l 1
 703 1186 l 1
 621 1336 l 1
 479 1186 l 1
 256 1186 l 1
EndSplineSet
EndChar

StartChar: caron
Encoding: 711 711 304
Width: 674
Flags: W
HStem: 1186 296<687 766>
VStem: 319 672
LayerCount: 2
Fore
SplineSet
319 1482 m 1
 542 1482 l 1
 620 1332 l 1
 766 1482 l 1
 991 1482 l 1
 721 1186 l 1
 463 1186 l 1
 319 1482 l 1
EndSplineSet
EndChar

StartChar: ring
Encoding: 730 730 305
Width: 674
Flags: W
HStem: 1135 107<532.609 689.887> 1419 107<552.233 709.787>
VStem: 422 108<1246.25 1399.74> 712 108<1261.55 1415.84>
LayerCount: 2
Fore
SplineSet
422 1284 m 3
 422 1418 532 1526 662 1526 c 3
 759 1526 820 1459 820 1373 c 3
 820 1223 677 1135 579 1135 c 3
 486 1135 422 1193 422 1284 c 3
602 1242 m 3
 667 1242 712 1286 712 1361 c 3
 712 1400 688 1419 640 1419 c 3
 575 1419 530 1376 530 1301 c 3
 530 1262 554 1242 602 1242 c 3
EndSplineSet
EndChar

StartChar: tilde
Encoding: 732 732 306
Width: 674
Flags: W
HStem: 1197 165<616.731 831.94> 1283 165<385.116 605.36>
VStem: 242 128<1196 1272.35> 852 128<1383.41 1448>
LayerCount: 2
Fore
SplineSet
477 1448 m 3x70
 581 1448 664 1362 753 1362 c 3xb0
 800 1362 834 1391 852 1448 c 1
 980 1448 l 1x70
 945 1284 867 1197 751 1197 c 3xb0
 668 1197 535 1283 456 1283 c 3
 409 1283 383 1255 370 1196 c 1
 242 1196 l 1
 276 1356 337 1448 477 1448 c 3x70
EndSplineSet
EndChar

StartChar: Ccedilla
Encoding: 199 199 307
Width: 1479
Flags: W
HStem: -428 200<353.967 622.457> -400 206<347 488.185> -6 213<666.504 680 892.236 1024.64> 1262 220<851.336 1244.72>
VStem: 234 251<394.149 818.111> 1356 240<1050 1162.15>
LayerCount: 2
Fore
SplineSet
375 -194 m 1x7c
 415 -214 459 -228 507 -228 c 3
 593 -228 644 -190 664 -96 c 0
 671 -62 673 -47 680 -6 c 1
 390 30 234 220 234 519 c 3
 234 1084 638 1482 1109 1482 c 3
 1415 1482 1580 1304 1596 1050 c 1
 1356 1050 l 1
 1342 1182 1233 1262 1058 1262 c 3
 745 1262 485 983 485 599 c 3
 485 367 615 207 832 207 c 3
 1011 207 1209 328 1260 480 c 1
 1500 480 l 1
 1384 232 1191 35 900 -5 c 1
 896 -31 891 -58 887 -78 c 0
 828 -354 621 -428 490 -428 c 3xbc
 452 -428 367 -420 303 -400 c 1
 347 -194 l 1
 375 -194 l 1x7c
EndSplineSet
EndChar

StartChar: ccedilla
Encoding: 231 231 308
Width: 1024
Flags: W
HStem: -428 200<112.967 381.457> -400 206<106 247.185> 895 200<606.386 886.555>
VStem: 175 225<256.047 645.047> 871 220<297.278 403> 937 224<696 843.057>
LayerCount: 2
Fore
SplineSet
601 187 m 3xb4
 741 187 837 256 871 403 c 1
 1091 403 l 1
 1022 121 826 21 659 -5 c 1
 655 -31 650 -58 646 -78 c 0
 587 -354 380 -428 249 -428 c 3xb8
 211 -428 126 -420 62 -400 c 1
 106 -194 l 1
 134 -194 l 1x78
 174 -214 218 -228 266 -228 c 3
 352 -228 403 -190 423 -96 c 0
 430 -61 432 -46 440 1 c 1
 271 43 175 178 175 375 c 3
 175 793 451 1095 797 1095 c 3
 1023 1095 1161 970 1161 785 c 3
 1161 757 1158 727 1151 696 c 1
 933 696 l 1
 936 709 937 722 937 734 c 3
 937 831 860 895 761 895 c 3
 517 895 400 633 400 414 c 3
 400 278 463 187 601 187 c 3xb4
EndSplineSet
EndChar

StartChar: uni00B9
Encoding: 185 185 354
Width: 1010
VWidth: 2614
Flags: W
VStem: 476 498
DStem2: 547 534 767 534 0.207912 0.978148<45.7406 618.392 852.826 1001.12>
LayerCount: 2
Fore
SplineSet
523 1271 m 1
 649 1325 696 1373 761 1512 c 1
 974 1512 l 1
 767 534 l 1
 547 534 l 1
 675 1139 l 1
 580 1071 550 1066 476 1049 c 1
 523 1271 l 1
EndSplineSet
EndChar

StartChar: ordmasculine
Encoding: 186 186 355
Width: 1010
Flags: W
HStem: 735 200<620.017 802.694> 1282 200<681.273 853.619>
VStem: 384 224<946.554 1200.48> 871 225<1012.69 1268.18>
LayerCount: 2
Fore
SplineSet
662 735 m 3
 474 735 384 848 384 1004 c 3
 384 1288 587 1482 821 1482 c 3
 987 1482 1096 1389 1096 1213 c 3
 1096 975 964 735 662 735 c 3
775 1282 m 3
 684 1282 608 1173 608 1040 c 3
 608 971 640 935 702 935 c 3
 794 935 871 1032 871 1167 c 3
 871 1239 837 1282 775 1282 c 3
EndSplineSet
EndChar

StartChar: onequarter
Encoding: 188 188 356
Width: 1691
VWidth: 2007
Flags: W
HStem: 130 200<1310 1389 1651 1719>
DStem2: 219.128 -85 439.128 -85 0.207912 0.978148<670.391 1243.04 1477.68 1625.98> 264 -85 496 -85 0.613665 0.789566<142.37 2012.5> 1050 308 1310 330 0.655364 0.755313<187.012 436.69> 1342.45 -85 1562.45 -85 0.207912 0.978148<58.0087 219.98 470.083 618.714>
LayerCount: 2
Fore
SplineSet
1345 -73 m 1
 1389 130 l 1
 1013 130 l 1
 1050 308 l 1
 1568 905 l 1
 1773 905 l 1
 1651 330 l 1
 1761 330 l 1
 1719 130 l 1
 1609 130 l 1
 1565 -73 l 1
 1345 -73 l 1
1431 330 m 1
 1472 520 l 1
 1310 330 l 1
 1431 330 l 1
325 1263 m 1
 451 1320 499 1363 564 1504 c 1
 777 1504 l 1
 569 526 l 1
 349 526 l 1
 477 1131 l 1
 382 1063 352 1058 278 1041 c 1
 325 1263 l 1
496 -85 m 1
 264 -85 l 1
 1499 1504 l 1
 1731 1504 l 1
 496 -85 l 1
EndSplineSet
EndChar

StartChar: onehalf
Encoding: 189 189 357
Width: 1691
VWidth: 2007
Flags: W
HStem: -73 200<1331 1658> 711 200<1411.25 1581.09>
VStem: 1151 220<572 671.445> 1588 224<535.044 702.694>
DStem2: 231 -85 463 -85 0.613665 0.789566<142.37 2012.5>
LayerCount: 2
Fore
SplineSet
1550 911 m 3
 1712 911 1812 823 1812 690 c 3
 1812 406 1480 258 1331 127 c 1
 1700 127 l 1
 1658 -73 l 1
 989 -73 l 1
 1033 74 1117 187 1207 261 c 0
 1370 396 1588 504 1588 642 c 3
 1588 682 1547 711 1506 711 c 3
 1426 711 1392 659 1371 572 c 1
 1151 572 l 1
 1195 778 1336 911 1550 911 c 3
325 1263 m 1
 451 1317 499 1365 564 1504 c 1
 777 1504 l 1
 569 526 l 1
 349 526 l 1
 477 1131 l 1
 382 1063 352 1058 278 1041 c 1
 325 1263 l 1
463 -85 m 1
 231 -85 l 1
 1466 1504 l 1
 1698 1504 l 1
 463 -85 l 1
EndSplineSet
EndChar

StartChar: threequarters
Encoding: 190 190 358
Width: 1691
VWidth: 2007
Flags: W
HStem: 130 200<1310 1389 1651 1719> 514 200<425.835 591.395> 932 200<474 619.358> 1304 200<530.424 665.488>
VStem: 182 229<726.238 849> 630 229<751.319 918.464> 672 224<1157.88 1299.15>
DStem2: 263 -85 496 -85 0.613665 0.789566<142.984 2012.5> 1050 308 1310 330 0.655364 0.755313<187.012 436.69> 1342.45 -85 1562.45 -85 0.207912 0.978148<58.0087 219.98 470.083 618.714>
LayerCount: 2
Fore
SplineSet
859 916 m 3xfc
 859 677 656 514 443 514 c 3
 281 514 182 608 182 761 c 3
 182 788 185 818 192 849 c 1
 412 849 l 1
 412 842 411 836 411 830 c 3
 411 761 437 714 486 714 c 3
 570 714 630 772 630 848 c 3xfc
 630 896 592 932 522 932 c 0
 488 932 456 922 427 914 c 1
 474 1132 l 1
 606 1132 672 1152 672 1244 c 3
 672 1271 637 1304 611 1304 c 3
 549 1304 520 1259 496 1184 c 1
 276 1184 l 1
 316 1372 458 1504 649 1504 c 3
 793 1504 896 1422 896 1292 c 3xfa
 896 1189 852 1099 794 1054 c 1
 840 1025 859 977 859 916 c 3xfc
496 -85 m 1
 263 -85 l 1
 1498 1504 l 1
 1729 1504 l 1
 496 -85 l 1
1345 -73 m 1
 1389 130 l 1
 1013 130 l 1
 1050 308 l 1
 1568 905 l 1
 1773 905 l 1
 1651 330 l 1
 1761 330 l 1
 1719 130 l 1
 1609 130 l 1
 1565 -73 l 1
 1345 -73 l 1
1431 330 m 1
 1472 520 l 1
 1310 330 l 1
 1431 330 l 1
EndSplineSet
EndChar
